<?xml version="1.0" encoding="utf-8" standalone="no"?>
<!DOCTYPE svg PUBLIC "-//W3C//DTD SVG 1.1//EN"
  "http://www.w3.org/Graphics/SVG/1.1/DTD/svg11.dtd">
<svg xmlns:xlink="http://www.w3.org/1999/xlink" width="385.78125pt" height="401.51625pt" viewBox="0 0 385.78125 401.51625" xmlns="http://www.w3.org/2000/svg" version="1.1">
 <metadata>
  <rdf:RDF xmlns:dc="http://purl.org/dc/elements/1.1/" xmlns:cc="http://creativecommons.org/ns#" xmlns:rdf="http://www.w3.org/1999/02/22-rdf-syntax-ns#">
   <cc:Work>
    <dc:type rdf:resource="http://purl.org/dc/dcmitype/StillImage"/>
    <dc:date>2025-02-02T21:45:04.703700</dc:date>
    <dc:format>image/svg+xml</dc:format>
    <dc:creator>
     <cc:Agent>
      <dc:title>Matplotlib v3.7.2, https://matplotlib.org/</dc:title>
     </cc:Agent>
    </dc:creator>
   </cc:Work>
  </rdf:RDF>
 </metadata>
 <defs>
  <style type="text/css">*{stroke-linejoin: round; stroke-linecap: butt}</style>
 </defs>
 <g id="figure_1">
  <g id="patch_1">
   <path d="M 0 401.51625 
L 385.78125 401.51625 
L 385.78125 0 
L 0 0 
L 0 401.51625 
z
" style="fill: none"/>
  </g>
  <g id="axes_1">
   <g id="patch_2">
    <path d="M 43.78125 363.96 
L 378.58125 363.96 
L 378.58125 37.8 
L 43.78125 37.8 
z
" style="fill: #ffffff"/>
   </g>
   <g id="PathCollection_1">
    <defs>
     <path id="m043053c711" d="M 0 3 
C 0.795609 3 1.55874 2.683901 2.12132 2.12132 
C 2.683901 1.55874 3 0.795609 3 0 
C 3 -0.795609 2.683901 -1.55874 2.12132 -2.12132 
C 1.55874 -2.683901 0.795609 -3 0 -3 
C -0.795609 -3 -1.55874 -2.683901 -2.12132 -2.12132 
C -2.683901 -1.55874 -3 -0.795609 -3 0 
C -3 0.795609 -2.683901 1.55874 -2.12132 2.12132 
C -1.55874 2.683901 -0.795609 3 0 3 
z
" style="stroke: #0a8e78"/>
    </defs>
    <g clip-path="url(#pa9d75499de)">
     <use xlink:href="#m043053c711" x="58.999432" y="280.270242" style="fill: #0a8e78; stroke: #0a8e78"/>
     <use xlink:href="#m043053c711" x="64.158138" y="280.002213" style="fill: #0a8e78; stroke: #0a8e78"/>
     <use xlink:href="#m043053c711" x="69.316843" y="269.615655" style="fill: #0a8e78; stroke: #0a8e78"/>
     <use xlink:href="#m043053c711" x="74.475549" y="258.360868" style="fill: #0a8e78; stroke: #0a8e78"/>
     <use xlink:href="#m043053c711" x="79.634255" y="247.871365" style="fill: #0a8e78; stroke: #0a8e78"/>
     <use xlink:href="#m043053c711" x="84.79296" y="234.749442" style="fill: #0a8e78; stroke: #0a8e78"/>
     <use xlink:href="#m043053c711" x="89.951666" y="222.836031" style="fill: #0a8e78; stroke: #0a8e78"/>
     <use xlink:href="#m043053c711" x="95.110372" y="206.87888" style="fill: #0a8e78; stroke: #0a8e78"/>
     <use xlink:href="#m043053c711" x="100.269077" y="198.302925" style="fill: #0a8e78; stroke: #0a8e78"/>
     <use xlink:href="#m043053c711" x="105.427783" y="191.643902" style="fill: #0a8e78; stroke: #0a8e78"/>
     <use xlink:href="#m043053c711" x="110.586489" y="179.145676" style="fill: #0a8e78; stroke: #0a8e78"/>
     <use xlink:href="#m043053c711" x="115.745195" y="174.323554" style="fill: #0a8e78; stroke: #0a8e78"/>
     <use xlink:href="#m043053c711" x="120.9039" y="163.680878" style="fill: #0a8e78; stroke: #0a8e78"/>
     <use xlink:href="#m043053c711" x="126.062606" y="157.312217" style="fill: #0a8e78; stroke: #0a8e78"/>
     <use xlink:href="#m043053c711" x="131.221312" y="154.434736" style="fill: #0a8e78; stroke: #0a8e78"/>
     <use xlink:href="#m043053c711" x="136.380017" y="146.065392" style="fill: #0a8e78; stroke: #0a8e78"/>
     <use xlink:href="#m043053c711" x="141.538723" y="139.102207" style="fill: #0a8e78; stroke: #0a8e78"/>
     <use xlink:href="#m043053c711" x="146.697429" y="135.244846" style="fill: #0a8e78; stroke: #0a8e78"/>
     <use xlink:href="#m043053c711" x="151.856134" y="121.182607" style="fill: #0a8e78; stroke: #0a8e78"/>
     <use xlink:href="#m043053c711" x="157.01484" y="118.611233" style="fill: #0a8e78; stroke: #0a8e78"/>
     <use xlink:href="#m043053c711" x="162.173546" y="111.256547" style="fill: #0a8e78; stroke: #0a8e78"/>
     <use xlink:href="#m043053c711" x="167.332252" y="114.497879" style="fill: #0a8e78; stroke: #0a8e78"/>
     <use xlink:href="#m043053c711" x="172.490957" y="108.481766" style="fill: #0a8e78; stroke: #0a8e78"/>
     <use xlink:href="#m043053c711" x="177.649663" y="103.777464" style="fill: #0a8e78; stroke: #0a8e78"/>
     <use xlink:href="#m043053c711" x="182.808369" y="98.821394" style="fill: #0a8e78; stroke: #0a8e78"/>
     <use xlink:href="#m043053c711" x="187.967074" y="95.115862" style="fill: #0a8e78; stroke: #0a8e78"/>
     <use xlink:href="#m043053c711" x="193.12578" y="88.841596" style="fill: #0a8e78; stroke: #0a8e78"/>
     <use xlink:href="#m043053c711" x="198.284486" y="86.926836" style="fill: #0a8e78; stroke: #0a8e78"/>
     <use xlink:href="#m043053c711" x="203.443191" y="84.993595" style="fill: #0a8e78; stroke: #0a8e78"/>
     <use xlink:href="#m043053c711" x="208.601897" y="85.451459" style="fill: #0a8e78; stroke: #0a8e78"/>
     <use xlink:href="#m043053c711" x="213.760603" y="81.320608" style="fill: #0a8e78; stroke: #0a8e78"/>
     <use xlink:href="#m043053c711" x="218.919309" y="77.91415" style="fill: #0a8e78; stroke: #0a8e78"/>
     <use xlink:href="#m043053c711" x="224.078014" y="78.154326" style="fill: #0a8e78; stroke: #0a8e78"/>
     <use xlink:href="#m043053c711" x="229.23672" y="75.096168" style="fill: #0a8e78; stroke: #0a8e78"/>
     <use xlink:href="#m043053c711" x="234.395426" y="71.972199" style="fill: #0a8e78; stroke: #0a8e78"/>
     <use xlink:href="#m043053c711" x="239.554131" y="70.391098" style="fill: #0a8e78; stroke: #0a8e78"/>
     <use xlink:href="#m043053c711" x="244.712837" y="69.48898" style="fill: #0a8e78; stroke: #0a8e78"/>
     <use xlink:href="#m043053c711" x="249.871543" y="66.561674" style="fill: #0a8e78; stroke: #0a8e78"/>
     <use xlink:href="#m043053c711" x="255.030248" y="64.620753" style="fill: #0a8e78; stroke: #0a8e78"/>
     <use xlink:href="#m043053c711" x="260.188954" y="63.457626" style="fill: #0a8e78; stroke: #0a8e78"/>
     <use xlink:href="#m043053c711" x="265.34766" y="63.703082" style="fill: #0a8e78; stroke: #0a8e78"/>
     <use xlink:href="#m043053c711" x="270.506366" y="61.998569" style="fill: #0a8e78; stroke: #0a8e78"/>
     <use xlink:href="#m043053c711" x="275.665071" y="61.308906" style="fill: #0a8e78; stroke: #0a8e78"/>
     <use xlink:href="#m043053c711" x="280.823777" y="59.175187" style="fill: #0a8e78; stroke: #0a8e78"/>
     <use xlink:href="#m043053c711" x="285.982483" y="59.142834" style="fill: #0a8e78; stroke: #0a8e78"/>
     <use xlink:href="#m043053c711" x="291.141188" y="57.483802" style="fill: #0a8e78; stroke: #0a8e78"/>
     <use xlink:href="#m043053c711" x="296.299894" y="56.607533" style="fill: #0a8e78; stroke: #0a8e78"/>
     <use xlink:href="#m043053c711" x="301.4586" y="57.191688" style="fill: #0a8e78; stroke: #0a8e78"/>
     <use xlink:href="#m043053c711" x="306.617305" y="54.629363" style="fill: #0a8e78; stroke: #0a8e78"/>
     <use xlink:href="#m043053c711" x="311.776011" y="55.844835" style="fill: #0a8e78; stroke: #0a8e78"/>
     <use xlink:href="#m043053c711" x="316.934717" y="54.657371" style="fill: #0a8e78; stroke: #0a8e78"/>
     <use xlink:href="#m043053c711" x="322.093423" y="52.798533" style="fill: #0a8e78; stroke: #0a8e78"/>
     <use xlink:href="#m043053c711" x="327.252128" y="52.723267" style="fill: #0a8e78; stroke: #0a8e78"/>
     <use xlink:href="#m043053c711" x="332.410834" y="51.347541" style="fill: #0a8e78; stroke: #0a8e78"/>
     <use xlink:href="#m043053c711" x="337.56954" y="50.820339" style="fill: #0a8e78; stroke: #0a8e78"/>
     <use xlink:href="#m043053c711" x="342.728245" y="50.31409" style="fill: #0a8e78; stroke: #0a8e78"/>
     <use xlink:href="#m043053c711" x="347.886951" y="49.52156" style="fill: #0a8e78; stroke: #0a8e78"/>
     <use xlink:href="#m043053c711" x="353.045657" y="48.379985" style="fill: #0a8e78; stroke: #0a8e78"/>
     <use xlink:href="#m043053c711" x="358.204362" y="50.07581" style="fill: #0a8e78; stroke: #0a8e78"/>
     <use xlink:href="#m043053c711" x="363.363068" y="47.61688" style="fill: #0a8e78; stroke: #0a8e78"/>
    </g>
   </g>
   <g id="matplotlib.axis_1">
    <g id="xtick_1">
     <g id="line2d_1">
      <path d="M 53.840726 363.96 
L 53.840726 37.8 
" clip-path="url(#pa9d75499de)" style="fill: none; stroke: #b0b0b0; stroke-width: 0.8; stroke-linecap: square"/>
     </g>
     <g id="line2d_2">
      <defs>
       <path id="me08b3b96ba" d="M 0 0 
L 0 3.5 
" style="stroke: #000000; stroke-width: 0.8"/>
      </defs>
      <g>
       <use xlink:href="#me08b3b96ba" x="53.840726" y="363.96" style="stroke: #000000; stroke-width: 0.8"/>
      </g>
     </g>
     <g id="text_1">
      <!-- 0 -->
      <g transform="translate(50.659476 378.558437) scale(0.1 -0.1)">
       <defs>
        <path id="DejaVuSans-30" d="M 2034 4250 
Q 1547 4250 1301 3770 
Q 1056 3291 1056 2328 
Q 1056 1369 1301 889 
Q 1547 409 2034 409 
Q 2525 409 2770 889 
Q 3016 1369 3016 2328 
Q 3016 3291 2770 3770 
Q 2525 4250 2034 4250 
z
M 2034 4750 
Q 2819 4750 3233 4129 
Q 3647 3509 3647 2328 
Q 3647 1150 3233 529 
Q 2819 -91 2034 -91 
Q 1250 -91 836 529 
Q 422 1150 422 2328 
Q 422 3509 836 4129 
Q 1250 4750 2034 4750 
z
" transform="scale(0.015625)"/>
       </defs>
       <use xlink:href="#DejaVuSans-30"/>
      </g>
     </g>
    </g>
    <g id="xtick_2">
     <g id="line2d_3">
      <path d="M 105.427783 363.96 
L 105.427783 37.8 
" clip-path="url(#pa9d75499de)" style="fill: none; stroke: #b0b0b0; stroke-width: 0.8; stroke-linecap: square"/>
     </g>
     <g id="line2d_4">
      <g>
       <use xlink:href="#me08b3b96ba" x="105.427783" y="363.96" style="stroke: #000000; stroke-width: 0.8"/>
      </g>
     </g>
     <g id="text_2">
      <!-- 1 -->
      <g transform="translate(102.246533 378.558437) scale(0.1 -0.1)">
       <defs>
        <path id="DejaVuSans-31" d="M 794 531 
L 1825 531 
L 1825 4091 
L 703 3866 
L 703 4441 
L 1819 4666 
L 2450 4666 
L 2450 531 
L 3481 531 
L 3481 0 
L 794 0 
L 794 531 
z
" transform="scale(0.015625)"/>
       </defs>
       <use xlink:href="#DejaVuSans-31"/>
      </g>
     </g>
    </g>
    <g id="xtick_3">
     <g id="line2d_5">
      <path d="M 157.01484 363.96 
L 157.01484 37.8 
" clip-path="url(#pa9d75499de)" style="fill: none; stroke: #b0b0b0; stroke-width: 0.8; stroke-linecap: square"/>
     </g>
     <g id="line2d_6">
      <g>
       <use xlink:href="#me08b3b96ba" x="157.01484" y="363.96" style="stroke: #000000; stroke-width: 0.8"/>
      </g>
     </g>
     <g id="text_3">
      <!-- 2 -->
      <g transform="translate(153.83359 378.558437) scale(0.1 -0.1)">
       <defs>
        <path id="DejaVuSans-32" d="M 1228 531 
L 3431 531 
L 3431 0 
L 469 0 
L 469 531 
Q 828 903 1448 1529 
Q 2069 2156 2228 2338 
Q 2531 2678 2651 2914 
Q 2772 3150 2772 3378 
Q 2772 3750 2511 3984 
Q 2250 4219 1831 4219 
Q 1534 4219 1204 4116 
Q 875 4013 500 3803 
L 500 4441 
Q 881 4594 1212 4672 
Q 1544 4750 1819 4750 
Q 2544 4750 2975 4387 
Q 3406 4025 3406 3419 
Q 3406 3131 3298 2873 
Q 3191 2616 2906 2266 
Q 2828 2175 2409 1742 
Q 1991 1309 1228 531 
z
" transform="scale(0.015625)"/>
       </defs>
       <use xlink:href="#DejaVuSans-32"/>
      </g>
     </g>
    </g>
    <g id="xtick_4">
     <g id="line2d_7">
      <path d="M 208.601897 363.96 
L 208.601897 37.8 
" clip-path="url(#pa9d75499de)" style="fill: none; stroke: #b0b0b0; stroke-width: 0.8; stroke-linecap: square"/>
     </g>
     <g id="line2d_8">
      <g>
       <use xlink:href="#me08b3b96ba" x="208.601897" y="363.96" style="stroke: #000000; stroke-width: 0.8"/>
      </g>
     </g>
     <g id="text_4">
      <!-- 3 -->
      <g transform="translate(205.420647 378.558437) scale(0.1 -0.1)">
       <defs>
        <path id="DejaVuSans-33" d="M 2597 2516 
Q 3050 2419 3304 2112 
Q 3559 1806 3559 1356 
Q 3559 666 3084 287 
Q 2609 -91 1734 -91 
Q 1441 -91 1130 -33 
Q 819 25 488 141 
L 488 750 
Q 750 597 1062 519 
Q 1375 441 1716 441 
Q 2309 441 2620 675 
Q 2931 909 2931 1356 
Q 2931 1769 2642 2001 
Q 2353 2234 1838 2234 
L 1294 2234 
L 1294 2753 
L 1863 2753 
Q 2328 2753 2575 2939 
Q 2822 3125 2822 3475 
Q 2822 3834 2567 4026 
Q 2313 4219 1838 4219 
Q 1578 4219 1281 4162 
Q 984 4106 628 3988 
L 628 4550 
Q 988 4650 1302 4700 
Q 1616 4750 1894 4750 
Q 2613 4750 3031 4423 
Q 3450 4097 3450 3541 
Q 3450 3153 3228 2886 
Q 3006 2619 2597 2516 
z
" transform="scale(0.015625)"/>
       </defs>
       <use xlink:href="#DejaVuSans-33"/>
      </g>
     </g>
    </g>
    <g id="xtick_5">
     <g id="line2d_9">
      <path d="M 260.188954 363.96 
L 260.188954 37.8 
" clip-path="url(#pa9d75499de)" style="fill: none; stroke: #b0b0b0; stroke-width: 0.8; stroke-linecap: square"/>
     </g>
     <g id="line2d_10">
      <g>
       <use xlink:href="#me08b3b96ba" x="260.188954" y="363.96" style="stroke: #000000; stroke-width: 0.8"/>
      </g>
     </g>
     <g id="text_5">
      <!-- 4 -->
      <g transform="translate(257.007704 378.558437) scale(0.1 -0.1)">
       <defs>
        <path id="DejaVuSans-34" d="M 2419 4116 
L 825 1625 
L 2419 1625 
L 2419 4116 
z
M 2253 4666 
L 3047 4666 
L 3047 1625 
L 3713 1625 
L 3713 1100 
L 3047 1100 
L 3047 0 
L 2419 0 
L 2419 1100 
L 313 1100 
L 313 1709 
L 2253 4666 
z
" transform="scale(0.015625)"/>
       </defs>
       <use xlink:href="#DejaVuSans-34"/>
      </g>
     </g>
    </g>
    <g id="xtick_6">
     <g id="line2d_11">
      <path d="M 311.776011 363.96 
L 311.776011 37.8 
" clip-path="url(#pa9d75499de)" style="fill: none; stroke: #b0b0b0; stroke-width: 0.8; stroke-linecap: square"/>
     </g>
     <g id="line2d_12">
      <g>
       <use xlink:href="#me08b3b96ba" x="311.776011" y="363.96" style="stroke: #000000; stroke-width: 0.8"/>
      </g>
     </g>
     <g id="text_6">
      <!-- 5 -->
      <g transform="translate(308.594761 378.558437) scale(0.1 -0.1)">
       <defs>
        <path id="DejaVuSans-35" d="M 691 4666 
L 3169 4666 
L 3169 4134 
L 1269 4134 
L 1269 2991 
Q 1406 3038 1543 3061 
Q 1681 3084 1819 3084 
Q 2600 3084 3056 2656 
Q 3513 2228 3513 1497 
Q 3513 744 3044 326 
Q 2575 -91 1722 -91 
Q 1428 -91 1123 -41 
Q 819 9 494 109 
L 494 744 
Q 775 591 1075 516 
Q 1375 441 1709 441 
Q 2250 441 2565 725 
Q 2881 1009 2881 1497 
Q 2881 1984 2565 2268 
Q 2250 2553 1709 2553 
Q 1456 2553 1204 2497 
Q 953 2441 691 2322 
L 691 4666 
z
" transform="scale(0.015625)"/>
       </defs>
       <use xlink:href="#DejaVuSans-35"/>
      </g>
     </g>
    </g>
    <g id="xtick_7">
     <g id="line2d_13">
      <path d="M 363.363068 363.96 
L 363.363068 37.8 
" clip-path="url(#pa9d75499de)" style="fill: none; stroke: #b0b0b0; stroke-width: 0.8; stroke-linecap: square"/>
     </g>
     <g id="line2d_14">
      <g>
       <use xlink:href="#me08b3b96ba" x="363.363068" y="363.96" style="stroke: #000000; stroke-width: 0.8"/>
      </g>
     </g>
     <g id="text_7">
      <!-- 6 -->
      <g transform="translate(360.181818 378.558437) scale(0.1 -0.1)">
       <defs>
        <path id="DejaVuSans-36" d="M 2113 2584 
Q 1688 2584 1439 2293 
Q 1191 2003 1191 1497 
Q 1191 994 1439 701 
Q 1688 409 2113 409 
Q 2538 409 2786 701 
Q 3034 994 3034 1497 
Q 3034 2003 2786 2293 
Q 2538 2584 2113 2584 
z
M 3366 4563 
L 3366 3988 
Q 3128 4100 2886 4159 
Q 2644 4219 2406 4219 
Q 1781 4219 1451 3797 
Q 1122 3375 1075 2522 
Q 1259 2794 1537 2939 
Q 1816 3084 2150 3084 
Q 2853 3084 3261 2657 
Q 3669 2231 3669 1497 
Q 3669 778 3244 343 
Q 2819 -91 2113 -91 
Q 1303 -91 875 529 
Q 447 1150 447 2328 
Q 447 3434 972 4092 
Q 1497 4750 2381 4750 
Q 2619 4750 2861 4703 
Q 3103 4656 3366 4563 
z
" transform="scale(0.015625)"/>
       </defs>
       <use xlink:href="#DejaVuSans-36"/>
      </g>
     </g>
    </g>
    <g id="text_8">
     <!-- $\rho$ -->
     <g transform="translate(207.98125 392.21625) scale(0.1 -0.1)">
      <defs>
       <path id="DejaVuSans-Oblique-3c1" d="M 1203 2875 
Q 1453 3194 1981 3475 
Q 2188 3584 2756 3584 
Q 3394 3584 3694 3078 
Q 3994 2572 3834 1747 
Q 3672 922 3175 415 
Q 2678 -91 2041 -91 
Q 1656 -91 1409 63 
Q 1163 213 1044 525 
L 681 -1331 
L 103 -1331 
L 697 1716 
Q 838 2438 1203 2875 
z
M 3238 1747 
Q 3359 2381 3169 2744 
Q 2978 3103 2522 3103 
Q 2066 3103 1734 2744 
Q 1403 2381 1281 1747 
Q 1156 1113 1347 750 
Q 1538 391 1994 391 
Q 2450 391 2781 750 
Q 3113 1113 3238 1747 
z
" transform="scale(0.015625)"/>
      </defs>
      <use xlink:href="#DejaVuSans-Oblique-3c1"/>
     </g>
    </g>
   </g>
   <g id="matplotlib.axis_2">
    <g id="ytick_1">
     <g id="line2d_15">
      <path d="M 43.78125 363.96 
L 378.58125 363.96 
" clip-path="url(#pa9d75499de)" style="fill: none; stroke: #b0b0b0; stroke-width: 0.8; stroke-linecap: square"/>
     </g>
     <g id="line2d_16">
      <defs>
       <path id="m4fa5a56cac" d="M 0 0 
L -3.5 0 
" style="stroke: #000000; stroke-width: 0.8"/>
      </defs>
      <g>
       <use xlink:href="#m4fa5a56cac" x="43.78125" y="363.96" style="stroke: #000000; stroke-width: 0.8"/>
      </g>
     </g>
     <g id="text_9">
      <!-- 0.0 -->
      <g transform="translate(20.878125 367.759219) scale(0.1 -0.1)">
       <defs>
        <path id="DejaVuSans-2e" d="M 684 794 
L 1344 794 
L 1344 0 
L 684 0 
L 684 794 
z
" transform="scale(0.015625)"/>
       </defs>
       <use xlink:href="#DejaVuSans-30"/>
       <use xlink:href="#DejaVuSans-2e" x="63.623047"/>
       <use xlink:href="#DejaVuSans-30" x="95.410156"/>
      </g>
     </g>
    </g>
    <g id="ytick_2">
     <g id="line2d_17">
      <path d="M 43.78125 323.693333 
L 378.58125 323.693333 
" clip-path="url(#pa9d75499de)" style="fill: none; stroke: #b0b0b0; stroke-width: 0.8; stroke-linecap: square"/>
     </g>
     <g id="line2d_18">
      <g>
       <use xlink:href="#m4fa5a56cac" x="43.78125" y="323.693333" style="stroke: #000000; stroke-width: 0.8"/>
      </g>
     </g>
     <g id="text_10">
      <!-- 0.1 -->
      <g transform="translate(20.878125 327.492552) scale(0.1 -0.1)">
       <use xlink:href="#DejaVuSans-30"/>
       <use xlink:href="#DejaVuSans-2e" x="63.623047"/>
       <use xlink:href="#DejaVuSans-31" x="95.410156"/>
      </g>
     </g>
    </g>
    <g id="ytick_3">
     <g id="line2d_19">
      <path d="M 43.78125 283.426667 
L 378.58125 283.426667 
" clip-path="url(#pa9d75499de)" style="fill: none; stroke: #b0b0b0; stroke-width: 0.8; stroke-linecap: square"/>
     </g>
     <g id="line2d_20">
      <g>
       <use xlink:href="#m4fa5a56cac" x="43.78125" y="283.426667" style="stroke: #000000; stroke-width: 0.8"/>
      </g>
     </g>
     <g id="text_11">
      <!-- 0.2 -->
      <g transform="translate(20.878125 287.225885) scale(0.1 -0.1)">
       <use xlink:href="#DejaVuSans-30"/>
       <use xlink:href="#DejaVuSans-2e" x="63.623047"/>
       <use xlink:href="#DejaVuSans-32" x="95.410156"/>
      </g>
     </g>
    </g>
    <g id="ytick_4">
     <g id="line2d_21">
      <path d="M 43.78125 243.16 
L 378.58125 243.16 
" clip-path="url(#pa9d75499de)" style="fill: none; stroke: #b0b0b0; stroke-width: 0.8; stroke-linecap: square"/>
     </g>
     <g id="line2d_22">
      <g>
       <use xlink:href="#m4fa5a56cac" x="43.78125" y="243.16" style="stroke: #000000; stroke-width: 0.8"/>
      </g>
     </g>
     <g id="text_12">
      <!-- 0.3 -->
      <g transform="translate(20.878125 246.959219) scale(0.1 -0.1)">
       <use xlink:href="#DejaVuSans-30"/>
       <use xlink:href="#DejaVuSans-2e" x="63.623047"/>
       <use xlink:href="#DejaVuSans-33" x="95.410156"/>
      </g>
     </g>
    </g>
    <g id="ytick_5">
     <g id="line2d_23">
      <path d="M 43.78125 202.893333 
L 378.58125 202.893333 
" clip-path="url(#pa9d75499de)" style="fill: none; stroke: #b0b0b0; stroke-width: 0.8; stroke-linecap: square"/>
     </g>
     <g id="line2d_24">
      <g>
       <use xlink:href="#m4fa5a56cac" x="43.78125" y="202.893333" style="stroke: #000000; stroke-width: 0.8"/>
      </g>
     </g>
     <g id="text_13">
      <!-- 0.4 -->
      <g transform="translate(20.878125 206.692552) scale(0.1 -0.1)">
       <use xlink:href="#DejaVuSans-30"/>
       <use xlink:href="#DejaVuSans-2e" x="63.623047"/>
       <use xlink:href="#DejaVuSans-34" x="95.410156"/>
      </g>
     </g>
    </g>
    <g id="ytick_6">
     <g id="line2d_25">
      <path d="M 43.78125 162.626667 
L 378.58125 162.626667 
" clip-path="url(#pa9d75499de)" style="fill: none; stroke: #b0b0b0; stroke-width: 0.8; stroke-linecap: square"/>
     </g>
     <g id="line2d_26">
      <g>
       <use xlink:href="#m4fa5a56cac" x="43.78125" y="162.626667" style="stroke: #000000; stroke-width: 0.8"/>
      </g>
     </g>
     <g id="text_14">
      <!-- 0.5 -->
      <g transform="translate(20.878125 166.425885) scale(0.1 -0.1)">
       <use xlink:href="#DejaVuSans-30"/>
       <use xlink:href="#DejaVuSans-2e" x="63.623047"/>
       <use xlink:href="#DejaVuSans-35" x="95.410156"/>
      </g>
     </g>
    </g>
    <g id="ytick_7">
     <g id="line2d_27">
      <path d="M 43.78125 122.36 
L 378.58125 122.36 
" clip-path="url(#pa9d75499de)" style="fill: none; stroke: #b0b0b0; stroke-width: 0.8; stroke-linecap: square"/>
     </g>
     <g id="line2d_28">
      <g>
       <use xlink:href="#m4fa5a56cac" x="43.78125" y="122.36" style="stroke: #000000; stroke-width: 0.8"/>
      </g>
     </g>
     <g id="text_15">
      <!-- 0.6 -->
      <g transform="translate(20.878125 126.159219) scale(0.1 -0.1)">
       <use xlink:href="#DejaVuSans-30"/>
       <use xlink:href="#DejaVuSans-2e" x="63.623047"/>
       <use xlink:href="#DejaVuSans-36" x="95.410156"/>
      </g>
     </g>
    </g>
    <g id="ytick_8">
     <g id="line2d_29">
      <path d="M 43.78125 82.093333 
L 378.58125 82.093333 
" clip-path="url(#pa9d75499de)" style="fill: none; stroke: #b0b0b0; stroke-width: 0.8; stroke-linecap: square"/>
     </g>
     <g id="line2d_30">
      <g>
       <use xlink:href="#m4fa5a56cac" x="43.78125" y="82.093333" style="stroke: #000000; stroke-width: 0.8"/>
      </g>
     </g>
     <g id="text_16">
      <!-- 0.7 -->
      <g transform="translate(20.878125 85.892552) scale(0.1 -0.1)">
       <defs>
        <path id="DejaVuSans-37" d="M 525 4666 
L 3525 4666 
L 3525 4397 
L 1831 0 
L 1172 0 
L 2766 4134 
L 525 4134 
L 525 4666 
z
" transform="scale(0.015625)"/>
       </defs>
       <use xlink:href="#DejaVuSans-30"/>
       <use xlink:href="#DejaVuSans-2e" x="63.623047"/>
       <use xlink:href="#DejaVuSans-37" x="95.410156"/>
      </g>
     </g>
    </g>
    <g id="ytick_9">
     <g id="line2d_31">
      <path d="M 43.78125 41.826667 
L 378.58125 41.826667 
" clip-path="url(#pa9d75499de)" style="fill: none; stroke: #b0b0b0; stroke-width: 0.8; stroke-linecap: square"/>
     </g>
     <g id="line2d_32">
      <g>
       <use xlink:href="#m4fa5a56cac" x="43.78125" y="41.826667" style="stroke: #000000; stroke-width: 0.8"/>
      </g>
     </g>
     <g id="text_17">
      <!-- 0.8 -->
      <g transform="translate(20.878125 45.625885) scale(0.1 -0.1)">
       <defs>
        <path id="DejaVuSans-38" d="M 2034 2216 
Q 1584 2216 1326 1975 
Q 1069 1734 1069 1313 
Q 1069 891 1326 650 
Q 1584 409 2034 409 
Q 2484 409 2743 651 
Q 3003 894 3003 1313 
Q 3003 1734 2745 1975 
Q 2488 2216 2034 2216 
z
M 1403 2484 
Q 997 2584 770 2862 
Q 544 3141 544 3541 
Q 544 4100 942 4425 
Q 1341 4750 2034 4750 
Q 2731 4750 3128 4425 
Q 3525 4100 3525 3541 
Q 3525 3141 3298 2862 
Q 3072 2584 2669 2484 
Q 3125 2378 3379 2068 
Q 3634 1759 3634 1313 
Q 3634 634 3220 271 
Q 2806 -91 2034 -91 
Q 1263 -91 848 271 
Q 434 634 434 1313 
Q 434 1759 690 2068 
Q 947 2378 1403 2484 
z
M 1172 3481 
Q 1172 3119 1398 2916 
Q 1625 2713 2034 2713 
Q 2441 2713 2670 2916 
Q 2900 3119 2900 3481 
Q 2900 3844 2670 4047 
Q 2441 4250 2034 4250 
Q 1625 4250 1398 4047 
Q 1172 3844 1172 3481 
z
" transform="scale(0.015625)"/>
       </defs>
       <use xlink:href="#DejaVuSans-30"/>
       <use xlink:href="#DejaVuSans-2e" x="63.623047"/>
       <use xlink:href="#DejaVuSans-38" x="95.410156"/>
      </g>
     </g>
    </g>
    <g id="text_18">
     <!-- $v_a$ -->
     <g transform="translate(14.798438 206.13) rotate(-90) scale(0.1 -0.1)">
      <defs>
       <path id="DejaVuSans-Oblique-76" d="M 459 3500 
L 1069 3500 
L 1581 525 
L 3256 3500 
L 3866 3500 
L 1875 0 
L 1100 0 
L 459 3500 
z
" transform="scale(0.015625)"/>
       <path id="DejaVuSans-Oblique-61" d="M 3438 1997 
L 3047 0 
L 2472 0 
L 2578 531 
Q 2325 219 2001 64 
Q 1678 -91 1281 -91 
Q 834 -91 548 182 
Q 263 456 263 884 
Q 263 1497 752 1853 
Q 1241 2209 2100 2209 
L 2900 2209 
L 2931 2363 
Q 2938 2388 2941 2417 
Q 2944 2447 2944 2509 
Q 2944 2788 2717 2942 
Q 2491 3097 2081 3097 
Q 1800 3097 1504 3025 
Q 1209 2953 897 2809 
L 997 3341 
Q 1322 3463 1633 3523 
Q 1944 3584 2234 3584 
Q 2853 3584 3176 3315 
Q 3500 3047 3500 2534 
Q 3500 2431 3484 2292 
Q 3469 2153 3438 1997 
z
M 2816 1759 
L 2241 1759 
Q 1534 1759 1195 1570 
Q 856 1381 856 984 
Q 856 709 1029 553 
Q 1203 397 1509 397 
Q 1978 397 2328 733 
Q 2678 1069 2791 1631 
L 2816 1759 
z
" transform="scale(0.015625)"/>
      </defs>
      <use xlink:href="#DejaVuSans-Oblique-76" transform="translate(0 0.3125)"/>
      <use xlink:href="#DejaVuSans-Oblique-61" transform="translate(59.179688 -16.09375) scale(0.7)"/>
     </g>
    </g>
   </g>
   <g id="line2d_33">
    <path d="M 58.999432 345.076276 
L 62.073812 310.299784 
L 65.148192 286.694977 
L 68.222572 268.8034 
L 71.296952 254.39143 
L 74.371333 242.323505 
L 77.445713 231.942731 
L 80.520093 222.834712 
L 83.594473 214.721161 
L 86.668853 207.406134 
L 89.743233 200.74644 
L 92.817614 194.634252 
L 95.891994 188.986348 
L 98.966374 183.737144 
L 102.040754 178.834043 
L 105.115134 174.234215 
L 108.189514 169.902318 
L 111.263895 165.808849 
L 114.338275 161.928926 
L 117.412655 158.241369 
L 120.487035 154.728001 
L 123.561415 151.373105 
L 126.635795 148.163 
L 129.710176 145.085703 
L 132.784556 142.130661 
L 135.858936 139.28853 
L 138.933316 136.550997 
L 142.007696 133.910637 
L 145.082076 131.360787 
L 148.156457 128.895446 
L 151.230837 126.509192 
L 154.305217 124.197108 
L 157.379597 121.954722 
L 160.453977 119.777955 
L 163.528357 117.663075 
L 166.602738 115.60666 
L 169.677118 113.605565 
L 172.751498 111.656891 
L 175.825878 109.757961 
L 178.900258 107.906299 
L 181.974638 106.099609 
L 185.049019 104.335758 
L 188.123399 102.612761 
L 191.197779 100.928769 
L 194.272159 99.282055 
L 197.346539 97.671004 
L 200.420919 96.094103 
L 203.4953 94.549936 
L 206.56968 93.037171 
L 209.64406 91.554555 
L 212.71844 90.100911 
L 215.79282 88.675128 
L 218.8672 87.276159 
L 221.941581 85.903012 
L 225.015961 84.554753 
L 228.090341 83.230495 
L 231.164721 81.929398 
L 234.239101 80.650667 
L 237.313481 79.393545 
L 240.387862 78.157313 
L 243.462242 76.94129 
L 246.536622 75.744825 
L 249.611002 74.567299 
L 252.685382 73.408121 
L 255.759762 72.266729 
L 258.834143 71.142584 
L 261.908523 70.035175 
L 264.982903 68.944008 
L 268.057283 67.868616 
L 271.131663 66.808548 
L 274.206043 65.763373 
L 277.280424 64.73268 
L 280.354804 63.716072 
L 283.429184 62.713169 
L 286.503564 61.723607 
L 289.577944 60.747035 
L 292.652324 59.783117 
L 295.726705 58.83153 
L 298.801085 57.891961 
L 301.875465 56.964111 
L 304.949845 56.047691 
L 308.024225 55.142423 
L 311.098605 54.248039 
L 314.172986 53.36428 
L 317.247366 52.490896 
L 320.321746 51.627648 
L 323.396126 50.774301 
L 326.470506 49.930633 
L 329.544886 49.096425 
L 332.619267 48.271469 
L 335.693647 47.45556 
L 338.768027 46.648502 
L 341.842407 45.850107 
L 344.916787 45.060189 
L 347.991167 44.27857 
L 351.065548 43.505079 
L 354.139928 42.739547 
L 357.214308 41.981813 
L 360.288688 41.231719 
L 363.363068 40.489113 
" clip-path="url(#pa9d75499de)" style="fill: none; stroke: #000000; stroke-width: 1.5; stroke-linecap: square"/>
   </g>
   <g id="patch_3">
    <path d="M 43.78125 363.96 
L 43.78125 37.8 
" style="fill: none; stroke: #000000; stroke-width: 0.8; stroke-linejoin: miter; stroke-linecap: square"/>
   </g>
   <g id="patch_4">
    <path d="M 378.58125 363.96 
L 378.58125 37.8 
" style="fill: none; stroke: #000000; stroke-width: 0.8; stroke-linejoin: miter; stroke-linecap: square"/>
   </g>
   <g id="patch_5">
    <path d="M 43.78125 363.96 
L 378.58125 363.96 
" style="fill: none; stroke: #000000; stroke-width: 0.8; stroke-linejoin: miter; stroke-linecap: square"/>
   </g>
   <g id="patch_6">
    <path d="M 43.78125 37.8 
L 378.58125 37.8 
" style="fill: none; stroke: #000000; stroke-width: 0.8; stroke-linejoin: miter; stroke-linecap: square"/>
   </g>
   <g id="text_19">
    <!-- The average velovity v$_a$ versus density $\rho$  -->
    <g transform="translate(86.44125 16.32) scale(0.12 -0.12)">
     <defs>
      <path id="DejaVuSans-54" d="M -19 4666 
L 3928 4666 
L 3928 4134 
L 2272 4134 
L 2272 0 
L 1638 0 
L 1638 4134 
L -19 4134 
L -19 4666 
z
" transform="scale(0.015625)"/>
      <path id="DejaVuSans-68" d="M 3513 2113 
L 3513 0 
L 2938 0 
L 2938 2094 
Q 2938 2591 2744 2837 
Q 2550 3084 2163 3084 
Q 1697 3084 1428 2787 
Q 1159 2491 1159 1978 
L 1159 0 
L 581 0 
L 581 4863 
L 1159 4863 
L 1159 2956 
Q 1366 3272 1645 3428 
Q 1925 3584 2291 3584 
Q 2894 3584 3203 3211 
Q 3513 2838 3513 2113 
z
" transform="scale(0.015625)"/>
      <path id="DejaVuSans-65" d="M 3597 1894 
L 3597 1613 
L 953 1613 
Q 991 1019 1311 708 
Q 1631 397 2203 397 
Q 2534 397 2845 478 
Q 3156 559 3463 722 
L 3463 178 
Q 3153 47 2828 -22 
Q 2503 -91 2169 -91 
Q 1331 -91 842 396 
Q 353 884 353 1716 
Q 353 2575 817 3079 
Q 1281 3584 2069 3584 
Q 2775 3584 3186 3129 
Q 3597 2675 3597 1894 
z
M 3022 2063 
Q 3016 2534 2758 2815 
Q 2500 3097 2075 3097 
Q 1594 3097 1305 2825 
Q 1016 2553 972 2059 
L 3022 2063 
z
" transform="scale(0.015625)"/>
      <path id="DejaVuSans-20" transform="scale(0.015625)"/>
      <path id="DejaVuSans-61" d="M 2194 1759 
Q 1497 1759 1228 1600 
Q 959 1441 959 1056 
Q 959 750 1161 570 
Q 1363 391 1709 391 
Q 2188 391 2477 730 
Q 2766 1069 2766 1631 
L 2766 1759 
L 2194 1759 
z
M 3341 1997 
L 3341 0 
L 2766 0 
L 2766 531 
Q 2569 213 2275 61 
Q 1981 -91 1556 -91 
Q 1019 -91 701 211 
Q 384 513 384 1019 
Q 384 1609 779 1909 
Q 1175 2209 1959 2209 
L 2766 2209 
L 2766 2266 
Q 2766 2663 2505 2880 
Q 2244 3097 1772 3097 
Q 1472 3097 1187 3025 
Q 903 2953 641 2809 
L 641 3341 
Q 956 3463 1253 3523 
Q 1550 3584 1831 3584 
Q 2591 3584 2966 3190 
Q 3341 2797 3341 1997 
z
" transform="scale(0.015625)"/>
      <path id="DejaVuSans-76" d="M 191 3500 
L 800 3500 
L 1894 563 
L 2988 3500 
L 3597 3500 
L 2284 0 
L 1503 0 
L 191 3500 
z
" transform="scale(0.015625)"/>
      <path id="DejaVuSans-72" d="M 2631 2963 
Q 2534 3019 2420 3045 
Q 2306 3072 2169 3072 
Q 1681 3072 1420 2755 
Q 1159 2438 1159 1844 
L 1159 0 
L 581 0 
L 581 3500 
L 1159 3500 
L 1159 2956 
Q 1341 3275 1631 3429 
Q 1922 3584 2338 3584 
Q 2397 3584 2469 3576 
Q 2541 3569 2628 3553 
L 2631 2963 
z
" transform="scale(0.015625)"/>
      <path id="DejaVuSans-67" d="M 2906 1791 
Q 2906 2416 2648 2759 
Q 2391 3103 1925 3103 
Q 1463 3103 1205 2759 
Q 947 2416 947 1791 
Q 947 1169 1205 825 
Q 1463 481 1925 481 
Q 2391 481 2648 825 
Q 2906 1169 2906 1791 
z
M 3481 434 
Q 3481 -459 3084 -895 
Q 2688 -1331 1869 -1331 
Q 1566 -1331 1297 -1286 
Q 1028 -1241 775 -1147 
L 775 -588 
Q 1028 -725 1275 -790 
Q 1522 -856 1778 -856 
Q 2344 -856 2625 -561 
Q 2906 -266 2906 331 
L 2906 616 
Q 2728 306 2450 153 
Q 2172 0 1784 0 
Q 1141 0 747 490 
Q 353 981 353 1791 
Q 353 2603 747 3093 
Q 1141 3584 1784 3584 
Q 2172 3584 2450 3431 
Q 2728 3278 2906 2969 
L 2906 3500 
L 3481 3500 
L 3481 434 
z
" transform="scale(0.015625)"/>
      <path id="DejaVuSans-6c" d="M 603 4863 
L 1178 4863 
L 1178 0 
L 603 0 
L 603 4863 
z
" transform="scale(0.015625)"/>
      <path id="DejaVuSans-6f" d="M 1959 3097 
Q 1497 3097 1228 2736 
Q 959 2375 959 1747 
Q 959 1119 1226 758 
Q 1494 397 1959 397 
Q 2419 397 2687 759 
Q 2956 1122 2956 1747 
Q 2956 2369 2687 2733 
Q 2419 3097 1959 3097 
z
M 1959 3584 
Q 2709 3584 3137 3096 
Q 3566 2609 3566 1747 
Q 3566 888 3137 398 
Q 2709 -91 1959 -91 
Q 1206 -91 779 398 
Q 353 888 353 1747 
Q 353 2609 779 3096 
Q 1206 3584 1959 3584 
z
" transform="scale(0.015625)"/>
      <path id="DejaVuSans-69" d="M 603 3500 
L 1178 3500 
L 1178 0 
L 603 0 
L 603 3500 
z
M 603 4863 
L 1178 4863 
L 1178 4134 
L 603 4134 
L 603 4863 
z
" transform="scale(0.015625)"/>
      <path id="DejaVuSans-74" d="M 1172 4494 
L 1172 3500 
L 2356 3500 
L 2356 3053 
L 1172 3053 
L 1172 1153 
Q 1172 725 1289 603 
Q 1406 481 1766 481 
L 2356 481 
L 2356 0 
L 1766 0 
Q 1100 0 847 248 
Q 594 497 594 1153 
L 594 3053 
L 172 3053 
L 172 3500 
L 594 3500 
L 594 4494 
L 1172 4494 
z
" transform="scale(0.015625)"/>
      <path id="DejaVuSans-79" d="M 2059 -325 
Q 1816 -950 1584 -1140 
Q 1353 -1331 966 -1331 
L 506 -1331 
L 506 -850 
L 844 -850 
Q 1081 -850 1212 -737 
Q 1344 -625 1503 -206 
L 1606 56 
L 191 3500 
L 800 3500 
L 1894 763 
L 2988 3500 
L 3597 3500 
L 2059 -325 
z
" transform="scale(0.015625)"/>
      <path id="DejaVuSans-73" d="M 2834 3397 
L 2834 2853 
Q 2591 2978 2328 3040 
Q 2066 3103 1784 3103 
Q 1356 3103 1142 2972 
Q 928 2841 928 2578 
Q 928 2378 1081 2264 
Q 1234 2150 1697 2047 
L 1894 2003 
Q 2506 1872 2764 1633 
Q 3022 1394 3022 966 
Q 3022 478 2636 193 
Q 2250 -91 1575 -91 
Q 1294 -91 989 -36 
Q 684 19 347 128 
L 347 722 
Q 666 556 975 473 
Q 1284 391 1588 391 
Q 1994 391 2212 530 
Q 2431 669 2431 922 
Q 2431 1156 2273 1281 
Q 2116 1406 1581 1522 
L 1381 1569 
Q 847 1681 609 1914 
Q 372 2147 372 2553 
Q 372 3047 722 3315 
Q 1072 3584 1716 3584 
Q 2034 3584 2315 3537 
Q 2597 3491 2834 3397 
z
" transform="scale(0.015625)"/>
      <path id="DejaVuSans-75" d="M 544 1381 
L 544 3500 
L 1119 3500 
L 1119 1403 
Q 1119 906 1312 657 
Q 1506 409 1894 409 
Q 2359 409 2629 706 
Q 2900 1003 2900 1516 
L 2900 3500 
L 3475 3500 
L 3475 0 
L 2900 0 
L 2900 538 
Q 2691 219 2414 64 
Q 2138 -91 1772 -91 
Q 1169 -91 856 284 
Q 544 659 544 1381 
z
M 1991 3584 
L 1991 3584 
z
" transform="scale(0.015625)"/>
      <path id="DejaVuSans-64" d="M 2906 2969 
L 2906 4863 
L 3481 4863 
L 3481 0 
L 2906 0 
L 2906 525 
Q 2725 213 2448 61 
Q 2172 -91 1784 -91 
Q 1150 -91 751 415 
Q 353 922 353 1747 
Q 353 2572 751 3078 
Q 1150 3584 1784 3584 
Q 2172 3584 2448 3432 
Q 2725 3281 2906 2969 
z
M 947 1747 
Q 947 1113 1208 752 
Q 1469 391 1925 391 
Q 2381 391 2643 752 
Q 2906 1113 2906 1747 
Q 2906 2381 2643 2742 
Q 2381 3103 1925 3103 
Q 1469 3103 1208 2742 
Q 947 2381 947 1747 
z
" transform="scale(0.015625)"/>
      <path id="DejaVuSans-6e" d="M 3513 2113 
L 3513 0 
L 2938 0 
L 2938 2094 
Q 2938 2591 2744 2837 
Q 2550 3084 2163 3084 
Q 1697 3084 1428 2787 
Q 1159 2491 1159 1978 
L 1159 0 
L 581 0 
L 581 3500 
L 1159 3500 
L 1159 2956 
Q 1366 3272 1645 3428 
Q 1925 3584 2291 3584 
Q 2894 3584 3203 3211 
Q 3513 2838 3513 2113 
z
" transform="scale(0.015625)"/>
     </defs>
     <use xlink:href="#DejaVuSans-54" transform="translate(0 0.015625)"/>
     <use xlink:href="#DejaVuSans-68" transform="translate(61.083984 0.015625)"/>
     <use xlink:href="#DejaVuSans-65" transform="translate(124.462891 0.015625)"/>
     <use xlink:href="#DejaVuSans-20" transform="translate(185.986328 0.015625)"/>
     <use xlink:href="#DejaVuSans-61" transform="translate(217.773438 0.015625)"/>
     <use xlink:href="#DejaVuSans-76" transform="translate(279.052734 0.015625)"/>
     <use xlink:href="#DejaVuSans-65" transform="translate(338.232422 0.015625)"/>
     <use xlink:href="#DejaVuSans-72" transform="translate(399.755859 0.015625)"/>
     <use xlink:href="#DejaVuSans-61" transform="translate(440.869141 0.015625)"/>
     <use xlink:href="#DejaVuSans-67" transform="translate(502.148438 0.015625)"/>
     <use xlink:href="#DejaVuSans-65" transform="translate(565.625 0.015625)"/>
     <use xlink:href="#DejaVuSans-20" transform="translate(627.148438 0.015625)"/>
     <use xlink:href="#DejaVuSans-76" transform="translate(658.935547 0.015625)"/>
     <use xlink:href="#DejaVuSans-65" transform="translate(718.115234 0.015625)"/>
     <use xlink:href="#DejaVuSans-6c" transform="translate(779.638672 0.015625)"/>
     <use xlink:href="#DejaVuSans-6f" transform="translate(807.421875 0.015625)"/>
     <use xlink:href="#DejaVuSans-76" transform="translate(868.603516 0.015625)"/>
     <use xlink:href="#DejaVuSans-69" transform="translate(927.783203 0.015625)"/>
     <use xlink:href="#DejaVuSans-74" transform="translate(955.566406 0.015625)"/>
     <use xlink:href="#DejaVuSans-79" transform="translate(994.775391 0.015625)"/>
     <use xlink:href="#DejaVuSans-20" transform="translate(1053.955078 0.015625)"/>
     <use xlink:href="#DejaVuSans-76" transform="translate(1085.742188 0.015625)"/>
     <use xlink:href="#DejaVuSans-Oblique-61" transform="translate(1145.878906 -16.390625) scale(0.7)"/>
     <use xlink:href="#DejaVuSans-20" transform="translate(1191.508789 0.015625)"/>
     <use xlink:href="#DejaVuSans-76" transform="translate(1223.295898 0.015625)"/>
     <use xlink:href="#DejaVuSans-65" transform="translate(1282.475586 0.015625)"/>
     <use xlink:href="#DejaVuSans-72" transform="translate(1343.999023 0.015625)"/>
     <use xlink:href="#DejaVuSans-73" transform="translate(1385.112305 0.015625)"/>
     <use xlink:href="#DejaVuSans-75" transform="translate(1437.211914 0.015625)"/>
     <use xlink:href="#DejaVuSans-73" transform="translate(1500.59082 0.015625)"/>
     <use xlink:href="#DejaVuSans-20" transform="translate(1552.69043 0.015625)"/>
     <use xlink:href="#DejaVuSans-64" transform="translate(1584.477539 0.015625)"/>
     <use xlink:href="#DejaVuSans-65" transform="translate(1647.954102 0.015625)"/>
     <use xlink:href="#DejaVuSans-6e" transform="translate(1709.477539 0.015625)"/>
     <use xlink:href="#DejaVuSans-73" transform="translate(1772.856445 0.015625)"/>
     <use xlink:href="#DejaVuSans-69" transform="translate(1824.956055 0.015625)"/>
     <use xlink:href="#DejaVuSans-74" transform="translate(1852.739258 0.015625)"/>
     <use xlink:href="#DejaVuSans-79" transform="translate(1891.948242 0.015625)"/>
     <use xlink:href="#DejaVuSans-20" transform="translate(1951.12793 0.015625)"/>
     <use xlink:href="#DejaVuSans-Oblique-3c1" transform="translate(1982.915039 0.015625)"/>
     <use xlink:href="#DejaVuSans-20" transform="translate(2046.391602 0.015625)"/>
    </g>
    <!--  for constant L=20 and $\eta$=2.0 after $10^5$ steps. -->
    <g transform="translate(73.06125 31.8) scale(0.12 -0.12)">
     <defs>
      <path id="DejaVuSans-66" d="M 2375 4863 
L 2375 4384 
L 1825 4384 
Q 1516 4384 1395 4259 
Q 1275 4134 1275 3809 
L 1275 3500 
L 2222 3500 
L 2222 3053 
L 1275 3053 
L 1275 0 
L 697 0 
L 697 3053 
L 147 3053 
L 147 3500 
L 697 3500 
L 697 3744 
Q 697 4328 969 4595 
Q 1241 4863 1831 4863 
L 2375 4863 
z
" transform="scale(0.015625)"/>
      <path id="DejaVuSans-63" d="M 3122 3366 
L 3122 2828 
Q 2878 2963 2633 3030 
Q 2388 3097 2138 3097 
Q 1578 3097 1268 2742 
Q 959 2388 959 1747 
Q 959 1106 1268 751 
Q 1578 397 2138 397 
Q 2388 397 2633 464 
Q 2878 531 3122 666 
L 3122 134 
Q 2881 22 2623 -34 
Q 2366 -91 2075 -91 
Q 1284 -91 818 406 
Q 353 903 353 1747 
Q 353 2603 823 3093 
Q 1294 3584 2113 3584 
Q 2378 3584 2631 3529 
Q 2884 3475 3122 3366 
z
" transform="scale(0.015625)"/>
      <path id="DejaVuSans-4c" d="M 628 4666 
L 1259 4666 
L 1259 531 
L 3531 531 
L 3531 0 
L 628 0 
L 628 4666 
z
" transform="scale(0.015625)"/>
      <path id="DejaVuSans-3d" d="M 678 2906 
L 4684 2906 
L 4684 2381 
L 678 2381 
L 678 2906 
z
M 678 1631 
L 4684 1631 
L 4684 1100 
L 678 1100 
L 678 1631 
z
" transform="scale(0.015625)"/>
      <path id="DejaVuSans-Oblique-3b7" d="M 3703 2113 
L 3034 -1331 
L 2459 -1331 
L 3125 2094 
Q 3222 2591 3075 2838 
Q 2931 3084 2544 3084 
Q 2078 3084 1750 2788 
Q 1425 2491 1325 1978 
L 941 0 
L 363 0 
L 1044 3500 
L 1622 3500 
L 1516 2956 
Q 1781 3272 2094 3428 
Q 2403 3584 2769 3584 
Q 3372 3584 3609 3213 
Q 3844 2838 3703 2113 
z
" transform="scale(0.015625)"/>
      <path id="DejaVuSans-70" d="M 1159 525 
L 1159 -1331 
L 581 -1331 
L 581 3500 
L 1159 3500 
L 1159 2969 
Q 1341 3281 1617 3432 
Q 1894 3584 2278 3584 
Q 2916 3584 3314 3078 
Q 3713 2572 3713 1747 
Q 3713 922 3314 415 
Q 2916 -91 2278 -91 
Q 1894 -91 1617 61 
Q 1341 213 1159 525 
z
M 3116 1747 
Q 3116 2381 2855 2742 
Q 2594 3103 2138 3103 
Q 1681 3103 1420 2742 
Q 1159 2381 1159 1747 
Q 1159 1113 1420 752 
Q 1681 391 2138 391 
Q 2594 391 2855 752 
Q 3116 1113 3116 1747 
z
" transform="scale(0.015625)"/>
     </defs>
     <use xlink:href="#DejaVuSans-20" transform="translate(0 0.684375)"/>
     <use xlink:href="#DejaVuSans-66" transform="translate(31.787109 0.684375)"/>
     <use xlink:href="#DejaVuSans-6f" transform="translate(66.992188 0.684375)"/>
     <use xlink:href="#DejaVuSans-72" transform="translate(128.173828 0.684375)"/>
     <use xlink:href="#DejaVuSans-20" transform="translate(169.287109 0.684375)"/>
     <use xlink:href="#DejaVuSans-63" transform="translate(201.074219 0.684375)"/>
     <use xlink:href="#DejaVuSans-6f" transform="translate(256.054688 0.684375)"/>
     <use xlink:href="#DejaVuSans-6e" transform="translate(317.236328 0.684375)"/>
     <use xlink:href="#DejaVuSans-73" transform="translate(380.615234 0.684375)"/>
     <use xlink:href="#DejaVuSans-74" transform="translate(432.714844 0.684375)"/>
     <use xlink:href="#DejaVuSans-61" transform="translate(471.923828 0.684375)"/>
     <use xlink:href="#DejaVuSans-6e" transform="translate(533.203125 0.684375)"/>
     <use xlink:href="#DejaVuSans-74" transform="translate(596.582031 0.684375)"/>
     <use xlink:href="#DejaVuSans-20" transform="translate(635.791016 0.684375)"/>
     <use xlink:href="#DejaVuSans-4c" transform="translate(667.578125 0.684375)"/>
     <use xlink:href="#DejaVuSans-3d" transform="translate(723.291016 0.684375)"/>
     <use xlink:href="#DejaVuSans-32" transform="translate(807.080078 0.684375)"/>
     <use xlink:href="#DejaVuSans-30" transform="translate(870.703125 0.684375)"/>
     <use xlink:href="#DejaVuSans-20" transform="translate(934.326172 0.684375)"/>
     <use xlink:href="#DejaVuSans-61" transform="translate(966.113281 0.684375)"/>
     <use xlink:href="#DejaVuSans-6e" transform="translate(1027.392578 0.684375)"/>
     <use xlink:href="#DejaVuSans-64" transform="translate(1090.771484 0.684375)"/>
     <use xlink:href="#DejaVuSans-20" transform="translate(1154.248047 0.684375)"/>
     <use xlink:href="#DejaVuSans-Oblique-3b7" transform="translate(1186.035156 0.684375)"/>
     <use xlink:href="#DejaVuSans-3d" transform="translate(1249.414062 0.684375)"/>
     <use xlink:href="#DejaVuSans-32" transform="translate(1333.203125 0.684375)"/>
     <use xlink:href="#DejaVuSans-2e" transform="translate(1396.826172 0.684375)"/>
     <use xlink:href="#DejaVuSans-30" transform="translate(1428.613281 0.684375)"/>
     <use xlink:href="#DejaVuSans-20" transform="translate(1492.236328 0.684375)"/>
     <use xlink:href="#DejaVuSans-61" transform="translate(1524.023438 0.684375)"/>
     <use xlink:href="#DejaVuSans-66" transform="translate(1585.302734 0.684375)"/>
     <use xlink:href="#DejaVuSans-74" transform="translate(1620.507812 0.684375)"/>
     <use xlink:href="#DejaVuSans-65" transform="translate(1659.716797 0.684375)"/>
     <use xlink:href="#DejaVuSans-72" transform="translate(1721.240234 0.684375)"/>
     <use xlink:href="#DejaVuSans-20" transform="translate(1762.353516 0.684375)"/>
     <use xlink:href="#DejaVuSans-31" transform="translate(1794.140625 0.684375)"/>
     <use xlink:href="#DejaVuSans-30" transform="translate(1857.763672 0.684375)"/>
     <use xlink:href="#DejaVuSans-35" transform="translate(1922.34375 38.965625) scale(0.7)"/>
     <use xlink:href="#DejaVuSans-20" transform="translate(1969.614258 0.684375)"/>
     <use xlink:href="#DejaVuSans-73" transform="translate(2001.401367 0.684375)"/>
     <use xlink:href="#DejaVuSans-74" transform="translate(2053.500977 0.684375)"/>
     <use xlink:href="#DejaVuSans-65" transform="translate(2092.709961 0.684375)"/>
     <use xlink:href="#DejaVuSans-70" transform="translate(2154.233398 0.684375)"/>
     <use xlink:href="#DejaVuSans-73" transform="translate(2217.709961 0.684375)"/>
     <use xlink:href="#DejaVuSans-2e" transform="translate(2269.80957 0.684375)"/>
    </g>
   </g>
   <g id="legend_1">
    <g id="patch_7">
     <path d="M 50.78125 60.478125 
L 240.757812 60.478125 
Q 242.757812 60.478125 242.757812 58.478125 
L 242.757812 44.8 
Q 242.757812 42.8 240.757812 42.8 
L 50.78125 42.8 
Q 48.78125 42.8 48.78125 44.8 
L 48.78125 58.478125 
Q 48.78125 60.478125 50.78125 60.478125 
z
" style="fill: #ffffff; opacity: 0.8; stroke: #cccccc; stroke-linejoin: miter"/>
    </g>
    <g id="line2d_34">
     <path d="M 52.78125 50.898437 
L 62.78125 50.898437 
L 72.78125 50.898437 
" style="fill: none; stroke: #000000; stroke-width: 1.5; stroke-linecap: square"/>
    </g>
    <g id="text_20">
     <!-- Log Fit: y = 0.472 + 0.185 ln(x) -->
     <g transform="translate(80.78125 54.398437) scale(0.1 -0.1)">
      <defs>
       <path id="DejaVuSans-46" d="M 628 4666 
L 3309 4666 
L 3309 4134 
L 1259 4134 
L 1259 2759 
L 3109 2759 
L 3109 2228 
L 1259 2228 
L 1259 0 
L 628 0 
L 628 4666 
z
" transform="scale(0.015625)"/>
       <path id="DejaVuSans-3a" d="M 750 794 
L 1409 794 
L 1409 0 
L 750 0 
L 750 794 
z
M 750 3309 
L 1409 3309 
L 1409 2516 
L 750 2516 
L 750 3309 
z
" transform="scale(0.015625)"/>
       <path id="DejaVuSans-2b" d="M 2944 4013 
L 2944 2272 
L 4684 2272 
L 4684 1741 
L 2944 1741 
L 2944 0 
L 2419 0 
L 2419 1741 
L 678 1741 
L 678 2272 
L 2419 2272 
L 2419 4013 
L 2944 4013 
z
" transform="scale(0.015625)"/>
       <path id="DejaVuSans-28" d="M 1984 4856 
Q 1566 4138 1362 3434 
Q 1159 2731 1159 2009 
Q 1159 1288 1364 580 
Q 1569 -128 1984 -844 
L 1484 -844 
Q 1016 -109 783 600 
Q 550 1309 550 2009 
Q 550 2706 781 3412 
Q 1013 4119 1484 4856 
L 1984 4856 
z
" transform="scale(0.015625)"/>
       <path id="DejaVuSans-78" d="M 3513 3500 
L 2247 1797 
L 3578 0 
L 2900 0 
L 1881 1375 
L 863 0 
L 184 0 
L 1544 1831 
L 300 3500 
L 978 3500 
L 1906 2253 
L 2834 3500 
L 3513 3500 
z
" transform="scale(0.015625)"/>
       <path id="DejaVuSans-29" d="M 513 4856 
L 1013 4856 
Q 1481 4119 1714 3412 
Q 1947 2706 1947 2009 
Q 1947 1309 1714 600 
Q 1481 -109 1013 -844 
L 513 -844 
Q 928 -128 1133 580 
Q 1338 1288 1338 2009 
Q 1338 2731 1133 3434 
Q 928 4138 513 4856 
z
" transform="scale(0.015625)"/>
      </defs>
      <use xlink:href="#DejaVuSans-4c"/>
      <use xlink:href="#DejaVuSans-6f" x="53.962891"/>
      <use xlink:href="#DejaVuSans-67" x="115.144531"/>
      <use xlink:href="#DejaVuSans-20" x="178.621094"/>
      <use xlink:href="#DejaVuSans-46" x="210.408203"/>
      <use xlink:href="#DejaVuSans-69" x="260.677734"/>
      <use xlink:href="#DejaVuSans-74" x="288.460938"/>
      <use xlink:href="#DejaVuSans-3a" x="327.669922"/>
      <use xlink:href="#DejaVuSans-20" x="361.361328"/>
      <use xlink:href="#DejaVuSans-79" x="393.148438"/>
      <use xlink:href="#DejaVuSans-20" x="452.328125"/>
      <use xlink:href="#DejaVuSans-3d" x="484.115234"/>
      <use xlink:href="#DejaVuSans-20" x="567.904297"/>
      <use xlink:href="#DejaVuSans-30" x="599.691406"/>
      <use xlink:href="#DejaVuSans-2e" x="663.314453"/>
      <use xlink:href="#DejaVuSans-34" x="695.101562"/>
      <use xlink:href="#DejaVuSans-37" x="758.724609"/>
      <use xlink:href="#DejaVuSans-32" x="822.347656"/>
      <use xlink:href="#DejaVuSans-20" x="885.970703"/>
      <use xlink:href="#DejaVuSans-2b" x="917.757812"/>
      <use xlink:href="#DejaVuSans-20" x="1001.546875"/>
      <use xlink:href="#DejaVuSans-30" x="1033.333984"/>
      <use xlink:href="#DejaVuSans-2e" x="1096.957031"/>
      <use xlink:href="#DejaVuSans-31" x="1128.744141"/>
      <use xlink:href="#DejaVuSans-38" x="1192.367188"/>
      <use xlink:href="#DejaVuSans-35" x="1255.990234"/>
      <use xlink:href="#DejaVuSans-20" x="1319.613281"/>
      <use xlink:href="#DejaVuSans-6c" x="1351.400391"/>
      <use xlink:href="#DejaVuSans-6e" x="1379.183594"/>
      <use xlink:href="#DejaVuSans-28" x="1442.5625"/>
      <use xlink:href="#DejaVuSans-78" x="1481.576172"/>
      <use xlink:href="#DejaVuSans-29" x="1540.755859"/>
     </g>
    </g>
   </g>
  </g>
 </g>
 <defs>
  <clipPath id="pa9d75499de">
   <rect x="43.78125" y="37.8" width="334.8" height="326.16"/>
  </clipPath>
 </defs>
</svg>
