<?xml version="1.0" encoding="utf-8" standalone="no"?>
<!DOCTYPE svg PUBLIC "-//W3C//DTD SVG 1.1//EN"
  "http://www.w3.org/Graphics/SVG/1.1/DTD/svg11.dtd">
<svg xmlns:xlink="http://www.w3.org/1999/xlink" width="422.81875pt" height="411.098125pt" viewBox="0 0 422.81875 411.098125" xmlns="http://www.w3.org/2000/svg" version="1.1">
 <metadata>
  <rdf:RDF xmlns:dc="http://purl.org/dc/elements/1.1/" xmlns:cc="http://creativecommons.org/ns#" xmlns:rdf="http://www.w3.org/1999/02/22-rdf-syntax-ns#">
   <cc:Work>
    <dc:type rdf:resource="http://purl.org/dc/dcmitype/StillImage"/>
    <dc:date>2025-02-02T20:13:10.913237</dc:date>
    <dc:format>image/svg+xml</dc:format>
    <dc:creator>
     <cc:Agent>
      <dc:title>Matplotlib v3.7.2, https://matplotlib.org/</dc:title>
     </cc:Agent>
    </dc:creator>
   </cc:Work>
  </rdf:RDF>
 </metadata>
 <defs>
  <style type="text/css">*{stroke-linejoin: round; stroke-linecap: butt}</style>
 </defs>
 <g id="figure_1">
  <g id="patch_1">
   <path d="M 0 411.098125 
L 422.81875 411.098125 
L 422.81875 0 
L 0 0 
L 0 411.098125 
z
" style="fill: none"/>
  </g>
  <g id="axes_1">
   <g id="patch_2">
    <path d="M 50.14375 373.52 
L 415.61875 373.52 
L 415.61875 37.8 
L 50.14375 37.8 
z
" style="fill: #ffffff"/>
   </g>
   <g id="matplotlib.axis_1">
    <g id="xtick_1">
     <g id="line2d_1">
      <path d="M 60.950149 373.52 
L 60.950149 37.8 
" clip-path="url(#p70fef61219)" style="fill: none; stroke: #b0b0b0; stroke-width: 0.8; stroke-linecap: square"/>
     </g>
     <g id="line2d_2">
      <defs>
       <path id="mc45b53d190" d="M 0 0 
L 0 3.5 
" style="stroke: #000000; stroke-width: 0.8"/>
      </defs>
      <g>
       <use xlink:href="#mc45b53d190" x="60.950149" y="373.52" style="stroke: #000000; stroke-width: 0.8"/>
      </g>
     </g>
     <g id="text_1">
      <!-- 0.10 -->
      <g transform="translate(49.817336 388.118437) scale(0.1 -0.1)">
       <defs>
        <path id="DejaVuSans-30" d="M 2034 4250 
Q 1547 4250 1301 3770 
Q 1056 3291 1056 2328 
Q 1056 1369 1301 889 
Q 1547 409 2034 409 
Q 2525 409 2770 889 
Q 3016 1369 3016 2328 
Q 3016 3291 2770 3770 
Q 2525 4250 2034 4250 
z
M 2034 4750 
Q 2819 4750 3233 4129 
Q 3647 3509 3647 2328 
Q 3647 1150 3233 529 
Q 2819 -91 2034 -91 
Q 1250 -91 836 529 
Q 422 1150 422 2328 
Q 422 3509 836 4129 
Q 1250 4750 2034 4750 
z
" transform="scale(0.015625)"/>
        <path id="DejaVuSans-2e" d="M 684 794 
L 1344 794 
L 1344 0 
L 684 0 
L 684 794 
z
" transform="scale(0.015625)"/>
        <path id="DejaVuSans-31" d="M 794 531 
L 1825 531 
L 1825 4091 
L 703 3866 
L 703 4441 
L 1819 4666 
L 2450 4666 
L 2450 531 
L 3481 531 
L 3481 0 
L 794 0 
L 794 531 
z
" transform="scale(0.015625)"/>
       </defs>
       <use xlink:href="#DejaVuSans-30"/>
       <use xlink:href="#DejaVuSans-2e" x="63.623047"/>
       <use xlink:href="#DejaVuSans-31" x="95.410156"/>
       <use xlink:href="#DejaVuSans-30" x="159.033203"/>
      </g>
     </g>
    </g>
    <g id="xtick_2">
     <g id="line2d_3">
      <path d="M 117.32961 373.52 
L 117.32961 37.8 
" clip-path="url(#p70fef61219)" style="fill: none; stroke: #b0b0b0; stroke-width: 0.8; stroke-linecap: square"/>
     </g>
     <g id="line2d_4">
      <g>
       <use xlink:href="#mc45b53d190" x="117.32961" y="373.52" style="stroke: #000000; stroke-width: 0.8"/>
      </g>
     </g>
     <g id="text_2">
      <!-- 0.20 -->
      <g transform="translate(106.196797 388.118437) scale(0.1 -0.1)">
       <defs>
        <path id="DejaVuSans-32" d="M 1228 531 
L 3431 531 
L 3431 0 
L 469 0 
L 469 531 
Q 828 903 1448 1529 
Q 2069 2156 2228 2338 
Q 2531 2678 2651 2914 
Q 2772 3150 2772 3378 
Q 2772 3750 2511 3984 
Q 2250 4219 1831 4219 
Q 1534 4219 1204 4116 
Q 875 4013 500 3803 
L 500 4441 
Q 881 4594 1212 4672 
Q 1544 4750 1819 4750 
Q 2544 4750 2975 4387 
Q 3406 4025 3406 3419 
Q 3406 3131 3298 2873 
Q 3191 2616 2906 2266 
Q 2828 2175 2409 1742 
Q 1991 1309 1228 531 
z
" transform="scale(0.015625)"/>
       </defs>
       <use xlink:href="#DejaVuSans-30"/>
       <use xlink:href="#DejaVuSans-2e" x="63.623047"/>
       <use xlink:href="#DejaVuSans-32" x="95.410156"/>
       <use xlink:href="#DejaVuSans-30" x="159.033203"/>
      </g>
     </g>
    </g>
    <g id="xtick_3">
     <g id="line2d_5">
      <path d="M 150.30948 373.52 
L 150.30948 37.8 
" clip-path="url(#p70fef61219)" style="fill: none; stroke: #b0b0b0; stroke-width: 0.8; stroke-linecap: square"/>
     </g>
     <g id="line2d_6">
      <g>
       <use xlink:href="#mc45b53d190" x="150.30948" y="373.52" style="stroke: #000000; stroke-width: 0.8"/>
      </g>
     </g>
     <g id="text_3">
      <!-- 0.30 -->
      <g transform="translate(139.176667 388.118437) scale(0.1 -0.1)">
       <defs>
        <path id="DejaVuSans-33" d="M 2597 2516 
Q 3050 2419 3304 2112 
Q 3559 1806 3559 1356 
Q 3559 666 3084 287 
Q 2609 -91 1734 -91 
Q 1441 -91 1130 -33 
Q 819 25 488 141 
L 488 750 
Q 750 597 1062 519 
Q 1375 441 1716 441 
Q 2309 441 2620 675 
Q 2931 909 2931 1356 
Q 2931 1769 2642 2001 
Q 2353 2234 1838 2234 
L 1294 2234 
L 1294 2753 
L 1863 2753 
Q 2328 2753 2575 2939 
Q 2822 3125 2822 3475 
Q 2822 3834 2567 4026 
Q 2313 4219 1838 4219 
Q 1578 4219 1281 4162 
Q 984 4106 628 3988 
L 628 4550 
Q 988 4650 1302 4700 
Q 1616 4750 1894 4750 
Q 2613 4750 3031 4423 
Q 3450 4097 3450 3541 
Q 3450 3153 3228 2886 
Q 3006 2619 2597 2516 
z
" transform="scale(0.015625)"/>
       </defs>
       <use xlink:href="#DejaVuSans-30"/>
       <use xlink:href="#DejaVuSans-2e" x="63.623047"/>
       <use xlink:href="#DejaVuSans-33" x="95.410156"/>
       <use xlink:href="#DejaVuSans-30" x="159.033203"/>
      </g>
     </g>
    </g>
    <g id="xtick_4">
     <g id="line2d_7">
      <path d="M 248.238663 373.52 
L 248.238663 37.8 
" clip-path="url(#p70fef61219)" style="fill: none; stroke: #b0b0b0; stroke-width: 0.8; stroke-linecap: square"/>
     </g>
     <g id="line2d_8">
      <g>
       <use xlink:href="#mc45b53d190" x="248.238663" y="373.52" style="stroke: #000000; stroke-width: 0.8"/>
      </g>
     </g>
     <g id="text_4">
      <!-- 1.00 -->
      <g transform="translate(237.105851 388.118437) scale(0.1 -0.1)">
       <use xlink:href="#DejaVuSans-31"/>
       <use xlink:href="#DejaVuSans-2e" x="63.623047"/>
       <use xlink:href="#DejaVuSans-30" x="95.410156"/>
       <use xlink:href="#DejaVuSans-30" x="159.033203"/>
      </g>
     </g>
    </g>
    <g id="xtick_5">
     <g id="line2d_9">
      <path d="M 304.618124 373.52 
L 304.618124 37.8 
" clip-path="url(#p70fef61219)" style="fill: none; stroke: #b0b0b0; stroke-width: 0.8; stroke-linecap: square"/>
     </g>
     <g id="line2d_10">
      <g>
       <use xlink:href="#mc45b53d190" x="304.618124" y="373.52" style="stroke: #000000; stroke-width: 0.8"/>
      </g>
     </g>
     <g id="text_5">
      <!-- 2.00 -->
      <g transform="translate(293.485311 388.118437) scale(0.1 -0.1)">
       <use xlink:href="#DejaVuSans-32"/>
       <use xlink:href="#DejaVuSans-2e" x="63.623047"/>
       <use xlink:href="#DejaVuSans-30" x="95.410156"/>
       <use xlink:href="#DejaVuSans-30" x="159.033203"/>
      </g>
     </g>
    </g>
    <g id="xtick_6">
     <g id="line2d_11">
      <path d="M 337.597994 373.52 
L 337.597994 37.8 
" clip-path="url(#p70fef61219)" style="fill: none; stroke: #b0b0b0; stroke-width: 0.8; stroke-linecap: square"/>
     </g>
     <g id="line2d_12">
      <g>
       <use xlink:href="#mc45b53d190" x="337.597994" y="373.52" style="stroke: #000000; stroke-width: 0.8"/>
      </g>
     </g>
     <g id="text_6">
      <!-- 3.00 -->
      <g transform="translate(326.465181 388.118437) scale(0.1 -0.1)">
       <use xlink:href="#DejaVuSans-33"/>
       <use xlink:href="#DejaVuSans-2e" x="63.623047"/>
       <use xlink:href="#DejaVuSans-30" x="95.410156"/>
       <use xlink:href="#DejaVuSans-30" x="159.033203"/>
      </g>
     </g>
    </g>
    <g id="xtick_7">
     <g id="line2d_13">
      <defs>
       <path id="mcf7952ac36" d="M 0 0 
L 0 2 
" style="stroke: #000000; stroke-width: 0.6"/>
      </defs>
      <g>
       <use xlink:href="#mcf7952ac36" x="52.380297" y="373.52" style="stroke: #000000; stroke-width: 0.6"/>
      </g>
     </g>
    </g>
    <g id="xtick_8">
     <g id="line2d_14">
      <g>
       <use xlink:href="#mcf7952ac36" x="173.70907" y="373.52" style="stroke: #000000; stroke-width: 0.6"/>
      </g>
     </g>
    </g>
    <g id="xtick_9">
     <g id="line2d_15">
      <g>
       <use xlink:href="#mcf7952ac36" x="191.859203" y="373.52" style="stroke: #000000; stroke-width: 0.6"/>
      </g>
     </g>
    </g>
    <g id="xtick_10">
     <g id="line2d_16">
      <g>
       <use xlink:href="#mcf7952ac36" x="206.68894" y="373.52" style="stroke: #000000; stroke-width: 0.6"/>
      </g>
     </g>
    </g>
    <g id="xtick_11">
     <g id="line2d_17">
      <g>
       <use xlink:href="#mcf7952ac36" x="219.227305" y="373.52" style="stroke: #000000; stroke-width: 0.6"/>
      </g>
     </g>
    </g>
    <g id="xtick_12">
     <g id="line2d_18">
      <g>
       <use xlink:href="#mcf7952ac36" x="230.088531" y="373.52" style="stroke: #000000; stroke-width: 0.6"/>
      </g>
     </g>
    </g>
    <g id="xtick_13">
     <g id="line2d_19">
      <g>
       <use xlink:href="#mcf7952ac36" x="239.668811" y="373.52" style="stroke: #000000; stroke-width: 0.6"/>
      </g>
     </g>
    </g>
    <g id="xtick_14">
     <g id="line2d_20">
      <g>
       <use xlink:href="#mcf7952ac36" x="360.997584" y="373.52" style="stroke: #000000; stroke-width: 0.6"/>
      </g>
     </g>
    </g>
    <g id="xtick_15">
     <g id="line2d_21">
      <g>
       <use xlink:href="#mcf7952ac36" x="379.147717" y="373.52" style="stroke: #000000; stroke-width: 0.6"/>
      </g>
     </g>
    </g>
    <g id="xtick_16">
     <g id="line2d_22">
      <g>
       <use xlink:href="#mcf7952ac36" x="393.977455" y="373.52" style="stroke: #000000; stroke-width: 0.6"/>
      </g>
     </g>
    </g>
    <g id="xtick_17">
     <g id="line2d_23">
      <g>
       <use xlink:href="#mcf7952ac36" x="406.515819" y="373.52" style="stroke: #000000; stroke-width: 0.6"/>
      </g>
     </g>
    </g>
    <g id="text_7">
     <!-- $(\rho - \rho_c(L))/\rho_c(L)$ -->
     <g transform="translate(194.13125 401.798125) scale(0.1 -0.1)">
      <defs>
       <path id="DejaVuSans-28" d="M 1984 4856 
Q 1566 4138 1362 3434 
Q 1159 2731 1159 2009 
Q 1159 1288 1364 580 
Q 1569 -128 1984 -844 
L 1484 -844 
Q 1016 -109 783 600 
Q 550 1309 550 2009 
Q 550 2706 781 3412 
Q 1013 4119 1484 4856 
L 1984 4856 
z
" transform="scale(0.015625)"/>
       <path id="DejaVuSans-Oblique-3c1" d="M 1203 2875 
Q 1453 3194 1981 3475 
Q 2188 3584 2756 3584 
Q 3394 3584 3694 3078 
Q 3994 2572 3834 1747 
Q 3672 922 3175 415 
Q 2678 -91 2041 -91 
Q 1656 -91 1409 63 
Q 1163 213 1044 525 
L 681 -1331 
L 103 -1331 
L 697 1716 
Q 838 2438 1203 2875 
z
M 3238 1747 
Q 3359 2381 3169 2744 
Q 2978 3103 2522 3103 
Q 2066 3103 1734 2744 
Q 1403 2381 1281 1747 
Q 1156 1113 1347 750 
Q 1538 391 1994 391 
Q 2450 391 2781 750 
Q 3113 1113 3238 1747 
z
" transform="scale(0.015625)"/>
       <path id="DejaVuSans-2212" d="M 678 2272 
L 4684 2272 
L 4684 1741 
L 678 1741 
L 678 2272 
z
" transform="scale(0.015625)"/>
       <path id="DejaVuSans-Oblique-63" d="M 3431 3366 
L 3316 2797 
Q 3109 2947 2876 3022 
Q 2644 3097 2394 3097 
Q 2119 3097 1870 3000 
Q 1622 2903 1453 2725 
Q 1184 2453 1037 2087 
Q 891 1722 891 1331 
Q 891 859 1127 628 
Q 1363 397 1844 397 
Q 2081 397 2348 469 
Q 2616 541 2906 684 
L 2797 116 
Q 2547 13 2283 -39 
Q 2019 -91 1741 -91 
Q 1044 -91 669 257 
Q 294 606 294 1253 
Q 294 1797 489 2255 
Q 684 2713 1069 3078 
Q 1331 3328 1684 3456 
Q 2038 3584 2456 3584 
Q 2700 3584 2940 3529 
Q 3181 3475 3431 3366 
z
" transform="scale(0.015625)"/>
       <path id="DejaVuSans-Oblique-4c" d="M 1075 4666 
L 1709 4666 
L 909 525 
L 3181 525 
L 3078 0 
L 172 0 
L 1075 4666 
z
" transform="scale(0.015625)"/>
       <path id="DejaVuSans-29" d="M 513 4856 
L 1013 4856 
Q 1481 4119 1714 3412 
Q 1947 2706 1947 2009 
Q 1947 1309 1714 600 
Q 1481 -109 1013 -844 
L 513 -844 
Q 928 -128 1133 580 
Q 1338 1288 1338 2009 
Q 1338 2731 1133 3434 
Q 928 4138 513 4856 
z
" transform="scale(0.015625)"/>
       <path id="DejaVuSans-2f" d="M 1625 4666 
L 2156 4666 
L 531 -594 
L 0 -594 
L 1625 4666 
z
" transform="scale(0.015625)"/>
      </defs>
      <use xlink:href="#DejaVuSans-28" transform="translate(0 0.125)"/>
      <use xlink:href="#DejaVuSans-Oblique-3c1" transform="translate(39.013672 0.125)"/>
      <use xlink:href="#DejaVuSans-2212" transform="translate(121.972656 0.125)"/>
      <use xlink:href="#DejaVuSans-Oblique-3c1" transform="translate(225.244141 0.125)"/>
      <use xlink:href="#DejaVuSans-Oblique-63" transform="translate(288.720703 -16.28125) scale(0.7)"/>
      <use xlink:href="#DejaVuSans-28" transform="translate(329.941406 0.125)"/>
      <use xlink:href="#DejaVuSans-Oblique-4c" transform="translate(368.955078 0.125)"/>
      <use xlink:href="#DejaVuSans-29" transform="translate(424.667969 0.125)"/>
      <use xlink:href="#DejaVuSans-29" transform="translate(463.681641 0.125)"/>
      <use xlink:href="#DejaVuSans-2f" transform="translate(502.695312 0.125)"/>
      <use xlink:href="#DejaVuSans-Oblique-3c1" transform="translate(536.386719 0.125)"/>
      <use xlink:href="#DejaVuSans-Oblique-63" transform="translate(599.863281 -16.28125) scale(0.7)"/>
      <use xlink:href="#DejaVuSans-28" transform="translate(641.083984 0.125)"/>
      <use xlink:href="#DejaVuSans-Oblique-4c" transform="translate(680.097656 0.125)"/>
      <use xlink:href="#DejaVuSans-29" transform="translate(735.810547 0.125)"/>
     </g>
    </g>
   </g>
   <g id="matplotlib.axis_2">
    <g id="ytick_1">
     <g id="line2d_24">
      <path d="M 50.14375 330.564768 
L 415.61875 330.564768 
" clip-path="url(#p70fef61219)" style="fill: none; stroke: #b0b0b0; stroke-width: 0.8; stroke-linecap: square"/>
     </g>
     <g id="line2d_25">
      <defs>
       <path id="mad6feac6c6" d="M 0 0 
L -3.5 0 
" style="stroke: #000000; stroke-width: 0.8"/>
      </defs>
      <g>
       <use xlink:href="#mad6feac6c6" x="50.14375" y="330.564768" style="stroke: #000000; stroke-width: 0.8"/>
      </g>
     </g>
     <g id="text_8">
      <!-- 0.40 -->
      <g transform="translate(20.878125 334.363987) scale(0.1 -0.1)">
       <defs>
        <path id="DejaVuSans-34" d="M 2419 4116 
L 825 1625 
L 2419 1625 
L 2419 4116 
z
M 2253 4666 
L 3047 4666 
L 3047 1625 
L 3713 1625 
L 3713 1100 
L 3047 1100 
L 3047 0 
L 2419 0 
L 2419 1100 
L 313 1100 
L 313 1709 
L 2253 4666 
z
" transform="scale(0.015625)"/>
       </defs>
       <use xlink:href="#DejaVuSans-30"/>
       <use xlink:href="#DejaVuSans-2e" x="63.623047"/>
       <use xlink:href="#DejaVuSans-34" x="95.410156"/>
       <use xlink:href="#DejaVuSans-30" x="159.033203"/>
      </g>
     </g>
    </g>
    <g id="ytick_2">
     <g id="line2d_26">
      <path d="M 50.14375 241.743644 
L 415.61875 241.743644 
" clip-path="url(#p70fef61219)" style="fill: none; stroke: #b0b0b0; stroke-width: 0.8; stroke-linecap: square"/>
     </g>
     <g id="line2d_27">
      <g>
       <use xlink:href="#mad6feac6c6" x="50.14375" y="241.743644" style="stroke: #000000; stroke-width: 0.8"/>
      </g>
     </g>
     <g id="text_9">
      <!-- 0.50 -->
      <g transform="translate(20.878125 245.542862) scale(0.1 -0.1)">
       <defs>
        <path id="DejaVuSans-35" d="M 691 4666 
L 3169 4666 
L 3169 4134 
L 1269 4134 
L 1269 2991 
Q 1406 3038 1543 3061 
Q 1681 3084 1819 3084 
Q 2600 3084 3056 2656 
Q 3513 2228 3513 1497 
Q 3513 744 3044 326 
Q 2575 -91 1722 -91 
Q 1428 -91 1123 -41 
Q 819 9 494 109 
L 494 744 
Q 775 591 1075 516 
Q 1375 441 1709 441 
Q 2250 441 2565 725 
Q 2881 1009 2881 1497 
Q 2881 1984 2565 2268 
Q 2250 2553 1709 2553 
Q 1456 2553 1204 2497 
Q 953 2441 691 2322 
L 691 4666 
z
" transform="scale(0.015625)"/>
       </defs>
       <use xlink:href="#DejaVuSans-30"/>
       <use xlink:href="#DejaVuSans-2e" x="63.623047"/>
       <use xlink:href="#DejaVuSans-35" x="95.410156"/>
       <use xlink:href="#DejaVuSans-30" x="159.033203"/>
      </g>
     </g>
    </g>
    <g id="ytick_3">
     <g id="line2d_28">
      <path d="M 50.14375 169.171501 
L 415.61875 169.171501 
" clip-path="url(#p70fef61219)" style="fill: none; stroke: #b0b0b0; stroke-width: 0.8; stroke-linecap: square"/>
     </g>
     <g id="line2d_29">
      <g>
       <use xlink:href="#mad6feac6c6" x="50.14375" y="169.171501" style="stroke: #000000; stroke-width: 0.8"/>
      </g>
     </g>
     <g id="text_10">
      <!-- 0.60 -->
      <g transform="translate(20.878125 172.970719) scale(0.1 -0.1)">
       <defs>
        <path id="DejaVuSans-36" d="M 2113 2584 
Q 1688 2584 1439 2293 
Q 1191 2003 1191 1497 
Q 1191 994 1439 701 
Q 1688 409 2113 409 
Q 2538 409 2786 701 
Q 3034 994 3034 1497 
Q 3034 2003 2786 2293 
Q 2538 2584 2113 2584 
z
M 3366 4563 
L 3366 3988 
Q 3128 4100 2886 4159 
Q 2644 4219 2406 4219 
Q 1781 4219 1451 3797 
Q 1122 3375 1075 2522 
Q 1259 2794 1537 2939 
Q 1816 3084 2150 3084 
Q 2853 3084 3261 2657 
Q 3669 2231 3669 1497 
Q 3669 778 3244 343 
Q 2819 -91 2113 -91 
Q 1303 -91 875 529 
Q 447 1150 447 2328 
Q 447 3434 972 4092 
Q 1497 4750 2381 4750 
Q 2619 4750 2861 4703 
Q 3103 4656 3366 4563 
z
" transform="scale(0.015625)"/>
       </defs>
       <use xlink:href="#DejaVuSans-30"/>
       <use xlink:href="#DejaVuSans-2e" x="63.623047"/>
       <use xlink:href="#DejaVuSans-36" x="95.410156"/>
       <use xlink:href="#DejaVuSans-30" x="159.033203"/>
      </g>
     </g>
    </g>
    <g id="ytick_4">
     <g id="line2d_30">
      <path d="M 50.14375 107.812628 
L 415.61875 107.812628 
" clip-path="url(#p70fef61219)" style="fill: none; stroke: #b0b0b0; stroke-width: 0.8; stroke-linecap: square"/>
     </g>
     <g id="line2d_31">
      <g>
       <use xlink:href="#mad6feac6c6" x="50.14375" y="107.812628" style="stroke: #000000; stroke-width: 0.8"/>
      </g>
     </g>
     <g id="text_11">
      <!-- 0.70 -->
      <g transform="translate(20.878125 111.611847) scale(0.1 -0.1)">
       <defs>
        <path id="DejaVuSans-37" d="M 525 4666 
L 3525 4666 
L 3525 4397 
L 1831 0 
L 1172 0 
L 2766 4134 
L 525 4134 
L 525 4666 
z
" transform="scale(0.015625)"/>
       </defs>
       <use xlink:href="#DejaVuSans-30"/>
       <use xlink:href="#DejaVuSans-2e" x="63.623047"/>
       <use xlink:href="#DejaVuSans-37" x="95.410156"/>
       <use xlink:href="#DejaVuSans-30" x="159.033203"/>
      </g>
     </g>
    </g>
    <g id="ytick_5">
     <g id="line2d_32">
      <path d="M 50.14375 54.661155 
L 415.61875 54.661155 
" clip-path="url(#p70fef61219)" style="fill: none; stroke: #b0b0b0; stroke-width: 0.8; stroke-linecap: square"/>
     </g>
     <g id="line2d_33">
      <g>
       <use xlink:href="#mad6feac6c6" x="50.14375" y="54.661155" style="stroke: #000000; stroke-width: 0.8"/>
      </g>
     </g>
     <g id="text_12">
      <!-- 0.80 -->
      <g transform="translate(20.878125 58.460374) scale(0.1 -0.1)">
       <defs>
        <path id="DejaVuSans-38" d="M 2034 2216 
Q 1584 2216 1326 1975 
Q 1069 1734 1069 1313 
Q 1069 891 1326 650 
Q 1584 409 2034 409 
Q 2484 409 2743 651 
Q 3003 894 3003 1313 
Q 3003 1734 2745 1975 
Q 2488 2216 2034 2216 
z
M 1403 2484 
Q 997 2584 770 2862 
Q 544 3141 544 3541 
Q 544 4100 942 4425 
Q 1341 4750 2034 4750 
Q 2731 4750 3128 4425 
Q 3525 4100 3525 3541 
Q 3525 3141 3298 2862 
Q 3072 2584 2669 2484 
Q 3125 2378 3379 2068 
Q 3634 1759 3634 1313 
Q 3634 634 3220 271 
Q 2806 -91 2034 -91 
Q 1263 -91 848 271 
Q 434 634 434 1313 
Q 434 1759 690 2068 
Q 947 2378 1403 2484 
z
M 1172 3481 
Q 1172 3119 1398 2916 
Q 1625 2713 2034 2713 
Q 2441 2713 2670 2916 
Q 2900 3119 2900 3481 
Q 2900 3844 2670 4047 
Q 2441 4250 2034 4250 
Q 1625 4250 1398 4047 
Q 1172 3844 1172 3481 
z
" transform="scale(0.015625)"/>
       </defs>
       <use xlink:href="#DejaVuSans-30"/>
       <use xlink:href="#DejaVuSans-2e" x="63.623047"/>
       <use xlink:href="#DejaVuSans-38" x="95.410156"/>
       <use xlink:href="#DejaVuSans-30" x="159.033203"/>
      </g>
     </g>
    </g>
    <g id="text_13">
     <!-- $v_a$ -->
     <g transform="translate(14.798438 210.91) rotate(-90) scale(0.1 -0.1)">
      <defs>
       <path id="DejaVuSans-Oblique-76" d="M 459 3500 
L 1069 3500 
L 1581 525 
L 3256 3500 
L 3866 3500 
L 1875 0 
L 1100 0 
L 459 3500 
z
" transform="scale(0.015625)"/>
       <path id="DejaVuSans-Oblique-61" d="M 3438 1997 
L 3047 0 
L 2472 0 
L 2578 531 
Q 2325 219 2001 64 
Q 1678 -91 1281 -91 
Q 834 -91 548 182 
Q 263 456 263 884 
Q 263 1497 752 1853 
Q 1241 2209 2100 2209 
L 2900 2209 
L 2931 2363 
Q 2938 2388 2941 2417 
Q 2944 2447 2944 2509 
Q 2944 2788 2717 2942 
Q 2491 3097 2081 3097 
Q 1800 3097 1504 3025 
Q 1209 2953 897 2809 
L 997 3341 
Q 1322 3463 1633 3523 
Q 1944 3584 2234 3584 
Q 2853 3584 3176 3315 
Q 3500 3047 3500 2534 
Q 3500 2431 3484 2292 
Q 3469 2153 3438 1997 
z
M 2816 1759 
L 2241 1759 
Q 1534 1759 1195 1570 
Q 856 1381 856 984 
Q 856 709 1029 553 
Q 1203 397 1509 397 
Q 1978 397 2328 733 
Q 2678 1069 2791 1631 
L 2816 1759 
z
" transform="scale(0.015625)"/>
      </defs>
      <use xlink:href="#DejaVuSans-Oblique-76" transform="translate(0 0.3125)"/>
      <use xlink:href="#DejaVuSans-Oblique-61" transform="translate(59.179688 -16.09375) scale(0.7)"/>
     </g>
    </g>
   </g>
   <g id="line2d_34">
    <defs>
     <path id="m5293ca7f48" d="M 0 3 
C 0.795609 3 1.55874 2.683901 2.12132 2.12132 
C 2.683901 1.55874 3 0.795609 3 0 
C 3 -0.795609 2.683901 -1.55874 2.12132 -2.12132 
C 1.55874 -2.683901 0.795609 -3 0 -3 
C -0.795609 -3 -1.55874 -2.683901 -2.12132 -2.12132 
C -2.683901 -1.55874 -3 -0.795609 -3 0 
C -3 0.795609 -2.683901 1.55874 -2.12132 2.12132 
C -1.55874 2.683901 -0.795609 3 0 3 
z
" style="stroke: #0a8e78"/>
    </defs>
    <g clip-path="url(#p70fef61219)">
     <use xlink:href="#m5293ca7f48" x="66.75625" y="319.379121" style="fill: #0a8e78; stroke: #0a8e78"/>
     <use xlink:href="#m5293ca7f48" x="128.854308" y="303.691886" style="fill: #0a8e78; stroke: #0a8e78"/>
     <use xlink:href="#m5293ca7f48" x="163.654392" y="275.820353" style="fill: #0a8e78; stroke: #0a8e78"/>
     <use xlink:href="#m5293ca7f48" x="187.949039" y="265.567863" style="fill: #0a8e78; stroke: #0a8e78"/>
     <use xlink:href="#m5293ca7f48" x="206.631515" y="243.833341" style="fill: #0a8e78; stroke: #0a8e78"/>
     <use xlink:href="#m5293ca7f48" x="221.814223" y="231.373023" style="fill: #0a8e78; stroke: #0a8e78"/>
     <use xlink:href="#m5293ca7f48" x="234.603775" y="225.868657" style="fill: #0a8e78; stroke: #0a8e78"/>
     <use xlink:href="#m5293ca7f48" x="245.652883" y="210.278369" style="fill: #0a8e78; stroke: #0a8e78"/>
     <use xlink:href="#m5293ca7f48" x="255.378995" y="197.757203" style="fill: #0a8e78; stroke: #0a8e78"/>
     <use xlink:href="#m5293ca7f48" x="264.065324" y="190.986784" style="fill: #0a8e78; stroke: #0a8e78"/>
     <use xlink:href="#m5293ca7f48" x="271.912875" y="167.236414" style="fill: #0a8e78; stroke: #0a8e78"/>
     <use xlink:href="#m5293ca7f48" x="279.069466" y="163.042697" style="fill: #0a8e78; stroke: #0a8e78"/>
     <use xlink:href="#m5293ca7f48" x="285.646988" y="151.286069" style="fill: #0a8e78; stroke: #0a8e78"/>
     <use xlink:href="#m5293ca7f48" x="291.732176" y="156.424667" style="fill: #0a8e78; stroke: #0a8e78"/>
     <use xlink:href="#m5293ca7f48" x="297.393629" y="146.939207" style="fill: #0a8e78; stroke: #0a8e78"/>
     <use xlink:href="#m5293ca7f48" x="302.686536" y="139.676391" style="fill: #0a8e78; stroke: #0a8e78"/>
     <use xlink:href="#m5293ca7f48" x="307.655963" y="132.165571" style="fill: #0a8e78; stroke: #0a8e78"/>
     <use xlink:href="#m5293ca7f48" x="312.33918" y="126.64108" style="fill: #0a8e78; stroke: #0a8e78"/>
     <use xlink:href="#m5293ca7f48" x="316.76737" y="117.45828" style="fill: #0a8e78; stroke: #0a8e78"/>
     <use xlink:href="#m5293ca7f48" x="320.966878" y="114.697577" style="fill: #0a8e78; stroke: #0a8e78"/>
     <use xlink:href="#m5293ca7f48" x="324.960169" y="111.929519" style="fill: #0a8e78; stroke: #0a8e78"/>
     <use xlink:href="#m5293ca7f48" x="328.76655" y="112.583361" style="fill: #0a8e78; stroke: #0a8e78"/>
     <use xlink:href="#m5293ca7f48" x="332.402739" y="106.722899" style="fill: #0a8e78; stroke: #0a8e78"/>
     <use xlink:href="#m5293ca7f48" x="335.883307" y="101.954219" style="fill: #0a8e78; stroke: #0a8e78"/>
     <use xlink:href="#m5293ca7f48" x="339.221028" y="102.288574" style="fill: #0a8e78; stroke: #0a8e78"/>
     <use xlink:href="#m5293ca7f48" x="342.427168" y="98.052068" style="fill: #0a8e78; stroke: #0a8e78"/>
     <use xlink:href="#m5293ca7f48" x="345.511708" y="93.770453" style="fill: #0a8e78; stroke: #0a8e78"/>
     <use xlink:href="#m5293ca7f48" x="348.483537" y="91.620873" style="fill: #0a8e78; stroke: #0a8e78"/>
     <use xlink:href="#m5293ca7f48" x="351.350601" y="90.399583" style="fill: #0a8e78; stroke: #0a8e78"/>
     <use xlink:href="#m5293ca7f48" x="354.120037" y="86.462199" style="fill: #0a8e78; stroke: #0a8e78"/>
     <use xlink:href="#m5293ca7f48" x="356.798275" y="83.872866" style="fill: #0a8e78; stroke: #0a8e78"/>
     <use xlink:href="#m5293ca7f48" x="359.39113" y="82.329201" style="fill: #0a8e78; stroke: #0a8e78"/>
     <use xlink:href="#m5293ca7f48" x="361.903879" y="82.654465" style="fill: #0a8e78; stroke: #0a8e78"/>
     <use xlink:href="#m5293ca7f48" x="364.341323" y="80.401215" style="fill: #0a8e78; stroke: #0a8e78"/>
     <use xlink:href="#m5293ca7f48" x="366.707845" y="79.493139" style="fill: #0a8e78; stroke: #0a8e78"/>
     <use xlink:href="#m5293ca7f48" x="369.007456" y="76.696731" style="fill: #0a8e78; stroke: #0a8e78"/>
     <use xlink:href="#m5293ca7f48" x="371.243836" y="76.654481" style="fill: #0a8e78; stroke: #0a8e78"/>
     <use xlink:href="#m5293ca7f48" x="373.420368" y="74.493913" style="fill: #0a8e78; stroke: #0a8e78"/>
     <use xlink:href="#m5293ca7f48" x="375.540174" y="73.357456" style="fill: #0a8e78; stroke: #0a8e78"/>
     <use xlink:href="#m5293ca7f48" x="377.606134" y="74.114702" style="fill: #0a8e78; stroke: #0a8e78"/>
     <use xlink:href="#m5293ca7f48" x="379.620917" y="70.803785" style="fill: #0a8e78; stroke: #0a8e78"/>
     <use xlink:href="#m5293ca7f48" x="381.586997" y="72.370929" style="fill: #0a8e78; stroke: #0a8e78"/>
     <use xlink:href="#m5293ca7f48" x="383.506673" y="70.839828" style="fill: #0a8e78; stroke: #0a8e78"/>
     <use xlink:href="#m5293ca7f48" x="385.382085" y="68.45483" style="fill: #0a8e78; stroke: #0a8e78"/>
     <use xlink:href="#m5293ca7f48" x="387.215229" y="68.358559" style="fill: #0a8e78; stroke: #0a8e78"/>
     <use xlink:href="#m5293ca7f48" x="389.007967" y="66.603001" style="fill: #0a8e78; stroke: #0a8e78"/>
     <use xlink:href="#m5293ca7f48" x="390.762044" y="65.932289" style="fill: #0a8e78; stroke: #0a8e78"/>
     <use xlink:href="#m5293ca7f48" x="392.47909" y="65.289294" style="fill: #0a8e78; stroke: #0a8e78"/>
     <use xlink:href="#m5293ca7f48" x="394.160638" y="64.284771" style="fill: #0a8e78; stroke: #0a8e78"/>
     <use xlink:href="#m5293ca7f48" x="395.808126" y="62.842279" style="fill: #0a8e78; stroke: #0a8e78"/>
     <use xlink:href="#m5293ca7f48" x="397.422905" y="64.987011" style="fill: #0a8e78; stroke: #0a8e78"/>
     <use xlink:href="#m5293ca7f48" x="399.00625" y="61.880927" style="fill: #0a8e78; stroke: #0a8e78"/>
    </g>
   </g>
   <g id="line2d_35">
    <path d="M 66.75625 358.26 
L 104.485613 323.602358 
L 130.159844 300.018385 
L 149.64484 282.119751 
L 165.35247 267.690952 
L 178.512149 255.602662 
L 189.836266 245.200494 
L 199.77476 236.071138 
L 208.630052 227.936796 
L 216.615226 220.601733 
L 223.88608 213.922832 
L 230.559988 207.792277 
L 236.727576 202.126821 
L 242.46028 196.860843 
L 247.815411 191.941698 
L 252.839645 187.32651 
L 257.571507 182.979891 
L 262.043161 178.872295 
L 266.281739 174.978798 
L 270.31034 171.278184 
L 274.14879 167.752241 
L 277.814232 164.385218 
L 281.321593 161.163408 
L 284.683946 158.0748 
L 287.912806 155.108816 
L 291.01837 152.25609 
L 294.009709 149.508289 
L 296.894929 146.857969 
L 299.681301 144.298449 
L 302.375374 141.823712 
L 304.983068 139.428322 
L 307.50975 137.107349 
L 309.960303 134.856307 
L 312.33918 132.671105 
L 314.650456 130.548001 
L 316.897865 128.483563 
L 319.084844 126.474637 
L 321.214557 124.518313 
L 323.289927 122.611909 
L 325.313658 120.752939 
L 327.288258 118.9391 
L 329.216056 117.168254 
L 331.099219 115.438408 
L 332.939767 113.747707 
L 334.739587 112.094419 
L 336.500441 110.476924 
L 338.223982 108.893704 
L 339.911759 107.343337 
L 341.565224 105.824488 
L 343.185746 104.3359 
L 344.774612 102.876391 
L 346.333034 101.444847 
L 347.862158 100.040216 
L 349.363065 98.661505 
L 350.836777 97.307774 
L 352.284263 95.978135 
L 353.706439 94.671745 
L 355.104176 93.387805 
L 356.478298 92.125556 
L 357.829592 90.884277 
L 359.158802 89.663284 
L 360.46664 88.461923 
L 361.753781 87.279574 
L 363.020871 86.115644 
L 364.268525 84.969568 
L 365.497329 83.840806 
L 366.707845 82.728843 
L 367.90061 81.633187 
L 369.076136 80.553365 
L 370.234915 79.488928 
L 371.377418 78.439442 
L 372.504094 77.404494 
L 373.615377 76.383685 
L 374.711681 75.376636 
L 375.793406 74.38298 
L 376.860933 73.402365 
L 377.91463 72.434454 
L 378.954852 71.478921 
L 379.981939 70.535455 
L 380.996217 69.603753 
L 381.998004 68.683527 
L 382.987602 67.774496 
L 383.965305 66.876393 
L 384.931395 65.988957 
L 385.886144 65.111937 
L 386.829817 64.245093 
L 387.762667 63.388191 
L 388.68494 62.541005 
L 389.596872 61.703317 
L 390.498694 60.874917 
L 391.390626 60.055601 
L 392.272884 59.245172 
L 393.145674 58.443439 
L 394.009199 57.650218 
L 394.863652 56.86533 
L 395.709222 56.088602 
L 396.546093 55.319865 
L 397.374441 54.558956 
L 398.194437 53.805719 
L 399.00625 53.06 
" clip-path="url(#p70fef61219)" style="fill: none; stroke: #000000; stroke-width: 1.5; stroke-linecap: square"/>
   </g>
   <g id="patch_3">
    <path d="M 50.14375 373.52 
L 50.14375 37.8 
" style="fill: none; stroke: #000000; stroke-width: 0.8; stroke-linejoin: miter; stroke-linecap: square"/>
   </g>
   <g id="patch_4">
    <path d="M 415.61875 373.52 
L 415.61875 37.8 
" style="fill: none; stroke: #000000; stroke-width: 0.8; stroke-linejoin: miter; stroke-linecap: square"/>
   </g>
   <g id="patch_5">
    <path d="M 50.14375 373.52 
L 415.61875 373.52 
" style="fill: none; stroke: #000000; stroke-width: 0.8; stroke-linejoin: miter; stroke-linecap: square"/>
   </g>
   <g id="patch_6">
    <path d="M 50.14375 37.8 
L 415.61875 37.8 
" style="fill: none; stroke: #000000; stroke-width: 0.8; stroke-linejoin: miter; stroke-linecap: square"/>
   </g>
   <g id="text_14">
    <!-- Dependance of ln v$_a$ on ln $[(\rho - \rho_c(L))/\rho_c(L)]$ in log-log -->
    <g transform="translate(72.08125 16.32) scale(0.12 -0.12)">
     <defs>
      <path id="DejaVuSans-44" d="M 1259 4147 
L 1259 519 
L 2022 519 
Q 2988 519 3436 956 
Q 3884 1394 3884 2338 
Q 3884 3275 3436 3711 
Q 2988 4147 2022 4147 
L 1259 4147 
z
M 628 4666 
L 1925 4666 
Q 3281 4666 3915 4102 
Q 4550 3538 4550 2338 
Q 4550 1131 3912 565 
Q 3275 0 1925 0 
L 628 0 
L 628 4666 
z
" transform="scale(0.015625)"/>
      <path id="DejaVuSans-65" d="M 3597 1894 
L 3597 1613 
L 953 1613 
Q 991 1019 1311 708 
Q 1631 397 2203 397 
Q 2534 397 2845 478 
Q 3156 559 3463 722 
L 3463 178 
Q 3153 47 2828 -22 
Q 2503 -91 2169 -91 
Q 1331 -91 842 396 
Q 353 884 353 1716 
Q 353 2575 817 3079 
Q 1281 3584 2069 3584 
Q 2775 3584 3186 3129 
Q 3597 2675 3597 1894 
z
M 3022 2063 
Q 3016 2534 2758 2815 
Q 2500 3097 2075 3097 
Q 1594 3097 1305 2825 
Q 1016 2553 972 2059 
L 3022 2063 
z
" transform="scale(0.015625)"/>
      <path id="DejaVuSans-70" d="M 1159 525 
L 1159 -1331 
L 581 -1331 
L 581 3500 
L 1159 3500 
L 1159 2969 
Q 1341 3281 1617 3432 
Q 1894 3584 2278 3584 
Q 2916 3584 3314 3078 
Q 3713 2572 3713 1747 
Q 3713 922 3314 415 
Q 2916 -91 2278 -91 
Q 1894 -91 1617 61 
Q 1341 213 1159 525 
z
M 3116 1747 
Q 3116 2381 2855 2742 
Q 2594 3103 2138 3103 
Q 1681 3103 1420 2742 
Q 1159 2381 1159 1747 
Q 1159 1113 1420 752 
Q 1681 391 2138 391 
Q 2594 391 2855 752 
Q 3116 1113 3116 1747 
z
" transform="scale(0.015625)"/>
      <path id="DejaVuSans-6e" d="M 3513 2113 
L 3513 0 
L 2938 0 
L 2938 2094 
Q 2938 2591 2744 2837 
Q 2550 3084 2163 3084 
Q 1697 3084 1428 2787 
Q 1159 2491 1159 1978 
L 1159 0 
L 581 0 
L 581 3500 
L 1159 3500 
L 1159 2956 
Q 1366 3272 1645 3428 
Q 1925 3584 2291 3584 
Q 2894 3584 3203 3211 
Q 3513 2838 3513 2113 
z
" transform="scale(0.015625)"/>
      <path id="DejaVuSans-64" d="M 2906 2969 
L 2906 4863 
L 3481 4863 
L 3481 0 
L 2906 0 
L 2906 525 
Q 2725 213 2448 61 
Q 2172 -91 1784 -91 
Q 1150 -91 751 415 
Q 353 922 353 1747 
Q 353 2572 751 3078 
Q 1150 3584 1784 3584 
Q 2172 3584 2448 3432 
Q 2725 3281 2906 2969 
z
M 947 1747 
Q 947 1113 1208 752 
Q 1469 391 1925 391 
Q 2381 391 2643 752 
Q 2906 1113 2906 1747 
Q 2906 2381 2643 2742 
Q 2381 3103 1925 3103 
Q 1469 3103 1208 2742 
Q 947 2381 947 1747 
z
" transform="scale(0.015625)"/>
      <path id="DejaVuSans-61" d="M 2194 1759 
Q 1497 1759 1228 1600 
Q 959 1441 959 1056 
Q 959 750 1161 570 
Q 1363 391 1709 391 
Q 2188 391 2477 730 
Q 2766 1069 2766 1631 
L 2766 1759 
L 2194 1759 
z
M 3341 1997 
L 3341 0 
L 2766 0 
L 2766 531 
Q 2569 213 2275 61 
Q 1981 -91 1556 -91 
Q 1019 -91 701 211 
Q 384 513 384 1019 
Q 384 1609 779 1909 
Q 1175 2209 1959 2209 
L 2766 2209 
L 2766 2266 
Q 2766 2663 2505 2880 
Q 2244 3097 1772 3097 
Q 1472 3097 1187 3025 
Q 903 2953 641 2809 
L 641 3341 
Q 956 3463 1253 3523 
Q 1550 3584 1831 3584 
Q 2591 3584 2966 3190 
Q 3341 2797 3341 1997 
z
" transform="scale(0.015625)"/>
      <path id="DejaVuSans-63" d="M 3122 3366 
L 3122 2828 
Q 2878 2963 2633 3030 
Q 2388 3097 2138 3097 
Q 1578 3097 1268 2742 
Q 959 2388 959 1747 
Q 959 1106 1268 751 
Q 1578 397 2138 397 
Q 2388 397 2633 464 
Q 2878 531 3122 666 
L 3122 134 
Q 2881 22 2623 -34 
Q 2366 -91 2075 -91 
Q 1284 -91 818 406 
Q 353 903 353 1747 
Q 353 2603 823 3093 
Q 1294 3584 2113 3584 
Q 2378 3584 2631 3529 
Q 2884 3475 3122 3366 
z
" transform="scale(0.015625)"/>
      <path id="DejaVuSans-20" transform="scale(0.015625)"/>
      <path id="DejaVuSans-6f" d="M 1959 3097 
Q 1497 3097 1228 2736 
Q 959 2375 959 1747 
Q 959 1119 1226 758 
Q 1494 397 1959 397 
Q 2419 397 2687 759 
Q 2956 1122 2956 1747 
Q 2956 2369 2687 2733 
Q 2419 3097 1959 3097 
z
M 1959 3584 
Q 2709 3584 3137 3096 
Q 3566 2609 3566 1747 
Q 3566 888 3137 398 
Q 2709 -91 1959 -91 
Q 1206 -91 779 398 
Q 353 888 353 1747 
Q 353 2609 779 3096 
Q 1206 3584 1959 3584 
z
" transform="scale(0.015625)"/>
      <path id="DejaVuSans-66" d="M 2375 4863 
L 2375 4384 
L 1825 4384 
Q 1516 4384 1395 4259 
Q 1275 4134 1275 3809 
L 1275 3500 
L 2222 3500 
L 2222 3053 
L 1275 3053 
L 1275 0 
L 697 0 
L 697 3053 
L 147 3053 
L 147 3500 
L 697 3500 
L 697 3744 
Q 697 4328 969 4595 
Q 1241 4863 1831 4863 
L 2375 4863 
z
" transform="scale(0.015625)"/>
      <path id="DejaVuSans-6c" d="M 603 4863 
L 1178 4863 
L 1178 0 
L 603 0 
L 603 4863 
z
" transform="scale(0.015625)"/>
      <path id="DejaVuSans-76" d="M 191 3500 
L 800 3500 
L 1894 563 
L 2988 3500 
L 3597 3500 
L 2284 0 
L 1503 0 
L 191 3500 
z
" transform="scale(0.015625)"/>
      <path id="DejaVuSans-5b" d="M 550 4863 
L 1875 4863 
L 1875 4416 
L 1125 4416 
L 1125 -397 
L 1875 -397 
L 1875 -844 
L 550 -844 
L 550 4863 
z
" transform="scale(0.015625)"/>
      <path id="DejaVuSans-5d" d="M 1947 4863 
L 1947 -844 
L 622 -844 
L 622 -397 
L 1369 -397 
L 1369 4416 
L 622 4416 
L 622 4863 
L 1947 4863 
z
" transform="scale(0.015625)"/>
      <path id="DejaVuSans-69" d="M 603 3500 
L 1178 3500 
L 1178 0 
L 603 0 
L 603 3500 
z
M 603 4863 
L 1178 4863 
L 1178 4134 
L 603 4134 
L 603 4863 
z
" transform="scale(0.015625)"/>
      <path id="DejaVuSans-67" d="M 2906 1791 
Q 2906 2416 2648 2759 
Q 2391 3103 1925 3103 
Q 1463 3103 1205 2759 
Q 947 2416 947 1791 
Q 947 1169 1205 825 
Q 1463 481 1925 481 
Q 2391 481 2648 825 
Q 2906 1169 2906 1791 
z
M 3481 434 
Q 3481 -459 3084 -895 
Q 2688 -1331 1869 -1331 
Q 1566 -1331 1297 -1286 
Q 1028 -1241 775 -1147 
L 775 -588 
Q 1028 -725 1275 -790 
Q 1522 -856 1778 -856 
Q 2344 -856 2625 -561 
Q 2906 -266 2906 331 
L 2906 616 
Q 2728 306 2450 153 
Q 2172 0 1784 0 
Q 1141 0 747 490 
Q 353 981 353 1791 
Q 353 2603 747 3093 
Q 1141 3584 1784 3584 
Q 2172 3584 2450 3431 
Q 2728 3278 2906 2969 
L 2906 3500 
L 3481 3500 
L 3481 434 
z
" transform="scale(0.015625)"/>
      <path id="DejaVuSans-2d" d="M 313 2009 
L 1997 2009 
L 1997 1497 
L 313 1497 
L 313 2009 
z
" transform="scale(0.015625)"/>
     </defs>
     <use xlink:href="#DejaVuSans-44" transform="translate(0 0.015625)"/>
     <use xlink:href="#DejaVuSans-65" transform="translate(77.001953 0.015625)"/>
     <use xlink:href="#DejaVuSans-70" transform="translate(138.525391 0.015625)"/>
     <use xlink:href="#DejaVuSans-65" transform="translate(202.001953 0.015625)"/>
     <use xlink:href="#DejaVuSans-6e" transform="translate(263.525391 0.015625)"/>
     <use xlink:href="#DejaVuSans-64" transform="translate(326.904297 0.015625)"/>
     <use xlink:href="#DejaVuSans-61" transform="translate(390.380859 0.015625)"/>
     <use xlink:href="#DejaVuSans-6e" transform="translate(451.660156 0.015625)"/>
     <use xlink:href="#DejaVuSans-63" transform="translate(515.039062 0.015625)"/>
     <use xlink:href="#DejaVuSans-65" transform="translate(570.019531 0.015625)"/>
     <use xlink:href="#DejaVuSans-20" transform="translate(631.542969 0.015625)"/>
     <use xlink:href="#DejaVuSans-6f" transform="translate(663.330078 0.015625)"/>
     <use xlink:href="#DejaVuSans-66" transform="translate(724.511719 0.015625)"/>
     <use xlink:href="#DejaVuSans-20" transform="translate(759.716797 0.015625)"/>
     <use xlink:href="#DejaVuSans-6c" transform="translate(791.503906 0.015625)"/>
     <use xlink:href="#DejaVuSans-6e" transform="translate(819.287109 0.015625)"/>
     <use xlink:href="#DejaVuSans-20" transform="translate(882.666016 0.015625)"/>
     <use xlink:href="#DejaVuSans-76" transform="translate(914.453125 0.015625)"/>
     <use xlink:href="#DejaVuSans-Oblique-61" transform="translate(974.589844 -16.390625) scale(0.7)"/>
     <use xlink:href="#DejaVuSans-20" transform="translate(1020.219727 0.015625)"/>
     <use xlink:href="#DejaVuSans-6f" transform="translate(1052.006836 0.015625)"/>
     <use xlink:href="#DejaVuSans-6e" transform="translate(1113.188477 0.015625)"/>
     <use xlink:href="#DejaVuSans-20" transform="translate(1176.567383 0.015625)"/>
     <use xlink:href="#DejaVuSans-6c" transform="translate(1208.354492 0.015625)"/>
     <use xlink:href="#DejaVuSans-6e" transform="translate(1236.137695 0.015625)"/>
     <use xlink:href="#DejaVuSans-20" transform="translate(1299.516602 0.015625)"/>
     <use xlink:href="#DejaVuSans-5b" transform="translate(1331.303711 0.015625)"/>
     <use xlink:href="#DejaVuSans-28" transform="translate(1370.317383 0.015625)"/>
     <use xlink:href="#DejaVuSans-Oblique-3c1" transform="translate(1409.331055 0.015625)"/>
     <use xlink:href="#DejaVuSans-2212" transform="translate(1492.290039 0.015625)"/>
     <use xlink:href="#DejaVuSans-Oblique-3c1" transform="translate(1595.561523 0.015625)"/>
     <use xlink:href="#DejaVuSans-Oblique-63" transform="translate(1659.038086 -16.390625) scale(0.7)"/>
     <use xlink:href="#DejaVuSans-28" transform="translate(1700.258789 0.015625)"/>
     <use xlink:href="#DejaVuSans-Oblique-4c" transform="translate(1739.272461 0.015625)"/>
     <use xlink:href="#DejaVuSans-29" transform="translate(1794.985352 0.015625)"/>
     <use xlink:href="#DejaVuSans-29" transform="translate(1833.999023 0.015625)"/>
     <use xlink:href="#DejaVuSans-2f" transform="translate(1873.012695 0.015625)"/>
     <use xlink:href="#DejaVuSans-Oblique-3c1" transform="translate(1906.704102 0.015625)"/>
     <use xlink:href="#DejaVuSans-Oblique-63" transform="translate(1970.180664 -16.390625) scale(0.7)"/>
     <use xlink:href="#DejaVuSans-28" transform="translate(2011.401367 0.015625)"/>
     <use xlink:href="#DejaVuSans-Oblique-4c" transform="translate(2050.415039 0.015625)"/>
     <use xlink:href="#DejaVuSans-29" transform="translate(2106.12793 0.015625)"/>
     <use xlink:href="#DejaVuSans-5d" transform="translate(2145.141602 0.015625)"/>
     <use xlink:href="#DejaVuSans-20" transform="translate(2184.155273 0.015625)"/>
     <use xlink:href="#DejaVuSans-69" transform="translate(2215.942383 0.015625)"/>
     <use xlink:href="#DejaVuSans-6e" transform="translate(2243.725586 0.015625)"/>
     <use xlink:href="#DejaVuSans-20" transform="translate(2307.104492 0.015625)"/>
     <use xlink:href="#DejaVuSans-6c" transform="translate(2338.891602 0.015625)"/>
     <use xlink:href="#DejaVuSans-6f" transform="translate(2366.674805 0.015625)"/>
     <use xlink:href="#DejaVuSans-67" transform="translate(2427.856445 0.015625)"/>
     <use xlink:href="#DejaVuSans-2d" transform="translate(2491.333008 0.015625)"/>
     <use xlink:href="#DejaVuSans-6c" transform="translate(2527.416992 0.015625)"/>
     <use xlink:href="#DejaVuSans-6f" transform="translate(2555.200195 0.015625)"/>
     <use xlink:href="#DejaVuSans-67" transform="translate(2616.381836 0.015625)"/>
    </g>
    <!-- for constant L=20 and $\eta$=2.0 after $10^5$ steps. -->
    <g transform="translate(96.68125 31.8) scale(0.12 -0.12)">
     <defs>
      <path id="DejaVuSans-72" d="M 2631 2963 
Q 2534 3019 2420 3045 
Q 2306 3072 2169 3072 
Q 1681 3072 1420 2755 
Q 1159 2438 1159 1844 
L 1159 0 
L 581 0 
L 581 3500 
L 1159 3500 
L 1159 2956 
Q 1341 3275 1631 3429 
Q 1922 3584 2338 3584 
Q 2397 3584 2469 3576 
Q 2541 3569 2628 3553 
L 2631 2963 
z
" transform="scale(0.015625)"/>
      <path id="DejaVuSans-73" d="M 2834 3397 
L 2834 2853 
Q 2591 2978 2328 3040 
Q 2066 3103 1784 3103 
Q 1356 3103 1142 2972 
Q 928 2841 928 2578 
Q 928 2378 1081 2264 
Q 1234 2150 1697 2047 
L 1894 2003 
Q 2506 1872 2764 1633 
Q 3022 1394 3022 966 
Q 3022 478 2636 193 
Q 2250 -91 1575 -91 
Q 1294 -91 989 -36 
Q 684 19 347 128 
L 347 722 
Q 666 556 975 473 
Q 1284 391 1588 391 
Q 1994 391 2212 530 
Q 2431 669 2431 922 
Q 2431 1156 2273 1281 
Q 2116 1406 1581 1522 
L 1381 1569 
Q 847 1681 609 1914 
Q 372 2147 372 2553 
Q 372 3047 722 3315 
Q 1072 3584 1716 3584 
Q 2034 3584 2315 3537 
Q 2597 3491 2834 3397 
z
" transform="scale(0.015625)"/>
      <path id="DejaVuSans-74" d="M 1172 4494 
L 1172 3500 
L 2356 3500 
L 2356 3053 
L 1172 3053 
L 1172 1153 
Q 1172 725 1289 603 
Q 1406 481 1766 481 
L 2356 481 
L 2356 0 
L 1766 0 
Q 1100 0 847 248 
Q 594 497 594 1153 
L 594 3053 
L 172 3053 
L 172 3500 
L 594 3500 
L 594 4494 
L 1172 4494 
z
" transform="scale(0.015625)"/>
      <path id="DejaVuSans-4c" d="M 628 4666 
L 1259 4666 
L 1259 531 
L 3531 531 
L 3531 0 
L 628 0 
L 628 4666 
z
" transform="scale(0.015625)"/>
      <path id="DejaVuSans-3d" d="M 678 2906 
L 4684 2906 
L 4684 2381 
L 678 2381 
L 678 2906 
z
M 678 1631 
L 4684 1631 
L 4684 1100 
L 678 1100 
L 678 1631 
z
" transform="scale(0.015625)"/>
      <path id="DejaVuSans-Oblique-3b7" d="M 3703 2113 
L 3034 -1331 
L 2459 -1331 
L 3125 2094 
Q 3222 2591 3075 2838 
Q 2931 3084 2544 3084 
Q 2078 3084 1750 2788 
Q 1425 2491 1325 1978 
L 941 0 
L 363 0 
L 1044 3500 
L 1622 3500 
L 1516 2956 
Q 1781 3272 2094 3428 
Q 2403 3584 2769 3584 
Q 3372 3584 3609 3213 
Q 3844 2838 3703 2113 
z
" transform="scale(0.015625)"/>
     </defs>
     <use xlink:href="#DejaVuSans-66" transform="translate(0 0.684375)"/>
     <use xlink:href="#DejaVuSans-6f" transform="translate(35.205078 0.684375)"/>
     <use xlink:href="#DejaVuSans-72" transform="translate(96.386719 0.684375)"/>
     <use xlink:href="#DejaVuSans-20" transform="translate(137.5 0.684375)"/>
     <use xlink:href="#DejaVuSans-63" transform="translate(169.287109 0.684375)"/>
     <use xlink:href="#DejaVuSans-6f" transform="translate(224.267578 0.684375)"/>
     <use xlink:href="#DejaVuSans-6e" transform="translate(285.449219 0.684375)"/>
     <use xlink:href="#DejaVuSans-73" transform="translate(348.828125 0.684375)"/>
     <use xlink:href="#DejaVuSans-74" transform="translate(400.927734 0.684375)"/>
     <use xlink:href="#DejaVuSans-61" transform="translate(440.136719 0.684375)"/>
     <use xlink:href="#DejaVuSans-6e" transform="translate(501.416016 0.684375)"/>
     <use xlink:href="#DejaVuSans-74" transform="translate(564.794922 0.684375)"/>
     <use xlink:href="#DejaVuSans-20" transform="translate(604.003906 0.684375)"/>
     <use xlink:href="#DejaVuSans-4c" transform="translate(635.791016 0.684375)"/>
     <use xlink:href="#DejaVuSans-3d" transform="translate(691.503906 0.684375)"/>
     <use xlink:href="#DejaVuSans-32" transform="translate(775.292969 0.684375)"/>
     <use xlink:href="#DejaVuSans-30" transform="translate(838.916016 0.684375)"/>
     <use xlink:href="#DejaVuSans-20" transform="translate(902.539062 0.684375)"/>
     <use xlink:href="#DejaVuSans-61" transform="translate(934.326172 0.684375)"/>
     <use xlink:href="#DejaVuSans-6e" transform="translate(995.605469 0.684375)"/>
     <use xlink:href="#DejaVuSans-64" transform="translate(1058.984375 0.684375)"/>
     <use xlink:href="#DejaVuSans-20" transform="translate(1122.460938 0.684375)"/>
     <use xlink:href="#DejaVuSans-Oblique-3b7" transform="translate(1154.248047 0.684375)"/>
     <use xlink:href="#DejaVuSans-3d" transform="translate(1217.626953 0.684375)"/>
     <use xlink:href="#DejaVuSans-32" transform="translate(1301.416016 0.684375)"/>
     <use xlink:href="#DejaVuSans-2e" transform="translate(1365.039062 0.684375)"/>
     <use xlink:href="#DejaVuSans-30" transform="translate(1396.826172 0.684375)"/>
     <use xlink:href="#DejaVuSans-20" transform="translate(1460.449219 0.684375)"/>
     <use xlink:href="#DejaVuSans-61" transform="translate(1492.236328 0.684375)"/>
     <use xlink:href="#DejaVuSans-66" transform="translate(1553.515625 0.684375)"/>
     <use xlink:href="#DejaVuSans-74" transform="translate(1588.720703 0.684375)"/>
     <use xlink:href="#DejaVuSans-65" transform="translate(1627.929688 0.684375)"/>
     <use xlink:href="#DejaVuSans-72" transform="translate(1689.453125 0.684375)"/>
     <use xlink:href="#DejaVuSans-20" transform="translate(1730.566406 0.684375)"/>
     <use xlink:href="#DejaVuSans-31" transform="translate(1762.353516 0.684375)"/>
     <use xlink:href="#DejaVuSans-30" transform="translate(1825.976562 0.684375)"/>
     <use xlink:href="#DejaVuSans-35" transform="translate(1890.556641 38.965625) scale(0.7)"/>
     <use xlink:href="#DejaVuSans-20" transform="translate(1937.827148 0.684375)"/>
     <use xlink:href="#DejaVuSans-73" transform="translate(1969.614258 0.684375)"/>
     <use xlink:href="#DejaVuSans-74" transform="translate(2021.713867 0.684375)"/>
     <use xlink:href="#DejaVuSans-65" transform="translate(2060.922852 0.684375)"/>
     <use xlink:href="#DejaVuSans-70" transform="translate(2122.446289 0.684375)"/>
     <use xlink:href="#DejaVuSans-73" transform="translate(2185.922852 0.684375)"/>
     <use xlink:href="#DejaVuSans-2e" transform="translate(2238.022461 0.684375)"/>
    </g>
   </g>
   <g id="legend_1">
    <g id="patch_7">
     <path d="M 57.14375 60.478125 
L 153.898438 60.478125 
Q 155.898438 60.478125 155.898438 58.478125 
L 155.898438 44.8 
Q 155.898438 42.8 153.898438 42.8 
L 57.14375 42.8 
Q 55.14375 42.8 55.14375 44.8 
L 55.14375 58.478125 
Q 55.14375 60.478125 57.14375 60.478125 
z
" style="fill: #ffffff; opacity: 0.8; stroke: #cccccc; stroke-linejoin: miter"/>
    </g>
    <g id="line2d_36">
     <path d="M 59.14375 50.898438 
L 69.14375 50.898438 
L 79.14375 50.898438 
" style="fill: none; stroke: #000000; stroke-width: 1.5; stroke-linecap: square"/>
    </g>
    <g id="text_15">
     <!-- Slope=0.188 -->
     <g transform="translate(87.14375 54.398438) scale(0.1 -0.1)">
      <defs>
       <path id="DejaVuSans-53" d="M 3425 4513 
L 3425 3897 
Q 3066 4069 2747 4153 
Q 2428 4238 2131 4238 
Q 1616 4238 1336 4038 
Q 1056 3838 1056 3469 
Q 1056 3159 1242 3001 
Q 1428 2844 1947 2747 
L 2328 2669 
Q 3034 2534 3370 2195 
Q 3706 1856 3706 1288 
Q 3706 609 3251 259 
Q 2797 -91 1919 -91 
Q 1588 -91 1214 -16 
Q 841 59 441 206 
L 441 856 
Q 825 641 1194 531 
Q 1563 422 1919 422 
Q 2459 422 2753 634 
Q 3047 847 3047 1241 
Q 3047 1584 2836 1778 
Q 2625 1972 2144 2069 
L 1759 2144 
Q 1053 2284 737 2584 
Q 422 2884 422 3419 
Q 422 4038 858 4394 
Q 1294 4750 2059 4750 
Q 2388 4750 2728 4690 
Q 3069 4631 3425 4513 
z
" transform="scale(0.015625)"/>
      </defs>
      <use xlink:href="#DejaVuSans-53"/>
      <use xlink:href="#DejaVuSans-6c" x="63.476562"/>
      <use xlink:href="#DejaVuSans-6f" x="91.259766"/>
      <use xlink:href="#DejaVuSans-70" x="152.441406"/>
      <use xlink:href="#DejaVuSans-65" x="215.917969"/>
      <use xlink:href="#DejaVuSans-3d" x="277.441406"/>
      <use xlink:href="#DejaVuSans-30" x="361.230469"/>
      <use xlink:href="#DejaVuSans-2e" x="424.853516"/>
      <use xlink:href="#DejaVuSans-31" x="456.640625"/>
      <use xlink:href="#DejaVuSans-38" x="520.263672"/>
      <use xlink:href="#DejaVuSans-38" x="583.886719"/>
     </g>
    </g>
   </g>
  </g>
 </g>
 <defs>
  <clipPath id="p70fef61219">
   <rect x="50.14375" y="37.8" width="365.475" height="335.72"/>
  </clipPath>
 </defs>
</svg>
