<?xml version="1.0" encoding="utf-8" standalone="no"?>
<!DOCTYPE svg PUBLIC "-//W3C//DTD SVG 1.1//EN"
  "http://www.w3.org/Graphics/SVG/1.1/DTD/svg11.dtd">
<svg xmlns:xlink="http://www.w3.org/1999/xlink" width="422.81875pt" height="411.098125pt" viewBox="0 0 422.81875 411.098125" xmlns="http://www.w3.org/2000/svg" version="1.1">
 <metadata>
  <rdf:RDF xmlns:dc="http://purl.org/dc/elements/1.1/" xmlns:cc="http://creativecommons.org/ns#" xmlns:rdf="http://www.w3.org/1999/02/22-rdf-syntax-ns#">
   <cc:Work>
    <dc:type rdf:resource="http://purl.org/dc/dcmitype/StillImage"/>
    <dc:date>2025-02-02T20:12:14.419274</dc:date>
    <dc:format>image/svg+xml</dc:format>
    <dc:creator>
     <cc:Agent>
      <dc:title>Matplotlib v3.7.2, https://matplotlib.org/</dc:title>
     </cc:Agent>
    </dc:creator>
   </cc:Work>
  </rdf:RDF>
 </metadata>
 <defs>
  <style type="text/css">*{stroke-linejoin: round; stroke-linecap: butt}</style>
 </defs>
 <g id="figure_1">
  <g id="patch_1">
   <path d="M 0 411.098125 
L 422.81875 411.098125 
L 422.81875 0 
L 0 0 
L 0 411.098125 
z
" style="fill: none"/>
  </g>
  <g id="axes_1">
   <g id="patch_2">
    <path d="M 50.14375 373.52 
L 415.61875 373.52 
L 415.61875 37.8 
L 50.14375 37.8 
z
" style="fill: #ffffff"/>
   </g>
   <g id="matplotlib.axis_1">
    <g id="xtick_1">
     <g id="line2d_1">
      <path d="M 75.027574 373.52 
L 75.027574 37.8 
" clip-path="url(#pee42e8347a)" style="fill: none; stroke: #b0b0b0; stroke-width: 0.8; stroke-linecap: square"/>
     </g>
     <g id="line2d_2">
      <defs>
       <path id="me243ca22e5" d="M 0 0 
L 0 3.5 
" style="stroke: #000000; stroke-width: 0.8"/>
      </defs>
      <g>
       <use xlink:href="#me243ca22e5" x="75.027574" y="373.52" style="stroke: #000000; stroke-width: 0.8"/>
      </g>
     </g>
     <g id="text_1">
      <!-- 0.01 -->
      <g transform="translate(63.894762 388.118437) scale(0.1 -0.1)">
       <defs>
        <path id="DejaVuSans-30" d="M 2034 4250 
Q 1547 4250 1301 3770 
Q 1056 3291 1056 2328 
Q 1056 1369 1301 889 
Q 1547 409 2034 409 
Q 2525 409 2770 889 
Q 3016 1369 3016 2328 
Q 3016 3291 2770 3770 
Q 2525 4250 2034 4250 
z
M 2034 4750 
Q 2819 4750 3233 4129 
Q 3647 3509 3647 2328 
Q 3647 1150 3233 529 
Q 2819 -91 2034 -91 
Q 1250 -91 836 529 
Q 422 1150 422 2328 
Q 422 3509 836 4129 
Q 1250 4750 2034 4750 
z
" transform="scale(0.015625)"/>
        <path id="DejaVuSans-2e" d="M 684 794 
L 1344 794 
L 1344 0 
L 684 0 
L 684 794 
z
" transform="scale(0.015625)"/>
        <path id="DejaVuSans-31" d="M 794 531 
L 1825 531 
L 1825 4091 
L 703 3866 
L 703 4441 
L 1819 4666 
L 2450 4666 
L 2450 531 
L 3481 531 
L 3481 0 
L 794 0 
L 794 531 
z
" transform="scale(0.015625)"/>
       </defs>
       <use xlink:href="#DejaVuSans-30"/>
       <use xlink:href="#DejaVuSans-2e" x="63.623047"/>
       <use xlink:href="#DejaVuSans-30" x="95.410156"/>
       <use xlink:href="#DejaVuSans-31" x="159.033203"/>
      </g>
     </g>
    </g>
    <g id="xtick_2">
     <g id="line2d_3">
      <path d="M 123.791224 373.52 
L 123.791224 37.8 
" clip-path="url(#pee42e8347a)" style="fill: none; stroke: #b0b0b0; stroke-width: 0.8; stroke-linecap: square"/>
     </g>
     <g id="line2d_4">
      <g>
       <use xlink:href="#me243ca22e5" x="123.791224" y="373.52" style="stroke: #000000; stroke-width: 0.8"/>
      </g>
     </g>
     <g id="text_2">
      <!-- 0.02 -->
      <g transform="translate(112.658411 388.118437) scale(0.1 -0.1)">
       <defs>
        <path id="DejaVuSans-32" d="M 1228 531 
L 3431 531 
L 3431 0 
L 469 0 
L 469 531 
Q 828 903 1448 1529 
Q 2069 2156 2228 2338 
Q 2531 2678 2651 2914 
Q 2772 3150 2772 3378 
Q 2772 3750 2511 3984 
Q 2250 4219 1831 4219 
Q 1534 4219 1204 4116 
Q 875 4013 500 3803 
L 500 4441 
Q 881 4594 1212 4672 
Q 1544 4750 1819 4750 
Q 2544 4750 2975 4387 
Q 3406 4025 3406 3419 
Q 3406 3131 3298 2873 
Q 3191 2616 2906 2266 
Q 2828 2175 2409 1742 
Q 1991 1309 1228 531 
z
" transform="scale(0.015625)"/>
       </defs>
       <use xlink:href="#DejaVuSans-30"/>
       <use xlink:href="#DejaVuSans-2e" x="63.623047"/>
       <use xlink:href="#DejaVuSans-30" x="95.410156"/>
       <use xlink:href="#DejaVuSans-32" x="159.033203"/>
      </g>
     </g>
    </g>
    <g id="xtick_3">
     <g id="line2d_5">
      <path d="M 152.31613 373.52 
L 152.31613 37.8 
" clip-path="url(#pee42e8347a)" style="fill: none; stroke: #b0b0b0; stroke-width: 0.8; stroke-linecap: square"/>
     </g>
     <g id="line2d_6">
      <g>
       <use xlink:href="#me243ca22e5" x="152.31613" y="373.52" style="stroke: #000000; stroke-width: 0.8"/>
      </g>
     </g>
     <g id="text_3">
      <!-- 0.03 -->
      <g transform="translate(141.183318 388.118437) scale(0.1 -0.1)">
       <defs>
        <path id="DejaVuSans-33" d="M 2597 2516 
Q 3050 2419 3304 2112 
Q 3559 1806 3559 1356 
Q 3559 666 3084 287 
Q 2609 -91 1734 -91 
Q 1441 -91 1130 -33 
Q 819 25 488 141 
L 488 750 
Q 750 597 1062 519 
Q 1375 441 1716 441 
Q 2309 441 2620 675 
Q 2931 909 2931 1356 
Q 2931 1769 2642 2001 
Q 2353 2234 1838 2234 
L 1294 2234 
L 1294 2753 
L 1863 2753 
Q 2328 2753 2575 2939 
Q 2822 3125 2822 3475 
Q 2822 3834 2567 4026 
Q 2313 4219 1838 4219 
Q 1578 4219 1281 4162 
Q 984 4106 628 3988 
L 628 4550 
Q 988 4650 1302 4700 
Q 1616 4750 1894 4750 
Q 2613 4750 3031 4423 
Q 3450 4097 3450 3541 
Q 3450 3153 3228 2886 
Q 3006 2619 2597 2516 
z
" transform="scale(0.015625)"/>
       </defs>
       <use xlink:href="#DejaVuSans-30"/>
       <use xlink:href="#DejaVuSans-2e" x="63.623047"/>
       <use xlink:href="#DejaVuSans-30" x="95.410156"/>
       <use xlink:href="#DejaVuSans-33" x="159.033203"/>
      </g>
     </g>
    </g>
    <g id="xtick_4">
     <g id="line2d_7">
      <path d="M 237.016912 373.52 
L 237.016912 37.8 
" clip-path="url(#pee42e8347a)" style="fill: none; stroke: #b0b0b0; stroke-width: 0.8; stroke-linecap: square"/>
     </g>
     <g id="line2d_8">
      <g>
       <use xlink:href="#me243ca22e5" x="237.016912" y="373.52" style="stroke: #000000; stroke-width: 0.8"/>
      </g>
     </g>
     <g id="text_4">
      <!-- 0.10 -->
      <g transform="translate(225.8841 388.118437) scale(0.1 -0.1)">
       <use xlink:href="#DejaVuSans-30"/>
       <use xlink:href="#DejaVuSans-2e" x="63.623047"/>
       <use xlink:href="#DejaVuSans-31" x="95.410156"/>
       <use xlink:href="#DejaVuSans-30" x="159.033203"/>
      </g>
     </g>
    </g>
    <g id="xtick_5">
     <g id="line2d_9">
      <path d="M 285.780562 373.52 
L 285.780562 37.8 
" clip-path="url(#pee42e8347a)" style="fill: none; stroke: #b0b0b0; stroke-width: 0.8; stroke-linecap: square"/>
     </g>
     <g id="line2d_10">
      <g>
       <use xlink:href="#me243ca22e5" x="285.780562" y="373.52" style="stroke: #000000; stroke-width: 0.8"/>
      </g>
     </g>
     <g id="text_5">
      <!-- 0.20 -->
      <g transform="translate(274.647749 388.118437) scale(0.1 -0.1)">
       <use xlink:href="#DejaVuSans-30"/>
       <use xlink:href="#DejaVuSans-2e" x="63.623047"/>
       <use xlink:href="#DejaVuSans-32" x="95.410156"/>
       <use xlink:href="#DejaVuSans-30" x="159.033203"/>
      </g>
     </g>
    </g>
    <g id="xtick_6">
     <g id="line2d_11">
      <path d="M 314.305468 373.52 
L 314.305468 37.8 
" clip-path="url(#pee42e8347a)" style="fill: none; stroke: #b0b0b0; stroke-width: 0.8; stroke-linecap: square"/>
     </g>
     <g id="line2d_12">
      <g>
       <use xlink:href="#me243ca22e5" x="314.305468" y="373.52" style="stroke: #000000; stroke-width: 0.8"/>
      </g>
     </g>
     <g id="text_6">
      <!-- 0.30 -->
      <g transform="translate(303.172656 388.118437) scale(0.1 -0.1)">
       <use xlink:href="#DejaVuSans-30"/>
       <use xlink:href="#DejaVuSans-2e" x="63.623047"/>
       <use xlink:href="#DejaVuSans-33" x="95.410156"/>
       <use xlink:href="#DejaVuSans-30" x="159.033203"/>
      </g>
     </g>
    </g>
    <g id="xtick_7">
     <g id="line2d_13">
      <path d="M 399.00625 373.52 
L 399.00625 37.8 
" clip-path="url(#pee42e8347a)" style="fill: none; stroke: #b0b0b0; stroke-width: 0.8; stroke-linecap: square"/>
     </g>
     <g id="line2d_14">
      <g>
       <use xlink:href="#me243ca22e5" x="399.00625" y="373.52" style="stroke: #000000; stroke-width: 0.8"/>
      </g>
     </g>
     <g id="text_7">
      <!-- 1.00 -->
      <g transform="translate(387.873438 388.118437) scale(0.1 -0.1)">
       <use xlink:href="#DejaVuSans-31"/>
       <use xlink:href="#DejaVuSans-2e" x="63.623047"/>
       <use xlink:href="#DejaVuSans-30" x="95.410156"/>
       <use xlink:href="#DejaVuSans-30" x="159.033203"/>
      </g>
     </g>
    </g>
    <g id="xtick_8">
     <g id="line2d_15">
      <defs>
       <path id="m02b3176697" d="M 0 0 
L 0 2 
" style="stroke: #000000; stroke-width: 0.6"/>
      </defs>
      <g>
       <use xlink:href="#m02b3176697" x="59.329185" y="373.52" style="stroke: #000000; stroke-width: 0.6"/>
      </g>
     </g>
    </g>
    <g id="xtick_9">
     <g id="line2d_16">
      <g>
       <use xlink:href="#m02b3176697" x="67.615349" y="373.52" style="stroke: #000000; stroke-width: 0.6"/>
      </g>
     </g>
    </g>
    <g id="xtick_10">
     <g id="line2d_17">
      <g>
       <use xlink:href="#m02b3176697" x="172.554874" y="373.52" style="stroke: #000000; stroke-width: 0.6"/>
      </g>
     </g>
    </g>
    <g id="xtick_11">
     <g id="line2d_18">
      <g>
       <use xlink:href="#m02b3176697" x="188.253262" y="373.52" style="stroke: #000000; stroke-width: 0.6"/>
      </g>
     </g>
    </g>
    <g id="xtick_12">
     <g id="line2d_19">
      <g>
       <use xlink:href="#m02b3176697" x="201.07978" y="373.52" style="stroke: #000000; stroke-width: 0.6"/>
      </g>
     </g>
    </g>
    <g id="xtick_13">
     <g id="line2d_20">
      <g>
       <use xlink:href="#m02b3176697" x="211.924446" y="373.52" style="stroke: #000000; stroke-width: 0.6"/>
      </g>
     </g>
    </g>
    <g id="xtick_14">
     <g id="line2d_21">
      <g>
       <use xlink:href="#m02b3176697" x="221.318523" y="373.52" style="stroke: #000000; stroke-width: 0.6"/>
      </g>
     </g>
    </g>
    <g id="xtick_15">
     <g id="line2d_22">
      <g>
       <use xlink:href="#m02b3176697" x="229.604687" y="373.52" style="stroke: #000000; stroke-width: 0.6"/>
      </g>
     </g>
    </g>
    <g id="xtick_16">
     <g id="line2d_23">
      <g>
       <use xlink:href="#m02b3176697" x="334.544211" y="373.52" style="stroke: #000000; stroke-width: 0.6"/>
      </g>
     </g>
    </g>
    <g id="xtick_17">
     <g id="line2d_24">
      <g>
       <use xlink:href="#m02b3176697" x="350.2426" y="373.52" style="stroke: #000000; stroke-width: 0.6"/>
      </g>
     </g>
    </g>
    <g id="xtick_18">
     <g id="line2d_25">
      <g>
       <use xlink:href="#m02b3176697" x="363.069118" y="373.52" style="stroke: #000000; stroke-width: 0.6"/>
      </g>
     </g>
    </g>
    <g id="xtick_19">
     <g id="line2d_26">
      <g>
       <use xlink:href="#m02b3176697" x="373.913784" y="373.52" style="stroke: #000000; stroke-width: 0.6"/>
      </g>
     </g>
    </g>
    <g id="xtick_20">
     <g id="line2d_27">
      <g>
       <use xlink:href="#m02b3176697" x="383.307861" y="373.52" style="stroke: #000000; stroke-width: 0.6"/>
      </g>
     </g>
    </g>
    <g id="xtick_21">
     <g id="line2d_28">
      <g>
       <use xlink:href="#m02b3176697" x="391.594024" y="373.52" style="stroke: #000000; stroke-width: 0.6"/>
      </g>
     </g>
    </g>
    <g id="text_8">
     <!-- $(\eta_c(L) - \eta)/\eta_c(L)$ -->
     <g transform="translate(194.13125 401.798125) scale(0.1 -0.1)">
      <defs>
       <path id="DejaVuSans-28" d="M 1984 4856 
Q 1566 4138 1362 3434 
Q 1159 2731 1159 2009 
Q 1159 1288 1364 580 
Q 1569 -128 1984 -844 
L 1484 -844 
Q 1016 -109 783 600 
Q 550 1309 550 2009 
Q 550 2706 781 3412 
Q 1013 4119 1484 4856 
L 1984 4856 
z
" transform="scale(0.015625)"/>
       <path id="DejaVuSans-Oblique-3b7" d="M 3703 2113 
L 3034 -1331 
L 2459 -1331 
L 3125 2094 
Q 3222 2591 3075 2838 
Q 2931 3084 2544 3084 
Q 2078 3084 1750 2788 
Q 1425 2491 1325 1978 
L 941 0 
L 363 0 
L 1044 3500 
L 1622 3500 
L 1516 2956 
Q 1781 3272 2094 3428 
Q 2403 3584 2769 3584 
Q 3372 3584 3609 3213 
Q 3844 2838 3703 2113 
z
" transform="scale(0.015625)"/>
       <path id="DejaVuSans-Oblique-63" d="M 3431 3366 
L 3316 2797 
Q 3109 2947 2876 3022 
Q 2644 3097 2394 3097 
Q 2119 3097 1870 3000 
Q 1622 2903 1453 2725 
Q 1184 2453 1037 2087 
Q 891 1722 891 1331 
Q 891 859 1127 628 
Q 1363 397 1844 397 
Q 2081 397 2348 469 
Q 2616 541 2906 684 
L 2797 116 
Q 2547 13 2283 -39 
Q 2019 -91 1741 -91 
Q 1044 -91 669 257 
Q 294 606 294 1253 
Q 294 1797 489 2255 
Q 684 2713 1069 3078 
Q 1331 3328 1684 3456 
Q 2038 3584 2456 3584 
Q 2700 3584 2940 3529 
Q 3181 3475 3431 3366 
z
" transform="scale(0.015625)"/>
       <path id="DejaVuSans-Oblique-4c" d="M 1075 4666 
L 1709 4666 
L 909 525 
L 3181 525 
L 3078 0 
L 172 0 
L 1075 4666 
z
" transform="scale(0.015625)"/>
       <path id="DejaVuSans-29" d="M 513 4856 
L 1013 4856 
Q 1481 4119 1714 3412 
Q 1947 2706 1947 2009 
Q 1947 1309 1714 600 
Q 1481 -109 1013 -844 
L 513 -844 
Q 928 -128 1133 580 
Q 1338 1288 1338 2009 
Q 1338 2731 1133 3434 
Q 928 4138 513 4856 
z
" transform="scale(0.015625)"/>
       <path id="DejaVuSans-2212" d="M 678 2272 
L 4684 2272 
L 4684 1741 
L 678 1741 
L 678 2272 
z
" transform="scale(0.015625)"/>
       <path id="DejaVuSans-2f" d="M 1625 4666 
L 2156 4666 
L 531 -594 
L 0 -594 
L 1625 4666 
z
" transform="scale(0.015625)"/>
      </defs>
      <use xlink:href="#DejaVuSans-28" transform="translate(0 0.125)"/>
      <use xlink:href="#DejaVuSans-Oblique-3b7" transform="translate(39.013672 0.125)"/>
      <use xlink:href="#DejaVuSans-Oblique-63" transform="translate(102.392578 -16.28125) scale(0.7)"/>
      <use xlink:href="#DejaVuSans-28" transform="translate(143.613281 0.125)"/>
      <use xlink:href="#DejaVuSans-Oblique-4c" transform="translate(182.626953 0.125)"/>
      <use xlink:href="#DejaVuSans-29" transform="translate(238.339844 0.125)"/>
      <use xlink:href="#DejaVuSans-2212" transform="translate(296.835938 0.125)"/>
      <use xlink:href="#DejaVuSans-Oblique-3b7" transform="translate(400.107422 0.125)"/>
      <use xlink:href="#DejaVuSans-29" transform="translate(463.486328 0.125)"/>
      <use xlink:href="#DejaVuSans-2f" transform="translate(502.5 0.125)"/>
      <use xlink:href="#DejaVuSans-Oblique-3b7" transform="translate(536.191406 0.125)"/>
      <use xlink:href="#DejaVuSans-Oblique-63" transform="translate(599.570312 -16.28125) scale(0.7)"/>
      <use xlink:href="#DejaVuSans-28" transform="translate(640.791016 0.125)"/>
      <use xlink:href="#DejaVuSans-Oblique-4c" transform="translate(679.804688 0.125)"/>
      <use xlink:href="#DejaVuSans-29" transform="translate(735.517578 0.125)"/>
     </g>
    </g>
   </g>
   <g id="matplotlib.axis_2">
    <g id="ytick_1">
     <g id="line2d_29">
      <path d="M 50.14375 304.638246 
L 415.61875 304.638246 
" clip-path="url(#pee42e8347a)" style="fill: none; stroke: #b0b0b0; stroke-width: 0.8; stroke-linecap: square"/>
     </g>
     <g id="line2d_30">
      <defs>
       <path id="mb6cf4f6232" d="M 0 0 
L -3.5 0 
" style="stroke: #000000; stroke-width: 0.8"/>
      </defs>
      <g>
       <use xlink:href="#mb6cf4f6232" x="50.14375" y="304.638246" style="stroke: #000000; stroke-width: 0.8"/>
      </g>
     </g>
     <g id="text_9">
      <!-- 0.50 -->
      <g transform="translate(20.878125 308.437465) scale(0.1 -0.1)">
       <defs>
        <path id="DejaVuSans-35" d="M 691 4666 
L 3169 4666 
L 3169 4134 
L 1269 4134 
L 1269 2991 
Q 1406 3038 1543 3061 
Q 1681 3084 1819 3084 
Q 2600 3084 3056 2656 
Q 3513 2228 3513 1497 
Q 3513 744 3044 326 
Q 2575 -91 1722 -91 
Q 1428 -91 1123 -41 
Q 819 9 494 109 
L 494 744 
Q 775 591 1075 516 
Q 1375 441 1709 441 
Q 2250 441 2565 725 
Q 2881 1009 2881 1497 
Q 2881 1984 2565 2268 
Q 2250 2553 1709 2553 
Q 1456 2553 1204 2497 
Q 953 2441 691 2322 
L 691 4666 
z
" transform="scale(0.015625)"/>
       </defs>
       <use xlink:href="#DejaVuSans-30"/>
       <use xlink:href="#DejaVuSans-2e" x="63.623047"/>
       <use xlink:href="#DejaVuSans-35" x="95.410156"/>
       <use xlink:href="#DejaVuSans-30" x="159.033203"/>
      </g>
     </g>
    </g>
    <g id="ytick_2">
     <g id="line2d_31">
      <path d="M 50.14375 238.462321 
L 415.61875 238.462321 
" clip-path="url(#pee42e8347a)" style="fill: none; stroke: #b0b0b0; stroke-width: 0.8; stroke-linecap: square"/>
     </g>
     <g id="line2d_32">
      <g>
       <use xlink:href="#mb6cf4f6232" x="50.14375" y="238.462321" style="stroke: #000000; stroke-width: 0.8"/>
      </g>
     </g>
     <g id="text_10">
      <!-- 0.60 -->
      <g transform="translate(20.878125 242.26154) scale(0.1 -0.1)">
       <defs>
        <path id="DejaVuSans-36" d="M 2113 2584 
Q 1688 2584 1439 2293 
Q 1191 2003 1191 1497 
Q 1191 994 1439 701 
Q 1688 409 2113 409 
Q 2538 409 2786 701 
Q 3034 994 3034 1497 
Q 3034 2003 2786 2293 
Q 2538 2584 2113 2584 
z
M 3366 4563 
L 3366 3988 
Q 3128 4100 2886 4159 
Q 2644 4219 2406 4219 
Q 1781 4219 1451 3797 
Q 1122 3375 1075 2522 
Q 1259 2794 1537 2939 
Q 1816 3084 2150 3084 
Q 2853 3084 3261 2657 
Q 3669 2231 3669 1497 
Q 3669 778 3244 343 
Q 2819 -91 2113 -91 
Q 1303 -91 875 529 
Q 447 1150 447 2328 
Q 447 3434 972 4092 
Q 1497 4750 2381 4750 
Q 2619 4750 2861 4703 
Q 3103 4656 3366 4563 
z
" transform="scale(0.015625)"/>
       </defs>
       <use xlink:href="#DejaVuSans-30"/>
       <use xlink:href="#DejaVuSans-2e" x="63.623047"/>
       <use xlink:href="#DejaVuSans-36" x="95.410156"/>
       <use xlink:href="#DejaVuSans-30" x="159.033203"/>
      </g>
     </g>
    </g>
    <g id="ytick_3">
     <g id="line2d_33">
      <path d="M 50.14375 182.511373 
L 415.61875 182.511373 
" clip-path="url(#pee42e8347a)" style="fill: none; stroke: #b0b0b0; stroke-width: 0.8; stroke-linecap: square"/>
     </g>
     <g id="line2d_34">
      <g>
       <use xlink:href="#mb6cf4f6232" x="50.14375" y="182.511373" style="stroke: #000000; stroke-width: 0.8"/>
      </g>
     </g>
     <g id="text_11">
      <!-- 0.70 -->
      <g transform="translate(20.878125 186.310592) scale(0.1 -0.1)">
       <defs>
        <path id="DejaVuSans-37" d="M 525 4666 
L 3525 4666 
L 3525 4397 
L 1831 0 
L 1172 0 
L 2766 4134 
L 525 4134 
L 525 4666 
z
" transform="scale(0.015625)"/>
       </defs>
       <use xlink:href="#DejaVuSans-30"/>
       <use xlink:href="#DejaVuSans-2e" x="63.623047"/>
       <use xlink:href="#DejaVuSans-37" x="95.410156"/>
       <use xlink:href="#DejaVuSans-30" x="159.033203"/>
      </g>
     </g>
    </g>
    <g id="ytick_4">
     <g id="line2d_35">
      <path d="M 50.14375 134.044458 
L 415.61875 134.044458 
" clip-path="url(#pee42e8347a)" style="fill: none; stroke: #b0b0b0; stroke-width: 0.8; stroke-linecap: square"/>
     </g>
     <g id="line2d_36">
      <g>
       <use xlink:href="#mb6cf4f6232" x="50.14375" y="134.044458" style="stroke: #000000; stroke-width: 0.8"/>
      </g>
     </g>
     <g id="text_12">
      <!-- 0.80 -->
      <g transform="translate(20.878125 137.843676) scale(0.1 -0.1)">
       <defs>
        <path id="DejaVuSans-38" d="M 2034 2216 
Q 1584 2216 1326 1975 
Q 1069 1734 1069 1313 
Q 1069 891 1326 650 
Q 1584 409 2034 409 
Q 2484 409 2743 651 
Q 3003 894 3003 1313 
Q 3003 1734 2745 1975 
Q 2488 2216 2034 2216 
z
M 1403 2484 
Q 997 2584 770 2862 
Q 544 3141 544 3541 
Q 544 4100 942 4425 
Q 1341 4750 2034 4750 
Q 2731 4750 3128 4425 
Q 3525 4100 3525 3541 
Q 3525 3141 3298 2862 
Q 3072 2584 2669 2484 
Q 3125 2378 3379 2068 
Q 3634 1759 3634 1313 
Q 3634 634 3220 271 
Q 2806 -91 2034 -91 
Q 1263 -91 848 271 
Q 434 634 434 1313 
Q 434 1759 690 2068 
Q 947 2378 1403 2484 
z
M 1172 3481 
Q 1172 3119 1398 2916 
Q 1625 2713 2034 2713 
Q 2441 2713 2670 2916 
Q 2900 3119 2900 3481 
Q 2900 3844 2670 4047 
Q 2441 4250 2034 4250 
Q 1625 4250 1398 4047 
Q 1172 3844 1172 3481 
z
" transform="scale(0.015625)"/>
       </defs>
       <use xlink:href="#DejaVuSans-30"/>
       <use xlink:href="#DejaVuSans-2e" x="63.623047"/>
       <use xlink:href="#DejaVuSans-38" x="95.410156"/>
       <use xlink:href="#DejaVuSans-30" x="159.033203"/>
      </g>
     </g>
    </g>
    <g id="ytick_5">
     <g id="line2d_37">
      <path d="M 50.14375 91.293608 
L 415.61875 91.293608 
" clip-path="url(#pee42e8347a)" style="fill: none; stroke: #b0b0b0; stroke-width: 0.8; stroke-linecap: square"/>
     </g>
     <g id="line2d_38">
      <g>
       <use xlink:href="#mb6cf4f6232" x="50.14375" y="91.293608" style="stroke: #000000; stroke-width: 0.8"/>
      </g>
     </g>
     <g id="text_13">
      <!-- 0.90 -->
      <g transform="translate(20.878125 95.092827) scale(0.1 -0.1)">
       <defs>
        <path id="DejaVuSans-39" d="M 703 97 
L 703 672 
Q 941 559 1184 500 
Q 1428 441 1663 441 
Q 2288 441 2617 861 
Q 2947 1281 2994 2138 
Q 2813 1869 2534 1725 
Q 2256 1581 1919 1581 
Q 1219 1581 811 2004 
Q 403 2428 403 3163 
Q 403 3881 828 4315 
Q 1253 4750 1959 4750 
Q 2769 4750 3195 4129 
Q 3622 3509 3622 2328 
Q 3622 1225 3098 567 
Q 2575 -91 1691 -91 
Q 1453 -91 1209 -44 
Q 966 3 703 97 
z
M 1959 2075 
Q 2384 2075 2632 2365 
Q 2881 2656 2881 3163 
Q 2881 3666 2632 3958 
Q 2384 4250 1959 4250 
Q 1534 4250 1286 3958 
Q 1038 3666 1038 3163 
Q 1038 2656 1286 2365 
Q 1534 2075 1959 2075 
z
" transform="scale(0.015625)"/>
       </defs>
       <use xlink:href="#DejaVuSans-30"/>
       <use xlink:href="#DejaVuSans-2e" x="63.623047"/>
       <use xlink:href="#DejaVuSans-39" x="95.410156"/>
       <use xlink:href="#DejaVuSans-30" x="159.033203"/>
      </g>
     </g>
    </g>
    <g id="ytick_6">
     <g id="line2d_39">
      <path d="M 50.14375 53.051671 
L 415.61875 53.051671 
" clip-path="url(#pee42e8347a)" style="fill: none; stroke: #b0b0b0; stroke-width: 0.8; stroke-linecap: square"/>
     </g>
     <g id="line2d_40">
      <g>
       <use xlink:href="#mb6cf4f6232" x="50.14375" y="53.051671" style="stroke: #000000; stroke-width: 0.8"/>
      </g>
     </g>
     <g id="text_14">
      <!-- 1.00 -->
      <g transform="translate(20.878125 56.850889) scale(0.1 -0.1)">
       <use xlink:href="#DejaVuSans-31"/>
       <use xlink:href="#DejaVuSans-2e" x="63.623047"/>
       <use xlink:href="#DejaVuSans-30" x="95.410156"/>
       <use xlink:href="#DejaVuSans-30" x="159.033203"/>
      </g>
     </g>
    </g>
    <g id="text_15">
     <!-- v$_a$ -->
     <g transform="translate(14.798438 210.96) rotate(-90) scale(0.1 -0.1)">
      <defs>
       <path id="DejaVuSans-76" d="M 191 3500 
L 800 3500 
L 1894 563 
L 2988 3500 
L 3597 3500 
L 2284 0 
L 1503 0 
L 191 3500 
z
" transform="scale(0.015625)"/>
       <path id="DejaVuSans-Oblique-61" d="M 3438 1997 
L 3047 0 
L 2472 0 
L 2578 531 
Q 2325 219 2001 64 
Q 1678 -91 1281 -91 
Q 834 -91 548 182 
Q 263 456 263 884 
Q 263 1497 752 1853 
Q 1241 2209 2100 2209 
L 2900 2209 
L 2931 2363 
Q 2938 2388 2941 2417 
Q 2944 2447 2944 2509 
Q 2944 2788 2717 2942 
Q 2491 3097 2081 3097 
Q 1800 3097 1504 3025 
Q 1209 2953 897 2809 
L 997 3341 
Q 1322 3463 1633 3523 
Q 1944 3584 2234 3584 
Q 2853 3584 3176 3315 
Q 3500 3047 3500 2534 
Q 3500 2431 3484 2292 
Q 3469 2153 3438 1997 
z
M 2816 1759 
L 2241 1759 
Q 1534 1759 1195 1570 
Q 856 1381 856 984 
Q 856 709 1029 553 
Q 1203 397 1509 397 
Q 1978 397 2328 733 
Q 2678 1069 2791 1631 
L 2816 1759 
z
" transform="scale(0.015625)"/>
      </defs>
      <use xlink:href="#DejaVuSans-76" transform="translate(0 0.3125)"/>
      <use xlink:href="#DejaVuSans-Oblique-61" transform="translate(60.136719 -16.09375) scale(0.7)"/>
     </g>
    </g>
   </g>
   <g id="line2d_41">
    <defs>
     <path id="m3dd43f832e" d="M -3 3 
L 3 3 
L 3 -3 
L -3 -3 
z
" style="stroke: #0f3c92; stroke-linejoin: miter"/>
    </defs>
    <g clip-path="url(#pee42e8347a)">
     <use xlink:href="#m3dd43f832e" x="399.00625" y="53.06" style="fill: #0f3c92; stroke: #0f3c92; stroke-linejoin: miter"/>
     <use xlink:href="#m3dd43f832e" x="397.060058" y="53.220912" style="fill: #0f3c92; stroke: #0f3c92; stroke-linejoin: miter"/>
     <use xlink:href="#m3dd43f832e" x="395.05849" y="53.693932" style="fill: #0f3c92; stroke: #0f3c92; stroke-linejoin: miter"/>
     <use xlink:href="#m3dd43f832e" x="392.998304" y="54.500832" style="fill: #0f3c92; stroke: #0f3c92; stroke-linejoin: miter"/>
     <use xlink:href="#m3dd43f832e" x="390.875962" y="55.610026" style="fill: #0f3c92; stroke: #0f3c92; stroke-linejoin: miter"/>
     <use xlink:href="#m3dd43f832e" x="388.687596" y="57.041503" style="fill: #0f3c92; stroke: #0f3c92; stroke-linejoin: miter"/>
     <use xlink:href="#m3dd43f832e" x="386.428967" y="58.801408" style="fill: #0f3c92; stroke: #0f3c92; stroke-linejoin: miter"/>
     <use xlink:href="#m3dd43f832e" x="384.095412" y="60.899688" style="fill: #0f3c92; stroke: #0f3c92; stroke-linejoin: miter"/>
     <use xlink:href="#m3dd43f832e" x="381.68179" y="63.301866" style="fill: #0f3c92; stroke: #0f3c92; stroke-linejoin: miter"/>
     <use xlink:href="#m3dd43f832e" x="379.182409" y="65.995931" style="fill: #0f3c92; stroke: #0f3c92; stroke-linejoin: miter"/>
     <use xlink:href="#m3dd43f832e" x="376.590951" y="69.130002" style="fill: #0f3c92; stroke: #0f3c92; stroke-linejoin: miter"/>
     <use xlink:href="#m3dd43f832e" x="373.90037" y="72.522849" style="fill: #0f3c92; stroke: #0f3c92; stroke-linejoin: miter"/>
     <use xlink:href="#m3dd43f832e" x="371.102782" y="76.245363" style="fill: #0f3c92; stroke: #0f3c92; stroke-linejoin: miter"/>
     <use xlink:href="#m3dd43f832e" x="368.189322" y="80.419575" style="fill: #0f3c92; stroke: #0f3c92; stroke-linejoin: miter"/>
     <use xlink:href="#m3dd43f832e" x="365.149973" y="84.834023" style="fill: #0f3c92; stroke: #0f3c92; stroke-linejoin: miter"/>
     <use xlink:href="#m3dd43f832e" x="361.973365" y="89.634678" style="fill: #0f3c92; stroke: #0f3c92; stroke-linejoin: miter"/>
     <use xlink:href="#m3dd43f832e" x="358.64651" y="94.801734" style="fill: #0f3c92; stroke: #0f3c92; stroke-linejoin: miter"/>
     <use xlink:href="#m3dd43f832e" x="355.154488" y="100.400151" style="fill: #0f3c92; stroke: #0f3c92; stroke-linejoin: miter"/>
     <use xlink:href="#m3dd43f832e" x="351.480037" y="106.19285" style="fill: #0f3c92; stroke: #0f3c92; stroke-linejoin: miter"/>
     <use xlink:href="#m3dd43f832e" x="347.603041" y="112.634509" style="fill: #0f3c92; stroke: #0f3c92; stroke-linejoin: miter"/>
     <use xlink:href="#m3dd43f832e" x="343.499861" y="119.198997" style="fill: #0f3c92; stroke: #0f3c92; stroke-linejoin: miter"/>
     <use xlink:href="#m3dd43f832e" x="339.142463" y="126.203373" style="fill: #0f3c92; stroke: #0f3c92; stroke-linejoin: miter"/>
     <use xlink:href="#m3dd43f832e" x="334.497252" y="133.704791" style="fill: #0f3c92; stroke: #0f3c92; stroke-linejoin: miter"/>
     <use xlink:href="#m3dd43f832e" x="329.523501" y="141.877602" style="fill: #0f3c92; stroke: #0f3c92; stroke-linejoin: miter"/>
     <use xlink:href="#m3dd43f832e" x="324.171177" y="150.042218" style="fill: #0f3c92; stroke: #0f3c92; stroke-linejoin: miter"/>
     <use xlink:href="#m3dd43f832e" x="318.377866" y="159.090352" style="fill: #0f3c92; stroke: #0f3c92; stroke-linejoin: miter"/>
     <use xlink:href="#m3dd43f832e" x="312.064324" y="168.204499" style="fill: #0f3c92; stroke: #0f3c92; stroke-linejoin: miter"/>
     <use xlink:href="#m3dd43f832e" x="305.127817" y="178.042232" style="fill: #0f3c92; stroke: #0f3c92; stroke-linejoin: miter"/>
     <use xlink:href="#m3dd43f832e" x="297.431813" y="188.31374" style="fill: #0f3c92; stroke: #0f3c92; stroke-linejoin: miter"/>
     <use xlink:href="#m3dd43f832e" x="288.789311" y="199.019324" style="fill: #0f3c92; stroke: #0f3c92; stroke-linejoin: miter"/>
     <use xlink:href="#m3dd43f832e" x="278.934415" y="210.368548" style="fill: #0f3c92; stroke: #0f3c92; stroke-linejoin: miter"/>
     <use xlink:href="#m3dd43f832e" x="267.47059" y="222.357514" style="fill: #0f3c92; stroke: #0f3c92; stroke-linejoin: miter"/>
     <use xlink:href="#m3dd43f832e" x="253.767993" y="235.422584" style="fill: #0f3c92; stroke: #0f3c92; stroke-linejoin: miter"/>
     <use xlink:href="#m3dd43f832e" x="236.734683" y="248.503701" style="fill: #0f3c92; stroke: #0f3c92; stroke-linejoin: miter"/>
     <use xlink:href="#m3dd43f832e" x="214.213189" y="263.074664" style="fill: #0f3c92; stroke: #0f3c92; stroke-linejoin: miter"/>
     <use xlink:href="#m3dd43f832e" x="180.887783" y="278.200207" style="fill: #0f3c92; stroke: #0f3c92; stroke-linejoin: miter"/>
     <use xlink:href="#m3dd43f832e" x="115.375435" y="293.561474" style="fill: #0f3c92; stroke: #0f3c92; stroke-linejoin: miter"/>
    </g>
   </g>
   <g id="line2d_42">
    <defs>
     <path id="md653d8c335" d="M -3 0 
L 3 0 
M 0 3 
L 0 -3 
" style="stroke: #0a8e78"/>
    </defs>
    <g clip-path="url(#pee42e8347a)">
     <use xlink:href="#md653d8c335" x="399.00625" y="53.07151" style="fill: #0a8e78; stroke: #0a8e78"/>
     <use xlink:href="#md653d8c335" x="396.926115" y="53.264831" style="fill: #0a8e78; stroke: #0a8e78"/>
     <use xlink:href="#md653d8c335" x="394.782596" y="53.766435" style="fill: #0a8e78; stroke: #0a8e78"/>
     <use xlink:href="#md653d8c335" x="392.571708" y="54.688048" style="fill: #0a8e78; stroke: #0a8e78"/>
     <use xlink:href="#md653d8c335" x="390.289079" y="55.912036" style="fill: #0a8e78; stroke: #0a8e78"/>
     <use xlink:href="#md653d8c335" x="387.929897" y="57.457773" style="fill: #0a8e78; stroke: #0a8e78"/>
     <use xlink:href="#md653d8c335" x="385.488847" y="59.425112" style="fill: #0a8e78; stroke: #0a8e78"/>
     <use xlink:href="#md653d8c335" x="382.960044" y="61.764775" style="fill: #0a8e78; stroke: #0a8e78"/>
     <use xlink:href="#md653d8c335" x="380.336941" y="64.413348" style="fill: #0a8e78; stroke: #0a8e78"/>
     <use xlink:href="#md653d8c335" x="377.612233" y="67.538678" style="fill: #0a8e78; stroke: #0a8e78"/>
     <use xlink:href="#md653d8c335" x="374.77773" y="70.872641" style="fill: #0a8e78; stroke: #0a8e78"/>
     <use xlink:href="#md653d8c335" x="371.824211" y="74.658584" style="fill: #0a8e78; stroke: #0a8e78"/>
     <use xlink:href="#md653d8c335" x="368.74124" y="78.801082" style="fill: #0a8e78; stroke: #0a8e78"/>
     <use xlink:href="#md653d8c335" x="365.516949" y="83.427112" style="fill: #0a8e78; stroke: #0a8e78"/>
     <use xlink:href="#md653d8c335" x="362.137756" y="88.397128" style="fill: #0a8e78; stroke: #0a8e78"/>
     <use xlink:href="#md653d8c335" x="358.588024" y="93.961529" style="fill: #0a8e78; stroke: #0a8e78"/>
     <use xlink:href="#md653d8c335" x="354.849619" y="99.610425" style="fill: #0a8e78; stroke: #0a8e78"/>
     <use xlink:href="#md653d8c335" x="350.901354" y="105.821168" style="fill: #0a8e78; stroke: #0a8e78"/>
     <use xlink:href="#md653d8c335" x="346.718259" y="112.38073" style="fill: #0a8e78; stroke: #0a8e78"/>
     <use xlink:href="#md653d8c335" x="342.270623" y="119.126864" style="fill: #0a8e78; stroke: #0a8e78"/>
     <use xlink:href="#md653d8c335" x="337.522715" y="127.132022" style="fill: #0a8e78; stroke: #0a8e78"/>
     <use xlink:href="#md653d8c335" x="332.431036" y="134.919666" style="fill: #0a8e78; stroke: #0a8e78"/>
     <use xlink:href="#md653d8c335" x="326.941892" y="143.397877" style="fill: #0a8e78; stroke: #0a8e78"/>
     <use xlink:href="#md653d8c335" x="320.987934" y="152.71619" style="fill: #0a8e78; stroke: #0a8e78"/>
     <use xlink:href="#md653d8c335" x="314.4831" y="162.098106" style="fill: #0a8e78; stroke: #0a8e78"/>
     <use xlink:href="#md653d8c335" x="307.314961" y="172.483006" style="fill: #0a8e78; stroke: #0a8e78"/>
     <use xlink:href="#md653d8c335" x="299.33272" y="183.554226" style="fill: #0a8e78; stroke: #0a8e78"/>
     <use xlink:href="#md653d8c335" x="290.327481" y="194.543526" style="fill: #0a8e78; stroke: #0a8e78"/>
     <use xlink:href="#md653d8c335" x="279.997944" y="206.405305" style="fill: #0a8e78; stroke: #0a8e78"/>
     <use xlink:href="#md653d8c335" x="267.88633" y="219.269356" style="fill: #0a8e78; stroke: #0a8e78"/>
     <use xlink:href="#md653d8c335" x="253.246856" y="232.958946" style="fill: #0a8e78; stroke: #0a8e78"/>
     <use xlink:href="#md653d8c335" x="234.738304" y="248.011764" style="fill: #0a8e78; stroke: #0a8e78"/>
     <use xlink:href="#md653d8c335" x="209.551129" y="262.909279" style="fill: #0a8e78; stroke: #0a8e78"/>
     <use xlink:href="#md653d8c335" x="169.944226" y="280.123731" style="fill: #0a8e78; stroke: #0a8e78"/>
     <use xlink:href="#md653d8c335" x="70.732811" y="297.949884" style="fill: #0a8e78; stroke: #0a8e78"/>
    </g>
   </g>
   <g id="line2d_43">
    <defs>
     <path id="mc5d97ac3dd" d="M -3 3 
L 3 -3 
M -3 -3 
L 3 3 
" style="stroke: #6f0439"/>
    </defs>
    <g clip-path="url(#pee42e8347a)">
     <use xlink:href="#mc5d97ac3dd" x="399.00625" y="53.112382" style="fill: #6f0439; stroke: #6f0439"/>
     <use xlink:href="#mc5d97ac3dd" x="396.720297" y="53.366911" style="fill: #6f0439; stroke: #6f0439"/>
     <use xlink:href="#mc5d97ac3dd" x="394.357563" y="54.026195" style="fill: #6f0439; stroke: #6f0439"/>
     <use xlink:href="#mc5d97ac3dd" x="391.912711" y="55.029532" style="fill: #6f0439; stroke: #6f0439"/>
     <use xlink:href="#mc5d97ac3dd" x="389.379827" y="56.617363" style="fill: #6f0439; stroke: #6f0439"/>
     <use xlink:href="#mc5d97ac3dd" x="386.752333" y="58.369171" style="fill: #6f0439; stroke: #6f0439"/>
     <use xlink:href="#mc5d97ac3dd" x="384.022887" y="60.744374" style="fill: #6f0439; stroke: #6f0439"/>
     <use xlink:href="#mc5d97ac3dd" x="381.183256" y="63.482257" style="fill: #6f0439; stroke: #6f0439"/>
     <use xlink:href="#mc5d97ac3dd" x="378.224168" y="66.804164" style="fill: #6f0439; stroke: #6f0439"/>
     <use xlink:href="#mc5d97ac3dd" x="375.13513" y="70.0527" style="fill: #6f0439; stroke: #6f0439"/>
     <use xlink:href="#mc5d97ac3dd" x="371.904201" y="74.264347" style="fill: #6f0439; stroke: #6f0439"/>
     <use xlink:href="#mc5d97ac3dd" x="368.517717" y="78.726724" style="fill: #6f0439; stroke: #6f0439"/>
     <use xlink:href="#mc5d97ac3dd" x="364.959938" y="83.697818" style="fill: #6f0439; stroke: #6f0439"/>
     <use xlink:href="#mc5d97ac3dd" x="361.212606" y="89.252717" style="fill: #6f0439; stroke: #6f0439"/>
     <use xlink:href="#mc5d97ac3dd" x="357.254383" y="95.149202" style="fill: #6f0439; stroke: #6f0439"/>
     <use xlink:href="#mc5d97ac3dd" x="353.060108" y="101.066749" style="fill: #6f0439; stroke: #6f0439"/>
     <use xlink:href="#mc5d97ac3dd" x="348.59983" y="108.589722" style="fill: #6f0439; stroke: #6f0439"/>
     <use xlink:href="#mc5d97ac3dd" x="343.837513" y="115.864576" style="fill: #6f0439; stroke: #6f0439"/>
     <use xlink:href="#mc5d97ac3dd" x="338.729258" y="123.535484" style="fill: #6f0439; stroke: #6f0439"/>
     <use xlink:href="#mc5d97ac3dd" x="333.220842" y="132.020219" style="fill: #6f0439; stroke: #6f0439"/>
     <use xlink:href="#mc5d97ac3dd" x="327.244201" y="140.835437" style="fill: #6f0439; stroke: #6f0439"/>
     <use xlink:href="#mc5d97ac3dd" x="320.71228" y="151.249176" style="fill: #6f0439; stroke: #6f0439"/>
     <use xlink:href="#mc5d97ac3dd" x="313.51123" y="161.712544" style="fill: #6f0439; stroke: #6f0439"/>
     <use xlink:href="#mc5d97ac3dd" x="305.488148" y="172.255433" style="fill: #6f0439; stroke: #6f0439"/>
     <use xlink:href="#mc5d97ac3dd" x="296.430878" y="184.10794" style="fill: #6f0439; stroke: #6f0439"/>
     <use xlink:href="#mc5d97ac3dd" x="286.032795" y="196.284023" style="fill: #6f0439; stroke: #6f0439"/>
     <use xlink:href="#mc5d97ac3dd" x="273.82677" y="211.067486" style="fill: #6f0439; stroke: #6f0439"/>
     <use xlink:href="#mc5d97ac3dd" x="259.048976" y="225.276917" style="fill: #6f0439; stroke: #6f0439"/>
     <use xlink:href="#mc5d97ac3dd" x="240.318285" y="240.273386" style="fill: #6f0439; stroke: #6f0439"/>
     <use xlink:href="#mc5d97ac3dd" x="214.715834" y="258.740896" style="fill: #6f0439; stroke: #6f0439"/>
     <use xlink:href="#mc5d97ac3dd" x="174.054886" y="276.10071" style="fill: #6f0439; stroke: #6f0439"/>
     <use xlink:href="#mc5d97ac3dd" x="66.75625" y="297.984676" style="fill: #6f0439; stroke: #6f0439"/>
    </g>
   </g>
   <g id="line2d_44">
    <defs>
     <path id="m2af895e95e" d="M 0 -3 
L -3 3 
L 3 3 
z
" style="stroke: #66c8f9; stroke-linejoin: miter"/>
    </defs>
    <g clip-path="url(#pee42e8347a)">
     <use xlink:href="#m2af895e95e" x="399.00625" y="54.032052" style="fill: #66c8f9; stroke: #66c8f9; stroke-linejoin: miter"/>
     <use xlink:href="#m2af895e95e" x="396.287335" y="54.440714" style="fill: #66c8f9; stroke: #66c8f9; stroke-linejoin: miter"/>
     <use xlink:href="#m2af895e95e" x="393.459102" y="55.438034" style="fill: #66c8f9; stroke: #66c8f9; stroke-linejoin: miter"/>
     <use xlink:href="#m2af895e95e" x="390.512388" y="56.879108" style="fill: #66c8f9; stroke: #66c8f9; stroke-linejoin: miter"/>
     <use xlink:href="#m2af895e95e" x="387.436833" y="60.957502" style="fill: #66c8f9; stroke: #66c8f9; stroke-linejoin: miter"/>
     <use xlink:href="#m2af895e95e" x="384.220652" y="60.974395" style="fill: #66c8f9; stroke: #66c8f9; stroke-linejoin: miter"/>
     <use xlink:href="#m2af895e95e" x="380.850366" y="64.291534" style="fill: #66c8f9; stroke: #66c8f9; stroke-linejoin: miter"/>
     <use xlink:href="#m2af895e95e" x="377.310461" y="68.033922" style="fill: #66c8f9; stroke: #66c8f9; stroke-linejoin: miter"/>
     <use xlink:href="#m2af895e95e" x="373.582955" y="72.10224" style="fill: #66c8f9; stroke: #66c8f9; stroke-linejoin: miter"/>
     <use xlink:href="#m2af895e95e" x="369.646845" y="77.389232" style="fill: #66c8f9; stroke: #66c8f9; stroke-linejoin: miter"/>
     <use xlink:href="#m2af895e95e" x="365.477391" y="83.761147" style="fill: #66c8f9; stroke: #66c8f9; stroke-linejoin: miter"/>
     <use xlink:href="#m2af895e95e" x="361.045174" y="88.673095" style="fill: #66c8f9; stroke: #66c8f9; stroke-linejoin: miter"/>
     <use xlink:href="#m2af895e95e" x="356.314834" y="95.077224" style="fill: #66c8f9; stroke: #66c8f9; stroke-linejoin: miter"/>
     <use xlink:href="#m2af895e95e" x="351.243355" y="102.022928" style="fill: #66c8f9; stroke: #66c8f9; stroke-linejoin: miter"/>
     <use xlink:href="#m2af895e95e" x="345.777682" y="109.637172" style="fill: #66c8f9; stroke: #66c8f9; stroke-linejoin: miter"/>
     <use xlink:href="#m2af895e95e" x="339.851331" y="120.706242" style="fill: #66c8f9; stroke: #66c8f9; stroke-linejoin: miter"/>
     <use xlink:href="#m2af895e95e" x="333.379437" y="127.91473" style="fill: #66c8f9; stroke: #66c8f9; stroke-linejoin: miter"/>
     <use xlink:href="#m2af895e95e" x="326.251286" y="138.888197" style="fill: #66c8f9; stroke: #66c8f9; stroke-linejoin: miter"/>
     <use xlink:href="#m2af895e95e" x="318.318609" y="152.396495" style="fill: #66c8f9; stroke: #66c8f9; stroke-linejoin: miter"/>
     <use xlink:href="#m2af895e95e" x="309.376421" y="161.700695" style="fill: #66c8f9; stroke: #66c8f9; stroke-linejoin: miter"/>
     <use xlink:href="#m2af895e95e" x="299.129793" y="175.689853" style="fill: #66c8f9; stroke: #66c8f9; stroke-linejoin: miter"/>
     <use xlink:href="#m2af895e95e" x="287.132078" y="189.325483" style="fill: #66c8f9; stroke: #66c8f9; stroke-linejoin: miter"/>
     <use xlink:href="#m2af895e95e" x="272.65887" y="211.884272" style="fill: #66c8f9; stroke: #66c8f9; stroke-linejoin: miter"/>
     <use xlink:href="#m2af895e95e" x="254.415839" y="223.56222" style="fill: #66c8f9; stroke: #66c8f9; stroke-linejoin: miter"/>
     <use xlink:href="#m2af895e95e" x="229.720146" y="242.663599" style="fill: #66c8f9; stroke: #66c8f9; stroke-linejoin: miter"/>
     <use xlink:href="#m2af895e95e" x="191.332825" y="274.742879" style="fill: #66c8f9; stroke: #66c8f9; stroke-linejoin: miter"/>
     <use xlink:href="#m2af895e95e" x="100.322149" y="296.756291" style="fill: #66c8f9; stroke: #66c8f9; stroke-linejoin: miter"/>
    </g>
   </g>
   <g id="line2d_45">
    <path d="M 100.322149 358.26 
L 137.442761 321.015891 
L 161.615118 296.763114 
L 179.572254 278.746236 
L 193.865293 264.405645 
L 205.739068 252.492367 
L 215.895217 242.30243 
L 224.768447 233.399679 
L 232.646824 225.49509 
L 239.731111 218.387235 
L 246.166829 211.930106 
L 252.062836 206.014484 
L 257.502691 200.556531 
L 262.551935 195.490487 
L 267.262927 190.763823 
L 271.678153 186.333907 
L 275.832569 182.16567 
L 279.755275 178.229914 
L 283.470758 174.50207 
L 286.999818 170.961269 
L 290.360272 167.589635 
L 293.567499 164.371737 
L 296.634865 161.294166 
L 299.574061 158.345193 
L 302.395368 155.514499 
L 305.107881 152.792962 
L 307.719679 150.172474 
L 310.237975 147.6458 
L 312.669232 145.206455 
L 315.019267 142.848602 
L 317.293331 140.566972 
L 319.496183 138.356791 
L 321.632147 136.21372 
L 323.705167 134.133803 
L 325.718847 132.113425 
L 327.676488 130.149271 
L 329.581126 128.238296 
L 331.435556 126.377697 
L 333.242356 124.564885 
L 335.003912 122.797468 
L 336.722436 121.073228 
L 338.399978 119.390104 
L 340.038449 117.746182 
L 341.639627 116.139677 
L 343.205172 114.568924 
L 344.736636 113.032365 
L 346.23547 111.528544 
L 347.703036 110.056095 
L 349.140613 108.613736 
L 350.549401 107.200261 
L 351.930531 105.814536 
L 353.285068 104.455493 
L 354.614016 103.122123 
L 355.918326 101.813475 
L 357.198892 100.528648 
L 358.456566 99.26679 
L 359.69215 98.027095 
L 360.906407 96.808798 
L 362.100061 95.611173 
L 363.2738 94.433529 
L 364.428278 93.275211 
L 365.564115 92.135594 
L 366.681905 91.014085 
L 367.782212 89.910118 
L 368.865575 88.82315 
L 369.932508 87.752668 
L 370.9835 86.698179 
L 372.019023 85.659211 
L 373.039524 84.635315 
L 374.045434 83.626059 
L 375.037163 82.63103 
L 376.015106 81.649834 
L 376.979641 80.68209 
L 377.93113 79.727435 
L 378.869922 78.785519 
L 379.796352 77.856008 
L 380.71074 76.938578 
L 381.613395 76.032919 
L 382.504616 75.138734 
L 383.384687 74.255735 
L 384.253885 73.383645 
L 385.112474 72.522199 
L 385.960712 71.67114 
L 386.798843 70.83022 
L 387.627107 69.9992 
L 388.445733 69.177851 
L 389.254943 68.365949 
L 390.05495 67.56328 
L 390.845962 66.769636 
L 391.62818 65.984817 
L 392.401795 65.208628 
L 393.166996 64.440881 
L 393.923963 63.681395 
L 394.672872 62.929995 
L 395.413892 62.186509 
L 396.147189 61.450773 
L 396.872921 60.722627 
L 397.591242 60.001915 
L 398.302304 59.288488 
L 399.00625 58.5822 
" clip-path="url(#pee42e8347a)" style="fill: none; stroke: #000000; stroke-width: 1.5; stroke-linecap: square"/>
   </g>
   <g id="patch_3">
    <path d="M 50.14375 373.52 
L 50.14375 37.8 
" style="fill: none; stroke: #000000; stroke-width: 0.8; stroke-linejoin: miter; stroke-linecap: square"/>
   </g>
   <g id="patch_4">
    <path d="M 415.61875 373.52 
L 415.61875 37.8 
" style="fill: none; stroke: #000000; stroke-width: 0.8; stroke-linejoin: miter; stroke-linecap: square"/>
   </g>
   <g id="patch_5">
    <path d="M 50.14375 373.52 
L 415.61875 373.52 
" style="fill: none; stroke: #000000; stroke-width: 0.8; stroke-linejoin: miter; stroke-linecap: square"/>
   </g>
   <g id="patch_6">
    <path d="M 50.14375 37.8 
L 415.61875 37.8 
" style="fill: none; stroke: #000000; stroke-width: 0.8; stroke-linejoin: miter; stroke-linecap: square"/>
   </g>
   <g id="text_16">
    <!-- Dependance of ln v$_a$ on ln $[(\eta_c - \eta)/\eta_c]$ in log-log -->
    <g transform="translate(88.10125 16.32) scale(0.12 -0.12)">
     <defs>
      <path id="DejaVuSans-44" d="M 1259 4147 
L 1259 519 
L 2022 519 
Q 2988 519 3436 956 
Q 3884 1394 3884 2338 
Q 3884 3275 3436 3711 
Q 2988 4147 2022 4147 
L 1259 4147 
z
M 628 4666 
L 1925 4666 
Q 3281 4666 3915 4102 
Q 4550 3538 4550 2338 
Q 4550 1131 3912 565 
Q 3275 0 1925 0 
L 628 0 
L 628 4666 
z
" transform="scale(0.015625)"/>
      <path id="DejaVuSans-65" d="M 3597 1894 
L 3597 1613 
L 953 1613 
Q 991 1019 1311 708 
Q 1631 397 2203 397 
Q 2534 397 2845 478 
Q 3156 559 3463 722 
L 3463 178 
Q 3153 47 2828 -22 
Q 2503 -91 2169 -91 
Q 1331 -91 842 396 
Q 353 884 353 1716 
Q 353 2575 817 3079 
Q 1281 3584 2069 3584 
Q 2775 3584 3186 3129 
Q 3597 2675 3597 1894 
z
M 3022 2063 
Q 3016 2534 2758 2815 
Q 2500 3097 2075 3097 
Q 1594 3097 1305 2825 
Q 1016 2553 972 2059 
L 3022 2063 
z
" transform="scale(0.015625)"/>
      <path id="DejaVuSans-70" d="M 1159 525 
L 1159 -1331 
L 581 -1331 
L 581 3500 
L 1159 3500 
L 1159 2969 
Q 1341 3281 1617 3432 
Q 1894 3584 2278 3584 
Q 2916 3584 3314 3078 
Q 3713 2572 3713 1747 
Q 3713 922 3314 415 
Q 2916 -91 2278 -91 
Q 1894 -91 1617 61 
Q 1341 213 1159 525 
z
M 3116 1747 
Q 3116 2381 2855 2742 
Q 2594 3103 2138 3103 
Q 1681 3103 1420 2742 
Q 1159 2381 1159 1747 
Q 1159 1113 1420 752 
Q 1681 391 2138 391 
Q 2594 391 2855 752 
Q 3116 1113 3116 1747 
z
" transform="scale(0.015625)"/>
      <path id="DejaVuSans-6e" d="M 3513 2113 
L 3513 0 
L 2938 0 
L 2938 2094 
Q 2938 2591 2744 2837 
Q 2550 3084 2163 3084 
Q 1697 3084 1428 2787 
Q 1159 2491 1159 1978 
L 1159 0 
L 581 0 
L 581 3500 
L 1159 3500 
L 1159 2956 
Q 1366 3272 1645 3428 
Q 1925 3584 2291 3584 
Q 2894 3584 3203 3211 
Q 3513 2838 3513 2113 
z
" transform="scale(0.015625)"/>
      <path id="DejaVuSans-64" d="M 2906 2969 
L 2906 4863 
L 3481 4863 
L 3481 0 
L 2906 0 
L 2906 525 
Q 2725 213 2448 61 
Q 2172 -91 1784 -91 
Q 1150 -91 751 415 
Q 353 922 353 1747 
Q 353 2572 751 3078 
Q 1150 3584 1784 3584 
Q 2172 3584 2448 3432 
Q 2725 3281 2906 2969 
z
M 947 1747 
Q 947 1113 1208 752 
Q 1469 391 1925 391 
Q 2381 391 2643 752 
Q 2906 1113 2906 1747 
Q 2906 2381 2643 2742 
Q 2381 3103 1925 3103 
Q 1469 3103 1208 2742 
Q 947 2381 947 1747 
z
" transform="scale(0.015625)"/>
      <path id="DejaVuSans-61" d="M 2194 1759 
Q 1497 1759 1228 1600 
Q 959 1441 959 1056 
Q 959 750 1161 570 
Q 1363 391 1709 391 
Q 2188 391 2477 730 
Q 2766 1069 2766 1631 
L 2766 1759 
L 2194 1759 
z
M 3341 1997 
L 3341 0 
L 2766 0 
L 2766 531 
Q 2569 213 2275 61 
Q 1981 -91 1556 -91 
Q 1019 -91 701 211 
Q 384 513 384 1019 
Q 384 1609 779 1909 
Q 1175 2209 1959 2209 
L 2766 2209 
L 2766 2266 
Q 2766 2663 2505 2880 
Q 2244 3097 1772 3097 
Q 1472 3097 1187 3025 
Q 903 2953 641 2809 
L 641 3341 
Q 956 3463 1253 3523 
Q 1550 3584 1831 3584 
Q 2591 3584 2966 3190 
Q 3341 2797 3341 1997 
z
" transform="scale(0.015625)"/>
      <path id="DejaVuSans-63" d="M 3122 3366 
L 3122 2828 
Q 2878 2963 2633 3030 
Q 2388 3097 2138 3097 
Q 1578 3097 1268 2742 
Q 959 2388 959 1747 
Q 959 1106 1268 751 
Q 1578 397 2138 397 
Q 2388 397 2633 464 
Q 2878 531 3122 666 
L 3122 134 
Q 2881 22 2623 -34 
Q 2366 -91 2075 -91 
Q 1284 -91 818 406 
Q 353 903 353 1747 
Q 353 2603 823 3093 
Q 1294 3584 2113 3584 
Q 2378 3584 2631 3529 
Q 2884 3475 3122 3366 
z
" transform="scale(0.015625)"/>
      <path id="DejaVuSans-20" transform="scale(0.015625)"/>
      <path id="DejaVuSans-6f" d="M 1959 3097 
Q 1497 3097 1228 2736 
Q 959 2375 959 1747 
Q 959 1119 1226 758 
Q 1494 397 1959 397 
Q 2419 397 2687 759 
Q 2956 1122 2956 1747 
Q 2956 2369 2687 2733 
Q 2419 3097 1959 3097 
z
M 1959 3584 
Q 2709 3584 3137 3096 
Q 3566 2609 3566 1747 
Q 3566 888 3137 398 
Q 2709 -91 1959 -91 
Q 1206 -91 779 398 
Q 353 888 353 1747 
Q 353 2609 779 3096 
Q 1206 3584 1959 3584 
z
" transform="scale(0.015625)"/>
      <path id="DejaVuSans-66" d="M 2375 4863 
L 2375 4384 
L 1825 4384 
Q 1516 4384 1395 4259 
Q 1275 4134 1275 3809 
L 1275 3500 
L 2222 3500 
L 2222 3053 
L 1275 3053 
L 1275 0 
L 697 0 
L 697 3053 
L 147 3053 
L 147 3500 
L 697 3500 
L 697 3744 
Q 697 4328 969 4595 
Q 1241 4863 1831 4863 
L 2375 4863 
z
" transform="scale(0.015625)"/>
      <path id="DejaVuSans-6c" d="M 603 4863 
L 1178 4863 
L 1178 0 
L 603 0 
L 603 4863 
z
" transform="scale(0.015625)"/>
      <path id="DejaVuSans-5b" d="M 550 4863 
L 1875 4863 
L 1875 4416 
L 1125 4416 
L 1125 -397 
L 1875 -397 
L 1875 -844 
L 550 -844 
L 550 4863 
z
" transform="scale(0.015625)"/>
      <path id="DejaVuSans-5d" d="M 1947 4863 
L 1947 -844 
L 622 -844 
L 622 -397 
L 1369 -397 
L 1369 4416 
L 622 4416 
L 622 4863 
L 1947 4863 
z
" transform="scale(0.015625)"/>
      <path id="DejaVuSans-69" d="M 603 3500 
L 1178 3500 
L 1178 0 
L 603 0 
L 603 3500 
z
M 603 4863 
L 1178 4863 
L 1178 4134 
L 603 4134 
L 603 4863 
z
" transform="scale(0.015625)"/>
      <path id="DejaVuSans-67" d="M 2906 1791 
Q 2906 2416 2648 2759 
Q 2391 3103 1925 3103 
Q 1463 3103 1205 2759 
Q 947 2416 947 1791 
Q 947 1169 1205 825 
Q 1463 481 1925 481 
Q 2391 481 2648 825 
Q 2906 1169 2906 1791 
z
M 3481 434 
Q 3481 -459 3084 -895 
Q 2688 -1331 1869 -1331 
Q 1566 -1331 1297 -1286 
Q 1028 -1241 775 -1147 
L 775 -588 
Q 1028 -725 1275 -790 
Q 1522 -856 1778 -856 
Q 2344 -856 2625 -561 
Q 2906 -266 2906 331 
L 2906 616 
Q 2728 306 2450 153 
Q 2172 0 1784 0 
Q 1141 0 747 490 
Q 353 981 353 1791 
Q 353 2603 747 3093 
Q 1141 3584 1784 3584 
Q 2172 3584 2450 3431 
Q 2728 3278 2906 2969 
L 2906 3500 
L 3481 3500 
L 3481 434 
z
" transform="scale(0.015625)"/>
      <path id="DejaVuSans-2d" d="M 313 2009 
L 1997 2009 
L 1997 1497 
L 313 1497 
L 313 2009 
z
" transform="scale(0.015625)"/>
     </defs>
     <use xlink:href="#DejaVuSans-44" transform="translate(0 0.015625)"/>
     <use xlink:href="#DejaVuSans-65" transform="translate(77.001953 0.015625)"/>
     <use xlink:href="#DejaVuSans-70" transform="translate(138.525391 0.015625)"/>
     <use xlink:href="#DejaVuSans-65" transform="translate(202.001953 0.015625)"/>
     <use xlink:href="#DejaVuSans-6e" transform="translate(263.525391 0.015625)"/>
     <use xlink:href="#DejaVuSans-64" transform="translate(326.904297 0.015625)"/>
     <use xlink:href="#DejaVuSans-61" transform="translate(390.380859 0.015625)"/>
     <use xlink:href="#DejaVuSans-6e" transform="translate(451.660156 0.015625)"/>
     <use xlink:href="#DejaVuSans-63" transform="translate(515.039062 0.015625)"/>
     <use xlink:href="#DejaVuSans-65" transform="translate(570.019531 0.015625)"/>
     <use xlink:href="#DejaVuSans-20" transform="translate(631.542969 0.015625)"/>
     <use xlink:href="#DejaVuSans-6f" transform="translate(663.330078 0.015625)"/>
     <use xlink:href="#DejaVuSans-66" transform="translate(724.511719 0.015625)"/>
     <use xlink:href="#DejaVuSans-20" transform="translate(759.716797 0.015625)"/>
     <use xlink:href="#DejaVuSans-6c" transform="translate(791.503906 0.015625)"/>
     <use xlink:href="#DejaVuSans-6e" transform="translate(819.287109 0.015625)"/>
     <use xlink:href="#DejaVuSans-20" transform="translate(882.666016 0.015625)"/>
     <use xlink:href="#DejaVuSans-76" transform="translate(914.453125 0.015625)"/>
     <use xlink:href="#DejaVuSans-Oblique-61" transform="translate(974.589844 -16.390625) scale(0.7)"/>
     <use xlink:href="#DejaVuSans-20" transform="translate(1020.219727 0.015625)"/>
     <use xlink:href="#DejaVuSans-6f" transform="translate(1052.006836 0.015625)"/>
     <use xlink:href="#DejaVuSans-6e" transform="translate(1113.188477 0.015625)"/>
     <use xlink:href="#DejaVuSans-20" transform="translate(1176.567383 0.015625)"/>
     <use xlink:href="#DejaVuSans-6c" transform="translate(1208.354492 0.015625)"/>
     <use xlink:href="#DejaVuSans-6e" transform="translate(1236.137695 0.015625)"/>
     <use xlink:href="#DejaVuSans-20" transform="translate(1299.516602 0.015625)"/>
     <use xlink:href="#DejaVuSans-5b" transform="translate(1331.303711 0.015625)"/>
     <use xlink:href="#DejaVuSans-28" transform="translate(1370.317383 0.015625)"/>
     <use xlink:href="#DejaVuSans-Oblique-3b7" transform="translate(1409.331055 0.015625)"/>
     <use xlink:href="#DejaVuSans-Oblique-63" transform="translate(1472.709961 -16.390625) scale(0.7)"/>
     <use xlink:href="#DejaVuSans-2212" transform="translate(1533.413086 0.015625)"/>
     <use xlink:href="#DejaVuSans-Oblique-3b7" transform="translate(1636.68457 0.015625)"/>
     <use xlink:href="#DejaVuSans-29" transform="translate(1700.063477 0.015625)"/>
     <use xlink:href="#DejaVuSans-2f" transform="translate(1739.077148 0.015625)"/>
     <use xlink:href="#DejaVuSans-Oblique-3b7" transform="translate(1772.768555 0.015625)"/>
     <use xlink:href="#DejaVuSans-Oblique-63" transform="translate(1836.147461 -16.390625) scale(0.7)"/>
     <use xlink:href="#DejaVuSans-5d" transform="translate(1877.368164 0.015625)"/>
     <use xlink:href="#DejaVuSans-20" transform="translate(1916.381836 0.015625)"/>
     <use xlink:href="#DejaVuSans-69" transform="translate(1948.168945 0.015625)"/>
     <use xlink:href="#DejaVuSans-6e" transform="translate(1975.952148 0.015625)"/>
     <use xlink:href="#DejaVuSans-20" transform="translate(2039.331055 0.015625)"/>
     <use xlink:href="#DejaVuSans-6c" transform="translate(2071.118164 0.015625)"/>
     <use xlink:href="#DejaVuSans-6f" transform="translate(2098.901367 0.015625)"/>
     <use xlink:href="#DejaVuSans-67" transform="translate(2160.083008 0.015625)"/>
     <use xlink:href="#DejaVuSans-2d" transform="translate(2223.55957 0.015625)"/>
     <use xlink:href="#DejaVuSans-6c" transform="translate(2259.643555 0.015625)"/>
     <use xlink:href="#DejaVuSans-6f" transform="translate(2287.426758 0.015625)"/>
     <use xlink:href="#DejaVuSans-67" transform="translate(2348.608398 0.015625)"/>
    </g>
    <!--  for a fixed density $\rho=4.0$ after $10^5$ steps. -->
    <g transform="translate(105.26125 31.8) scale(0.12 -0.12)">
     <defs>
      <path id="DejaVuSans-72" d="M 2631 2963 
Q 2534 3019 2420 3045 
Q 2306 3072 2169 3072 
Q 1681 3072 1420 2755 
Q 1159 2438 1159 1844 
L 1159 0 
L 581 0 
L 581 3500 
L 1159 3500 
L 1159 2956 
Q 1341 3275 1631 3429 
Q 1922 3584 2338 3584 
Q 2397 3584 2469 3576 
Q 2541 3569 2628 3553 
L 2631 2963 
z
" transform="scale(0.015625)"/>
      <path id="DejaVuSans-78" d="M 3513 3500 
L 2247 1797 
L 3578 0 
L 2900 0 
L 1881 1375 
L 863 0 
L 184 0 
L 1544 1831 
L 300 3500 
L 978 3500 
L 1906 2253 
L 2834 3500 
L 3513 3500 
z
" transform="scale(0.015625)"/>
      <path id="DejaVuSans-73" d="M 2834 3397 
L 2834 2853 
Q 2591 2978 2328 3040 
Q 2066 3103 1784 3103 
Q 1356 3103 1142 2972 
Q 928 2841 928 2578 
Q 928 2378 1081 2264 
Q 1234 2150 1697 2047 
L 1894 2003 
Q 2506 1872 2764 1633 
Q 3022 1394 3022 966 
Q 3022 478 2636 193 
Q 2250 -91 1575 -91 
Q 1294 -91 989 -36 
Q 684 19 347 128 
L 347 722 
Q 666 556 975 473 
Q 1284 391 1588 391 
Q 1994 391 2212 530 
Q 2431 669 2431 922 
Q 2431 1156 2273 1281 
Q 2116 1406 1581 1522 
L 1381 1569 
Q 847 1681 609 1914 
Q 372 2147 372 2553 
Q 372 3047 722 3315 
Q 1072 3584 1716 3584 
Q 2034 3584 2315 3537 
Q 2597 3491 2834 3397 
z
" transform="scale(0.015625)"/>
      <path id="DejaVuSans-74" d="M 1172 4494 
L 1172 3500 
L 2356 3500 
L 2356 3053 
L 1172 3053 
L 1172 1153 
Q 1172 725 1289 603 
Q 1406 481 1766 481 
L 2356 481 
L 2356 0 
L 1766 0 
Q 1100 0 847 248 
Q 594 497 594 1153 
L 594 3053 
L 172 3053 
L 172 3500 
L 594 3500 
L 594 4494 
L 1172 4494 
z
" transform="scale(0.015625)"/>
      <path id="DejaVuSans-79" d="M 2059 -325 
Q 1816 -950 1584 -1140 
Q 1353 -1331 966 -1331 
L 506 -1331 
L 506 -850 
L 844 -850 
Q 1081 -850 1212 -737 
Q 1344 -625 1503 -206 
L 1606 56 
L 191 3500 
L 800 3500 
L 1894 763 
L 2988 3500 
L 3597 3500 
L 2059 -325 
z
" transform="scale(0.015625)"/>
      <path id="DejaVuSans-Oblique-3c1" d="M 1203 2875 
Q 1453 3194 1981 3475 
Q 2188 3584 2756 3584 
Q 3394 3584 3694 3078 
Q 3994 2572 3834 1747 
Q 3672 922 3175 415 
Q 2678 -91 2041 -91 
Q 1656 -91 1409 63 
Q 1163 213 1044 525 
L 681 -1331 
L 103 -1331 
L 697 1716 
Q 838 2438 1203 2875 
z
M 3238 1747 
Q 3359 2381 3169 2744 
Q 2978 3103 2522 3103 
Q 2066 3103 1734 2744 
Q 1403 2381 1281 1747 
Q 1156 1113 1347 750 
Q 1538 391 1994 391 
Q 2450 391 2781 750 
Q 3113 1113 3238 1747 
z
" transform="scale(0.015625)"/>
      <path id="DejaVuSans-3d" d="M 678 2906 
L 4684 2906 
L 4684 2381 
L 678 2381 
L 678 2906 
z
M 678 1631 
L 4684 1631 
L 4684 1100 
L 678 1100 
L 678 1631 
z
" transform="scale(0.015625)"/>
      <path id="DejaVuSans-34" d="M 2419 4116 
L 825 1625 
L 2419 1625 
L 2419 4116 
z
M 2253 4666 
L 3047 4666 
L 3047 1625 
L 3713 1625 
L 3713 1100 
L 3047 1100 
L 3047 0 
L 2419 0 
L 2419 1100 
L 313 1100 
L 313 1709 
L 2253 4666 
z
" transform="scale(0.015625)"/>
     </defs>
     <use xlink:href="#DejaVuSans-20" transform="translate(0 0.684375)"/>
     <use xlink:href="#DejaVuSans-66" transform="translate(31.787109 0.684375)"/>
     <use xlink:href="#DejaVuSans-6f" transform="translate(66.992188 0.684375)"/>
     <use xlink:href="#DejaVuSans-72" transform="translate(128.173828 0.684375)"/>
     <use xlink:href="#DejaVuSans-20" transform="translate(169.287109 0.684375)"/>
     <use xlink:href="#DejaVuSans-61" transform="translate(201.074219 0.684375)"/>
     <use xlink:href="#DejaVuSans-20" transform="translate(262.353516 0.684375)"/>
     <use xlink:href="#DejaVuSans-66" transform="translate(294.140625 0.684375)"/>
     <use xlink:href="#DejaVuSans-69" transform="translate(329.345703 0.684375)"/>
     <use xlink:href="#DejaVuSans-78" transform="translate(357.128906 0.684375)"/>
     <use xlink:href="#DejaVuSans-65" transform="translate(416.308594 0.684375)"/>
     <use xlink:href="#DejaVuSans-64" transform="translate(477.832031 0.684375)"/>
     <use xlink:href="#DejaVuSans-20" transform="translate(541.308594 0.684375)"/>
     <use xlink:href="#DejaVuSans-64" transform="translate(573.095703 0.684375)"/>
     <use xlink:href="#DejaVuSans-65" transform="translate(636.572266 0.684375)"/>
     <use xlink:href="#DejaVuSans-6e" transform="translate(698.095703 0.684375)"/>
     <use xlink:href="#DejaVuSans-73" transform="translate(761.474609 0.684375)"/>
     <use xlink:href="#DejaVuSans-69" transform="translate(813.574219 0.684375)"/>
     <use xlink:href="#DejaVuSans-74" transform="translate(841.357422 0.684375)"/>
     <use xlink:href="#DejaVuSans-79" transform="translate(880.566406 0.684375)"/>
     <use xlink:href="#DejaVuSans-20" transform="translate(939.746094 0.684375)"/>
     <use xlink:href="#DejaVuSans-Oblique-3c1" transform="translate(971.533203 0.684375)"/>
     <use xlink:href="#DejaVuSans-3d" transform="translate(1054.492188 0.684375)"/>
     <use xlink:href="#DejaVuSans-34" transform="translate(1157.763672 0.684375)"/>
     <use xlink:href="#DejaVuSans-2e" transform="translate(1221.386719 0.684375)"/>
     <use xlink:href="#DejaVuSans-30" transform="translate(1253.173828 0.684375)"/>
     <use xlink:href="#DejaVuSans-20" transform="translate(1316.796875 0.684375)"/>
     <use xlink:href="#DejaVuSans-61" transform="translate(1348.583984 0.684375)"/>
     <use xlink:href="#DejaVuSans-66" transform="translate(1409.863281 0.684375)"/>
     <use xlink:href="#DejaVuSans-74" transform="translate(1445.068359 0.684375)"/>
     <use xlink:href="#DejaVuSans-65" transform="translate(1484.277344 0.684375)"/>
     <use xlink:href="#DejaVuSans-72" transform="translate(1545.800781 0.684375)"/>
     <use xlink:href="#DejaVuSans-20" transform="translate(1586.914062 0.684375)"/>
     <use xlink:href="#DejaVuSans-31" transform="translate(1618.701172 0.684375)"/>
     <use xlink:href="#DejaVuSans-30" transform="translate(1682.324219 0.684375)"/>
     <use xlink:href="#DejaVuSans-35" transform="translate(1746.904297 38.965625) scale(0.7)"/>
     <use xlink:href="#DejaVuSans-20" transform="translate(1794.174805 0.684375)"/>
     <use xlink:href="#DejaVuSans-73" transform="translate(1825.961914 0.684375)"/>
     <use xlink:href="#DejaVuSans-74" transform="translate(1878.061523 0.684375)"/>
     <use xlink:href="#DejaVuSans-65" transform="translate(1917.270508 0.684375)"/>
     <use xlink:href="#DejaVuSans-70" transform="translate(1978.793945 0.684375)"/>
     <use xlink:href="#DejaVuSans-73" transform="translate(2042.270508 0.684375)"/>
     <use xlink:href="#DejaVuSans-2e" transform="translate(2094.370117 0.684375)"/>
    </g>
   </g>
   <g id="legend_1">
    <g id="patch_7">
     <path d="M 57.14375 119.190625 
L 153.898438 119.190625 
Q 155.898438 119.190625 155.898438 117.190625 
L 155.898438 44.8 
Q 155.898438 42.8 153.898438 42.8 
L 57.14375 42.8 
Q 55.14375 42.8 55.14375 44.8 
L 55.14375 117.190625 
Q 55.14375 119.190625 57.14375 119.190625 
z
" style="fill: #ffffff; opacity: 0.8; stroke: #cccccc; stroke-linejoin: miter"/>
    </g>
    <g id="line2d_46">
     <g>
      <use xlink:href="#m3dd43f832e" x="69.14375" y="50.898437" style="fill: #0f3c92; stroke: #0f3c92; stroke-linejoin: miter"/>
     </g>
    </g>
    <g id="text_17">
     <!-- N=40 -->
     <g transform="translate(87.14375 54.398437) scale(0.1 -0.1)">
      <defs>
       <path id="DejaVuSans-4e" d="M 628 4666 
L 1478 4666 
L 3547 763 
L 3547 4666 
L 4159 4666 
L 4159 0 
L 3309 0 
L 1241 3903 
L 1241 0 
L 628 0 
L 628 4666 
z
" transform="scale(0.015625)"/>
      </defs>
      <use xlink:href="#DejaVuSans-4e"/>
      <use xlink:href="#DejaVuSans-3d" x="74.804688"/>
      <use xlink:href="#DejaVuSans-34" x="158.59375"/>
      <use xlink:href="#DejaVuSans-30" x="222.216797"/>
     </g>
    </g>
    <g id="line2d_47">
     <g>
      <use xlink:href="#md653d8c335" x="69.14375" y="65.576562" style="fill: #0a8e78; stroke: #0a8e78"/>
     </g>
    </g>
    <g id="text_18">
     <!-- N=100 -->
     <g transform="translate(87.14375 69.076562) scale(0.1 -0.1)">
      <use xlink:href="#DejaVuSans-4e"/>
      <use xlink:href="#DejaVuSans-3d" x="74.804688"/>
      <use xlink:href="#DejaVuSans-31" x="158.59375"/>
      <use xlink:href="#DejaVuSans-30" x="222.216797"/>
      <use xlink:href="#DejaVuSans-30" x="285.839844"/>
     </g>
    </g>
    <g id="line2d_48">
     <g>
      <use xlink:href="#mc5d97ac3dd" x="69.14375" y="80.254687" style="fill: #6f0439; stroke: #6f0439"/>
     </g>
    </g>
    <g id="text_19">
     <!-- N=400 -->
     <g transform="translate(87.14375 83.754687) scale(0.1 -0.1)">
      <use xlink:href="#DejaVuSans-4e"/>
      <use xlink:href="#DejaVuSans-3d" x="74.804688"/>
      <use xlink:href="#DejaVuSans-34" x="158.59375"/>
      <use xlink:href="#DejaVuSans-30" x="222.216797"/>
      <use xlink:href="#DejaVuSans-30" x="285.839844"/>
     </g>
    </g>
    <g id="line2d_49">
     <g>
      <use xlink:href="#m2af895e95e" x="69.14375" y="94.932812" style="fill: #66c8f9; stroke: #66c8f9; stroke-linejoin: miter"/>
     </g>
    </g>
    <g id="text_20">
     <!-- N=4000 -->
     <g transform="translate(87.14375 98.432812) scale(0.1 -0.1)">
      <use xlink:href="#DejaVuSans-4e"/>
      <use xlink:href="#DejaVuSans-3d" x="74.804688"/>
      <use xlink:href="#DejaVuSans-34" x="158.59375"/>
      <use xlink:href="#DejaVuSans-30" x="222.216797"/>
      <use xlink:href="#DejaVuSans-30" x="285.839844"/>
      <use xlink:href="#DejaVuSans-30" x="349.462891"/>
     </g>
    </g>
    <g id="line2d_50">
     <path d="M 59.14375 109.610937 
L 69.14375 109.610937 
L 79.14375 109.610937 
" style="fill: none; stroke: #000000; stroke-width: 1.5; stroke-linecap: square"/>
    </g>
    <g id="text_21">
     <!-- Slope=0.194 -->
     <g transform="translate(87.14375 113.110937) scale(0.1 -0.1)">
      <defs>
       <path id="DejaVuSans-53" d="M 3425 4513 
L 3425 3897 
Q 3066 4069 2747 4153 
Q 2428 4238 2131 4238 
Q 1616 4238 1336 4038 
Q 1056 3838 1056 3469 
Q 1056 3159 1242 3001 
Q 1428 2844 1947 2747 
L 2328 2669 
Q 3034 2534 3370 2195 
Q 3706 1856 3706 1288 
Q 3706 609 3251 259 
Q 2797 -91 1919 -91 
Q 1588 -91 1214 -16 
Q 841 59 441 206 
L 441 856 
Q 825 641 1194 531 
Q 1563 422 1919 422 
Q 2459 422 2753 634 
Q 3047 847 3047 1241 
Q 3047 1584 2836 1778 
Q 2625 1972 2144 2069 
L 1759 2144 
Q 1053 2284 737 2584 
Q 422 2884 422 3419 
Q 422 4038 858 4394 
Q 1294 4750 2059 4750 
Q 2388 4750 2728 4690 
Q 3069 4631 3425 4513 
z
" transform="scale(0.015625)"/>
      </defs>
      <use xlink:href="#DejaVuSans-53"/>
      <use xlink:href="#DejaVuSans-6c" x="63.476562"/>
      <use xlink:href="#DejaVuSans-6f" x="91.259766"/>
      <use xlink:href="#DejaVuSans-70" x="152.441406"/>
      <use xlink:href="#DejaVuSans-65" x="215.917969"/>
      <use xlink:href="#DejaVuSans-3d" x="277.441406"/>
      <use xlink:href="#DejaVuSans-30" x="361.230469"/>
      <use xlink:href="#DejaVuSans-2e" x="424.853516"/>
      <use xlink:href="#DejaVuSans-31" x="456.640625"/>
      <use xlink:href="#DejaVuSans-39" x="520.263672"/>
      <use xlink:href="#DejaVuSans-34" x="583.886719"/>
     </g>
    </g>
   </g>
  </g>
 </g>
 <defs>
  <clipPath id="pee42e8347a">
   <rect x="50.14375" y="37.8" width="365.475" height="335.72"/>
  </clipPath>
 </defs>
</svg>
